<?xml version="1.0" encoding="UTF-8" standalone="no"?>
<!-- Created with Inkscape (http://www.inkscape.org/) -->
<svg
   xmlns:dc="http://purl.org/dc/elements/1.1/"
   xmlns:cc="http://creativecommons.org/ns#"
   xmlns:rdf="http://www.w3.org/1999/02/22-rdf-syntax-ns#"
   xmlns:svg="http://www.w3.org/2000/svg"
   xmlns="http://www.w3.org/2000/svg"
   xmlns:xlink="http://www.w3.org/1999/xlink"
   xmlns:sodipodi="http://sodipodi.sourceforge.net/DTD/sodipodi-0.dtd"
   xmlns:inkscape="http://www.inkscape.org/namespaces/inkscape"
   width="1280"
   height="720"
   id="svg3271"
   sodipodi:version="0.32"
   inkscape:version="0.46"
   version="1.0"
   sodipodi:docname="level6.svg"
   inkscape:output_extension="org.inkscape.output.svg.inkscape"
   inkscape:export-filename="/home/svenstaro/LudumDare/ludumdare15/img/level6.png"
   inkscape:export-xdpi="90"
   inkscape:export-ydpi="90">
  <defs
     id="defs3273">
    <linearGradient
       id="linearGradient3800">
      <stop
         style="stop-color:#130f05;stop-opacity:1;"
         offset="0"
         id="stop3802" />
      <stop
         style="stop-color:#3d2c10;stop-opacity:1;"
         offset="1"
         id="stop3804" />
    </linearGradient>
    <inkscape:perspective
       sodipodi:type="inkscape:persp3d"
       inkscape:vp_x="0 : 526.18109 : 1"
       inkscape:vp_y="0 : 1000 : 0"
       inkscape:vp_z="744.09448 : 526.18109 : 1"
       inkscape:persp3d-origin="372.04724 : 350.78739 : 1"
       id="perspective3279" />
    <linearGradient
       inkscape:collect="always"
       xlink:href="#linearGradient3800"
       id="linearGradient3806"
       x1="615.80365"
       y1="-71.032494"
       x2="606.81238"
       y2="213.07965"
       gradientUnits="userSpaceOnUse" />
    <filter
       inkscape:collect="always"
       id="filter3808">
      <feGaussianBlur
         inkscape:collect="always"
         stdDeviation="2.0932463"
         id="feGaussianBlur3810" />
    </filter>
    <filter
       inkscape:collect="always"
       id="filter3816">
      <feGaussianBlur
         inkscape:collect="always"
         stdDeviation="1.5075979"
         id="feGaussianBlur3818" />
    </filter>
    <linearGradient
       inkscape:collect="always"
       xlink:href="#linearGradient3800"
       id="linearGradient3826"
       x1="884.41589"
       y1="1.7568824"
       x2="962.45532"
       y2="387.73819"
       gradientUnits="userSpaceOnUse" />
    <filter
       inkscape:collect="always"
       id="filter3832">
      <feGaussianBlur
         inkscape:collect="always"
         stdDeviation="1.708172"
         id="feGaussianBlur3834" />
    </filter>
    <linearGradient
       inkscape:collect="always"
       xlink:href="#linearGradient3800"
       id="linearGradient3842"
       x1="162.92056"
       y1="-29.131651"
       x2="374.03214"
       y2="536.28894"
       gradientUnits="userSpaceOnUse" />
    <filter
       inkscape:collect="always"
       id="filter3844">
      <feGaussianBlur
         inkscape:collect="always"
         stdDeviation="1.9894929"
         id="feGaussianBlur3846" />
    </filter>
    <linearGradient
       inkscape:collect="always"
       xlink:href="#linearGradient3800"
       id="linearGradient3854"
       x1="660.08551"
       y1="796.20087"
       x2="690.69177"
       y2="487.66943"
       gradientUnits="userSpaceOnUse" />
    <linearGradient
       inkscape:collect="always"
       xlink:href="#linearGradient3800"
       id="linearGradient3870"
       x1="601.80554"
       y1="623.62384"
       x2="695.36755"
       y2="229.03857"
       gradientUnits="userSpaceOnUse" />
    <filter
       inkscape:collect="always"
       id="filter3872">
      <feGaussianBlur
         inkscape:collect="always"
         stdDeviation="2.317953"
         id="feGaussianBlur3874" />
    </filter>
  </defs>
  <sodipodi:namedview
     id="base"
     pagecolor="#ffffff"
     bordercolor="#666666"
     borderopacity="1.0"
     gridtolerance="10000"
     guidetolerance="10"
     objecttolerance="10"
     inkscape:pageopacity="0.0"
     inkscape:pageshadow="2"
     inkscape:zoom="1.07"
     inkscape:cx="555.6794"
     inkscape:cy="289.22006"
     inkscape:document-units="px"
     inkscape:current-layer="layer1"
     showgrid="false"
     inkscape:window-width="1680"
     inkscape:window-height="982"
     inkscape:window-x="-4"
     inkscape:window-y="-3" />
  <metadata
     id="metadata3276">
    <rdf:RDF>
      <cc:Work
         rdf:about="">
        <dc:format>image/svg+xml</dc:format>
        <dc:type
           rdf:resource="http://purl.org/dc/dcmitype/StillImage" />
      </cc:Work>
    </rdf:RDF>
  </metadata>
  <g
     inkscape:label="Layer 1"
     inkscape:groupmode="layer"
     id="layer1"
     style="opacity:1">
    <path
       style="fill:url(#linearGradient3870);fill-rule:evenodd;stroke:#000000;stroke-width:5;stroke-linecap:butt;stroke-linejoin:miter;stroke-opacity:1;filter:url(#filter3872);fill-opacity:1;stroke-miterlimit:4;stroke-dasharray:none"
       d="M 385.04673,672.33645 C 385.04673,677.02381 401.88047,661.10452 403.73832,658.31776 C 424.99066,626.43924 451.29417,594.59524 464.48598,558.31776 C 470.68997,541.2568 496.3679,510.38866 505.60748,487.28972 C 519.75199,451.92843 524.21348,416.09395 534.57944,379.81308 C 542.49229,352.1181 541.73959,322.20052 548.59813,294.76636 C 552.14997,280.55901 552.15179,277.25555 560.74766,265.79439 C 566.83431,257.67887 585.12136,251.28975 594.39252,248.97196 C 603.37302,246.72684 612.10056,244.29907 621.49533,244.29907 C 629.388,244.29907 629.91352,245.26155 631.7757,252.71028 C 633.50559,259.62983 630.13323,270.94849 627.1028,277.00935 C 622.31379,286.58738 619.08,298.46823 614.95327,308.78505 C 614.33022,310.34268 613.70717,311.90031 613.08411,313.45794 C 608.6126,324.63674 613.6977,339.89035 615.88785,350.84112 C 618.53646,364.08416 624.29907,374.74298 624.29907,389.15888 C 624.29907,392.8972 624.29907,396.63551 624.29907,400.37383 C 624.29907,425.95534 636.66809,447.65152 645.79439,470.46729 C 655.10098,493.73376 689.50197,511.65275 695.3271,534.95327 C 697.31552,542.90696 727.88639,580.59668 736.4486,589.15888 C 747.26218,599.97246 797.12737,644.8047 809.3458,654.57944 C 819.89767,663.02094 831.81254,663.8884 819.62617,676.07477 C 804.91522,690.78572 774.89729,694.09966 756.07477,700.37383 C 722.8501,711.44872 644.52364,675.92516 610.28037,684.48598 C 580.64825,691.89401 545.96409,689.091 517.75701,700.37383 C 500.1854,707.40248 439.79453,700.37383 417.75701,700.37383 C 401.24611,700.37383 384.7352,700.37383 368.2243,700.37383 C 363.21104,700.37383 372.6522,693.14219 376.63551,689.15888 C 380.11182,685.68257 382.3727,680.22883 383.17757,677.00935 C 383.58445,675.38181 384.42368,673.89408 385.04673,672.33645 z"
       id="path3287"
       sodipodi:nodetypes="csssssssssssssssssssssssssssc" />
    <path
       style="fill:url(#linearGradient3854);fill-rule:evenodd;stroke:#000000;stroke-width:5;stroke-linecap:butt;stroke-linejoin:miter;stroke-opacity:1;stroke-miterlimit:4;stroke-dasharray:none;filter:url(#filter3844);fill-opacity:1"
       d="M -33.64486,570.46729 C -29.557749,570.10853 -20.32219,572.01033 -14.018692,573.27103 C -1.9019245,575.69438 12.500854,577.89754 24.299065,582.61682 C 41.391327,589.45373 64.958748,588.92615 83.17757,591.96262 C 93.292793,593.64849 104.09142,596.63551 114.01869,596.63551 C 128.55769,596.63551 146.63633,602.22446 160.74766,605.04673 C 190.47763,610.99272 222.74868,611.38352 251.40187,620.93458 C 282.54764,631.3165 337.42469,634.80443 371.96262,640.56075 C 432.95494,650.72614 494.24051,658.29437 555.14019,667.66355 C 607.67529,675.74588 668.12902,667.66355 721.49533,667.66355 C 770.40498,667.66355 819.31464,667.66355 868.2243,667.66355 C 900.25746,667.66355 931.47361,668.9073 962.61682,661.1215 C 996.72727,652.59388 1036.6383,659.17646 1069.1589,646.16822 C 1088.7072,638.34889 1121.0749,635.88785 1142.0561,635.88785 C 1160.4361,635.88785 1178.8162,635.88785 1197.1963,635.88785 C 1209.2298,635.88785 1221.4218,634.95327 1233.6449,634.95327 C 1239.5639,634.95327 1245.4829,634.95327 1251.4019,634.95327 C 1258.2091,634.95327 1267.5314,635.24733 1273.8318,636.82243 C 1283.5108,639.24218 1287.6183,637.52489 1294.3925,644.29907 C 1300.6513,650.55789 1299.9576,660.35652 1298.1308,667.66355 C 1296.8879,672.63516 1296.2617,679.32478 1296.2617,684.48598 C 1296.2617,689.68938 1295.3271,695.74416 1295.3271,701.30841 C 1295.3271,706.60436 1295.3271,711.90031 1295.3271,717.19626 C 1295.3271,724.24507 1292.8379,723.42376 1288.785,727.47664 C 1285.6146,730.64706 1279.0031,729.34579 1274.7664,729.34579 C 1265.6044,729.34579 1256.3434,730.91414 1247.6636,733.08411 C 1238.6938,735.32654 1229.1299,735.61473 1220.5607,737.75701 C 1212.4144,739.7936 1204.522,740.36483 1196.2617,742.42991 C 1182.5289,745.8631 1167.4522,746.60843 1153.271,748.97196 C 1118.503,754.76663 1086.1289,758.31776 1050.4673,758.31776 C 1021.3436,758.31776 992.46614,768.59813 962.61682,768.59813 C 912.4981,768.59813 864.47103,779.81308 814.01869,779.81308 C 771.66488,779.81308 730.57065,790.09346 687.85047,790.09346 C 615.07942,790.09346 530.75499,801.17819 459.81308,784.48598 C 394.49508,769.11704 324.37946,782.47446 257.94393,771.40187 C 205.26652,762.6223 151.42395,765.79439 98.130841,765.79439 C 70.404984,765.79439 42.679128,765.79439 14.953271,765.79439 C -0.75143326,765.79439 -10.300672,762.04796 -24.299065,756.4486 C -33.425511,752.79802 -39.033818,741.23647 -43.925234,733.08411 C -50.530731,722.07495 -54.950747,707.11795 -57.009346,694.76636 C -57.422251,692.28892 -57.632399,689.78193 -57.943925,687.28972 C -60.354125,668.00813 -58.827557,656.61856 -46.728972,641.49533 C -42.035768,635.62882 -42.990654,628.12153 -42.990654,620.93458 C -42.990654,614.39252 -42.990654,607.85047 -42.990654,601.30841 C -42.990654,594.52353 -42.056075,588.40245 -42.056075,581.68224 C -42.056075,573.62726 -41.622048,575.2536 -33.64486,570.46729 z"
       id="path3281" />
    <path
       style="fill:url(#linearGradient3826);fill-rule:evenodd;stroke:#000000;stroke-width:5;stroke-linecap:butt;stroke-linejoin:miter;stroke-opacity:1;filter:url(#filter3816);stroke-miterlimit:4;stroke-dasharray:none;fill-opacity:1"
       d="M 819.62617,47.102803 C 819.94208,45.83914 827.65874,65.340623 833.64486,87.289719 C 846.48512,134.37068 866.72775,177.37586 874.76635,225.60748 C 878.43348,247.61021 881.30841,267.68153 881.30841,290.09346 C 881.30841,300.06452 884.26443,311.03491 887.85046,320 C 892.06175,330.52822 892.52336,344.31049 892.52336,355.51402 C 892.52336,368.59813 892.52336,381.68224 892.52336,394.76636 C 892.52336,406.66196 907.66963,412.60057 916.82243,416.26168 C 927.56425,420.55841 934.33914,420.2403 942.05607,412.52337 C 964.71257,389.86687 1010.2804,375.06276 1010.2804,344.29906 C 1010.2804,301.13978 976.63551,261.10455 976.63551,218.13084 C 976.63551,200.44128 977.53246,184.71173 980.37387,167.66355 C 982.22367,156.56429 987.66227,146.54464 992.52337,136.82243 C 998.98257,123.90399 1002.5529,116.21615 1014.9533,106.91589 C 1029.9289,95.684218 1015.1099,75.638286 1032.7103,68.59813 C 1035.2391,67.586595 1003.249,53.168126 999.99997,51.7757 C 969.06095,38.516109 932.77241,31.214953 899.06542,31.214953 C 880.68536,31.214953 862.30529,31.214953 843.92523,31.214953 C 833.97519,31.214953 833.29254,34.723328 830.84112,39.626168 C 828.2563,44.795809 824.99661,46.028715 819.62617,47.102803 z"
       id="path3289"
       sodipodi:nodetypes="cssssssssssssssssssc" />
    <path
       style="fill:url(#linearGradient3842);fill-rule:evenodd;stroke:#000000;stroke-width:5;stroke-linecap:butt;stroke-linejoin:miter;stroke-opacity:1;stroke-miterlimit:4;stroke-dasharray:none;filter:url(#filter3832);fill-opacity:1"
       d="M 72.897196,119.06542 C 76.652793,126.57661 87.130141,138.54568 93.457944,148.03738 C 111.6626,175.34437 128.12534,199.61517 142.99065,229.34579 C 155.63186,254.6282 178.3764,278.10888 183.17757,306.91589 C 185.85796,322.99823 193.19876,340.45859 197.19626,356.4486 C 199.6835,366.39754 200.25325,376.58127 204.6729,385.42056 C 207.94375,391.96226 212.59055,396.73263 218.69159,401.30841 C 219.24886,401.72637 219.93769,401.93146 220.56075,402.24299 C 226.39786,405.16155 231.73516,408.76478 237.38318,411.58879 C 241.1947,413.49455 251.68375,411.51832 255.14019,410.65421 C 261.52115,409.05896 264.16886,410.03675 269.15888,405.04673 C 275.06523,399.14038 280.50752,389.82609 284.11215,382.61682 C 288.92806,372.985 290.91147,361.96159 293.45794,351.7757 C 295.76018,342.56675 297.28081,333.59595 299.06542,324.6729 C 301.21608,313.91962 304.37085,303.78166 309.34579,293.83178 C 318.97738,274.5686 330.60331,251.57119 333.64486,230.28037 C 338.24835,198.05592 340.4957,160.08948 353.27103,130.28037 C 361.82063,110.33131 367.5622,86.589419 371.02804,65.794393 C 372.61865,56.250692 370.44682,57.736537 364.48598,51.775701 C 356.7239,44.013624 345.34601,41.495327 334.57944,41.495327 C 301.27014,41.495327 271.17406,46.736407 238.31776,52.71028 C 195.78211,60.444034 154.19258,62.808951 114.01869,78.878505 C 101.02501,84.075978 81.613823,86.049729 72.897196,94.766355 C 69.882029,97.781522 69.158879,100.84288 69.158879,105.98131 C 69.158879,109.07608 72.187751,115.51819 72.897196,119.06542 z"
       id="path3285" />
    <path
       style="fill:url(#linearGradient3806);fill-rule:evenodd;stroke:#000000;stroke-width:5;stroke-linecap:butt;stroke-linejoin:miter;stroke-opacity:1;fill-opacity:1;stroke-miterlimit:4;stroke-dasharray:none;filter:url(#filter3808)"
       d="M -54.205607,256.4486 C -54.205607,246.13068 -12.679602,221.84998 -3.7383178,216.26168 C 34.806869,192.17094 65.848649,166.63621 109.34579,149.90654 C 153.99691,132.73304 195.45042,106.41777 242.05607,94.766355 C 280.70844,85.103265 314.21264,57.383178 355.14019,57.383178 C 394.59388,57.383178 435.29591,46.168224 476.63551,46.168224 C 556.38629,46.168224 636.13707,46.168224 715.88785,46.168224 C 776.96672,46.168224 833.20496,55.590123 893.45794,64.859813 C 941.47808,72.247526 987.98311,85.909957 1035.514,93.831776 C 1081.9411,101.56963 1121.1988,123.66418 1166.3551,134.95327 C 1191.7201,141.29451 1217.9451,154.90019 1242.9907,162.05607 C 1255.5925,165.6566 1265.5314,171.40187 1278.5047,171.40187 C 1285.877,171.40187 1288.9423,172.72512 1295.3271,169.53271 C 1303.0089,165.69182 1305.1305,154.1604 1306.5421,147.1028 C 1308.8738,135.444 1304.6729,122.58923 1304.6729,110.65421 C 1304.6729,100.74371 1304.6905,91.115977 1302.8037,81.682243 C 1300.9099,72.21319 1300.7355,60.623852 1297.1963,51.775701 C 1292.1035,39.043851 1296.0505,25.185159 1289.7196,12.523364 C 1286.3117,5.7074124 1282.9577,-3.3092033 1281.3084,-9.9065421 C 1280.4188,-13.464912 1270.6806,-19.42606 1267.2897,-21.121495 C 1227.9183,-40.807226 1179.0167,-35.140187 1136.4486,-35.140187 C 1043.3022,-35.140187 950.15576,-35.140187 857.00935,-35.140187 C 794.081,-35.140187 731.15265,-35.140187 668.2243,-35.140187 C 622.11838,-35.140187 576.01246,-35.140187 529.90654,-35.140187 C 524.61059,-35.140187 519.31464,-35.140187 514.01869,-35.140187 C 473.83178,-35.140187 433.64486,-35.140187 393.45794,-35.140187 C 340.81006,-35.140187 288.10627,-34.205607 235.51402,-34.205607 C 192.98049,-34.205607 149.52422,-30.46729 106.54206,-30.46729 C 75.615999,-30.46729 39.476777,-34.591948 10.280374,-24.859813 C 1.9495777,-22.082881 -3.5905224,-24.073029 -9.3457944,-18.317757 C -22.493019,-5.1705325 -36.001177,8.9042605 -39.252336,28.411215 C -45.3986,65.288794 -54.474951,101.11859 -62.616822,137.75701 C -67.989698,161.93495 -62.616822,184.60102 -62.616822,208.78505 C -62.616822,215.95016 -62.616822,223.11526 -62.616822,230.28037 C -62.616822,234.27477 -57.912416,239.68919 -56.074766,243.36449 C -54.575226,246.36357 -55.613472,252.92894 -54.205607,256.4486 z"
       id="path3283" />
    <flowRoot
       xml:space="preserve"
       id="flowRoot3355"
       style="font-size:40px;font-style:normal;font-weight:normal;fill:#000000;fill-opacity:1;stroke:none;stroke-width:1px;stroke-linecap:butt;stroke-linejoin:miter;stroke-opacity:1;font-family:Bitstream Vera Sans"
       transform="translate(-88.32102,435.37859)"><flowRegion
         id="flowRegion3357"><rect
           id="rect3359"
           width="1233"
           height="161"
           x="39"
           y="220" /></flowRegion><flowPara
         style="text-align:center;text-anchor:middle;fill:#ffffff;fill-opacity:1"
         id="flowPara3363">What would he find?</flowPara></flowRoot>  </g>
</svg>
