<?xml version="1.0" encoding="UTF-8" standalone="no"?>
<!-- Created with Inkscape (http://www.inkscape.org/) -->
<svg
   xmlns:dc="http://purl.org/dc/elements/1.1/"
   xmlns:cc="http://creativecommons.org/ns#"
   xmlns:rdf="http://www.w3.org/1999/02/22-rdf-syntax-ns#"
   xmlns:svg="http://www.w3.org/2000/svg"
   xmlns="http://www.w3.org/2000/svg"
   xmlns:xlink="http://www.w3.org/1999/xlink"
   xmlns:sodipodi="http://sodipodi.sourceforge.net/DTD/sodipodi-0.dtd"
   xmlns:inkscape="http://www.inkscape.org/namespaces/inkscape"
   width="1280"
   height="720"
   id="svg7998"
   sodipodi:version="0.32"
   inkscape:version="0.46"
   version="1.0"
   sodipodi:docname="level4.svg"
   inkscape:output_extension="org.inkscape.output.svg.inkscape"
   inkscape:export-filename="/home/svenstaro/LudumDare/ludumdare15/img/level4.png"
   inkscape:export-xdpi="90"
   inkscape:export-ydpi="90">
  <defs
     id="defs8000">
    <linearGradient
       id="linearGradient8529">
      <stop
         style="stop-color:#030209;stop-opacity:1;"
         offset="0"
         id="stop8531" />
      <stop
         style="stop-color:#263053;stop-opacity:1;"
         offset="1"
         id="stop8533" />
    </linearGradient>
    <inkscape:perspective
       sodipodi:type="inkscape:persp3d"
       inkscape:vp_x="0 : 526.18109 : 1"
       inkscape:vp_y="0 : 1000 : 0"
       inkscape:vp_z="744.09448 : 526.18109 : 1"
       inkscape:persp3d-origin="372.04724 : 350.78739 : 1"
       id="perspective8006" />
    <filter
       inkscape:collect="always"
       id="filter8521">
      <feGaussianBlur
         inkscape:collect="always"
         stdDeviation="2.0027034"
         id="feGaussianBlur8523" />
    </filter>
    <filter
       inkscape:collect="always"
       id="filter8525">
      <feGaussianBlur
         inkscape:collect="always"
         stdDeviation="1.958868"
         id="feGaussianBlur8527" />
    </filter>
    <linearGradient
       inkscape:collect="always"
       xlink:href="#linearGradient8529"
       id="linearGradient8535"
       x1="591.49023"
       y1="891.37366"
       x2="603.13336"
       y2="493.2428"
       gradientUnits="userSpaceOnUse" />
    <linearGradient
       inkscape:collect="always"
       xlink:href="#linearGradient8529"
       id="linearGradient8543"
       x1="786.3338"
       y1="-68.696838"
       x2="768.8551"
       y2="271.49008"
       gradientUnits="userSpaceOnUse" />
    <filter
       inkscape:collect="always"
       id="filter8551">
      <feGaussianBlur
         inkscape:collect="always"
         stdDeviation="1.9617985"
         id="feGaussianBlur8553" />
    </filter>
    <linearGradient
       inkscape:collect="always"
       xlink:href="#linearGradient8529"
       id="linearGradient8561"
       x1="740.49066"
       y1="784.4364"
       x2="911.84576"
       y2="393.7822"
       gradientUnits="userSpaceOnUse" />
    <filter
       inkscape:collect="always"
       id="filter8573">
      <feGaussianBlur
         inkscape:collect="always"
         stdDeviation="1.5275456"
         id="feGaussianBlur8575" />
    </filter>
    <linearGradient
       inkscape:collect="always"
       xlink:href="#linearGradient8529"
       id="linearGradient8583"
       x1="284.04938"
       y1="0.68683511"
       x2="424.62091"
       y2="499.75226"
       gradientUnits="userSpaceOnUse" />
  </defs>
  <sodipodi:namedview
     id="base"
     pagecolor="#ffffff"
     bordercolor="#666666"
     borderopacity="1.0"
     gridtolerance="10000"
     guidetolerance="10"
     objecttolerance="10"
     inkscape:pageopacity="0.0"
     inkscape:pageshadow="2"
     inkscape:zoom="1.07"
     inkscape:cx="723.22026"
     inkscape:cy="322.61682"
     inkscape:document-units="px"
     inkscape:current-layer="layer1"
     showgrid="false"
     inkscape:window-width="1680"
     inkscape:window-height="982"
     inkscape:window-x="-4"
     inkscape:window-y="-3" />
  <metadata
     id="metadata8003">
    <rdf:RDF>
      <cc:Work
         rdf:about="">
        <dc:format>image/svg+xml</dc:format>
        <dc:type
           rdf:resource="http://purl.org/dc/dcmitype/StillImage" />
      </cc:Work>
    </rdf:RDF>
  </metadata>
  <g
     inkscape:label="Layer 1"
     inkscape:groupmode="layer"
     id="layer1">
    <path
       style="fill:url(#linearGradient8583);fill-rule:evenodd;stroke:#000000;stroke-width:5;stroke-linecap:butt;stroke-linejoin:miter;stroke-opacity:1;filter:url(#filter8573);stroke-miterlimit:4;stroke-dasharray:none;fill-opacity:1"
       d="M 213.08411,135.88785 C 214.97886,138.50296 222.19917,144.926 225.23364,148.97196 C 228.38744,153.17703 230.46834,157.01039 234.57944,161.1215 C 238.25268,164.79474 242.14063,171.57098 243.92523,175.14019 C 246.68719,180.6641 248.11448,185.35512 249.53271,191.02804 C 251.30348,198.11112 253.27103,205.23541 253.27103,212.52336 C 253.27103,218.87538 256.07477,225.21096 256.07477,232.14953 C 256.07477,239.62617 256.07477,247.1028 256.07477,254.57944 C 256.07477,260.49844 256.07477,266.41745 256.07477,272.33645 C 256.07477,280.43614 256.07477,288.53583 256.07477,296.63551 C 256.07477,303.4891 256.07477,310.34268 256.07477,317.19626 C 256.07477,318.44237 256.07477,319.68847 256.07477,320.93458 C 256.07477,329.50319 257.00935,337.69832 257.00935,346.16822 C 257.00935,353.95639 257.00935,361.74455 257.00935,369.53271 C 257.00935,376.7317 259.28381,385.57795 260.74766,392.8972 C 262.09581,399.63793 266.73189,404.68458 268.2243,410.65421 C 269.43458,415.49532 274.48932,420.38052 276.63551,424.6729 C 279.11309,429.62804 282.14427,432.05081 285.04673,434.95327 C 289.20849,439.11503 292.70788,444.48358 297.19626,448.97196 C 300.78922,452.56492 304.66102,454.80418 309.34579,458.31776 C 313.72081,461.59902 320.05258,461.69539 325.23364,462.99065 C 329.41996,464.03723 336.46323,462.75335 339.25234,462.05607 C 343.24834,461.05708 347.33256,458.48325 351.40187,456.4486 C 355.69504,454.30201 359.27828,451.37593 362.61682,448.03738 C 365.50658,445.14763 366.82811,441.48396 368.2243,438.69159 C 370.54984,434.04051 370.09346,429.0916 370.09346,423.73832 C 370.09346,418.84997 371.72466,416.27893 372.8972,411.58879 C 373.48943,409.21986 377.40449,404.44336 378.50467,402.24299 C 380.72806,397.79621 381.73682,393.57209 385.04673,389.15888 C 387.92339,385.32333 389.17959,378.08942 390.65421,375.14019 C 392.62272,371.20316 393.32079,365.40843 394.39252,361.1215 C 395.7912,355.52679 393.98691,348.72527 395.3271,343.36449 C 397.11774,336.20194 395.72643,328.28375 397.19626,320.93458 C 398.82464,312.79268 401.46778,305.58585 402.80374,297.57009 C 404.17398,289.34864 409.13831,279.29347 413.08411,271.40187 C 416.98055,263.609 424.19355,252.19777 426.16822,244.29907 C 428.05249,236.76199 432.25106,227.46049 435.51402,220.93458 C 438.97476,214.01309 440.49577,207.23275 443.92523,200.37383 C 446.4457,195.3329 448.2137,190.69662 449.53271,185.42056 C 451.02231,179.46214 451.66777,174.60054 450.46729,168.59813 C 448.82755,160.39943 441.76537,152.34894 434.57944,148.03738 C 432.65312,146.88159 430.84112,145.54517 428.97196,144.29907 C 393.74333,120.81331 344.67267,121.66521 304.6729,114.39252 C 272.82945,108.60281 234.48644,114.39252 201.86916,114.39252 C 194.28177,114.39252 189.77712,113.95398 198.13084,118.13084 C 202.30408,120.21746 207.27033,121.66285 211.21495,125.60748 C 213.0416,127.43412 213.08411,133.72938 213.08411,135.88785 z"
       id="path8563" />
    <path
       style="fill:url(#linearGradient8543);fill-rule:evenodd;stroke:#000000;stroke-width:5;stroke-linecap:butt;stroke-linejoin:miter;stroke-opacity:1;stroke-miterlimit:4;stroke-dasharray:none;filter:url(#filter8521);fill-opacity:1"
       d="M -60.747664,81.682243 C -55.57356,84.448395 -36.296266,93.145045 -25.233645,97.570093 C 10.276458,111.77413 44.070257,113.72784 80.373832,122.80374 C 122.2835,133.28115 166.78019,135.78594 209.34579,144.29907 C 262.73989,154.97788 316.51493,163.52948 370.09346,173.27103 C 422.73845,182.84284 475.50249,188.81428 528.03738,197.57009 C 579.57603,206.15987 627.15875,210.65421 679.43925,210.65421 C 717.46164,210.65421 764.5385,218.11333 800.93458,205.98131 C 815.04928,201.27641 874.79952,191.96262 890.65421,191.96262 C 918.20771,191.96262 955.78319,184.56929 982.24299,177.00935 C 1012.5231,168.35789 1045.5038,169.74924 1075.7009,161.1215 C 1104.2998,152.95039 1135.3232,154.64305 1163.5514,145.23364 C 1194.4347,134.93921 1225.3401,123.2178 1254.2056,108.78505 C 1270.5341,100.62082 1288.4722,93.10714 1298.1308,77.009346 C 1302.7352,69.335485 1304.6729,61.980992 1304.6729,52.71028 C 1304.6729,44.94539 1302.8037,38.782322 1302.8037,31.214953 C 1302.8037,26.23053 1302.8037,21.246106 1302.8037,16.261682 C 1302.8037,10.283282 1302.2509,5.6390634 1300.9346,0.37383178 C 1299.5447,-5.1855279 1288.3114,-9.9090992 1285.9813,-10.841121 C 1281.3787,-12.682181 1273.2002,-11.775701 1268.2243,-11.775701 C 1252.5584,-11.775701 1237.2232,-10.841121 1221.4953,-10.841121 C 1191.9003,-10.841121 1162.3053,-10.841121 1132.7103,-10.841121 C 1118.0685,-10.841121 1103.4268,-10.841121 1088.785,-10.841121 C 1076.6355,-10.841121 1064.486,-10.841121 1052.3364,-10.841121 C 1029.595,-10.841121 1006.8536,-10.841121 984.11215,-10.841121 C 933.95639,-10.841121 883.80062,-10.841121 833.64486,-10.841121 C 790.03115,-10.841121 746.41745,-10.841121 702.80374,-10.841121 C 665.42056,-10.841121 628.03738,-10.841121 590.65421,-10.841121 C 551.09034,-10.841121 511.52648,-10.841121 471.96262,-10.841121 C 423.36449,-10.841121 374.76636,-10.841121 326.16822,-10.841121 C 279.43925,-10.841121 232.71028,-10.841121 185.98131,-10.841121 C 147.97508,-10.841121 109.96885,-10.841121 71.962617,-10.841121 C 46.417445,-10.841121 20.872274,-10.841121 -4.6728972,-10.841121 C -11.395698,-10.841121 -16.645103,-12.323663 -20.560748,-7.1028037 C -24.868877,-1.3586309 -26.328325,7.7834292 -28.971963,14.392523 C -32.136405,22.303628 -39.250802,28.408145 -42.990654,35.88785 C -45.802914,41.512371 -50.474742,48.044836 -54.205607,51.775701 C -57.10478,54.674874 -58.694961,61.3219 -59.813084,65.794393 C -61.836545,73.888238 -64.3475,72.682653 -60.747664,81.682243 z"
       id="path8008" />
    <path
       style="fill:url(#linearGradient8561);fill-rule:evenodd;stroke:#000000;stroke-width:5;stroke-linecap:butt;stroke-linejoin:miter;stroke-opacity:1;filter:url(#filter8551);stroke-miterlimit:4;stroke-dasharray:none;fill-opacity:1"
       d="M 1000,660.18692 C 987.64764,651.37291 974.4266,630.76194 963.5514,616.26168 C 946.01646,592.88176 929.34301,567.2237 912.14953,544.29907 C 903.97902,533.40505 900.20395,520.40791 894.39252,508.78505 C 890.92948,501.85897 889.25878,495.24438 885.04673,488.2243 C 881.44057,482.21404 877.46284,475.33935 874.76636,468.59813 C 871.23442,459.76829 865.74298,451.48596 861.68224,443.36449 C 857.60522,435.21043 852.53198,428.18834 846.72897,420.93458 C 841.63442,414.56639 836.72555,408.45623 829.90654,405.04673 C 822.18842,401.18767 814.35605,400.38933 806.54206,395.70093 C 800.36709,391.99596 794.50053,385.52856 788.78505,379.81308 C 782.77616,373.8042 778.81079,373.89138 771.96262,370.46729 C 764.06226,366.51711 753.15703,369.06166 748.59813,375.14019 C 744.06631,381.18261 745.00914,392.55991 746.72897,399.43925 C 747.94787,404.31483 755.63235,411.63852 757.94393,416.26168 C 762.11036,424.59456 750.87452,431.14318 745.79439,434.95327 C 739.06334,440.00156 732.91215,444.34143 728.03738,450.84112 C 722.88266,457.71409 719.11449,461.63317 713.08411,467.66355 C 705.74951,474.99815 692.55968,479.79856 683.17757,483.5514 C 674.30251,487.10142 658.81925,489.15888 649.53271,489.15888 C 641.50814,489.15888 628.93938,492.31758 624.29907,498.50467 C 615.84136,509.78162 625.12,518.29085 632.71028,528.41121 C 642.14118,540.98575 658.65937,547.5991 665.42056,561.1215 C 668.8795,568.03937 660.58844,576.91012 657.00935,581.68224 C 650.81193,589.94547 645.63042,597.04545 642.05607,605.98131 C 641.57904,607.1739 641.43302,608.47352 641.1215,609.71963 C 639.15199,617.59765 632.83509,624.54809 627.1028,630.28037 C 619.70009,637.68309 613.80793,649.18273 606.54206,656.4486 C 602.80394,660.18671 600.63824,663.07424 597.19626,667.66355 C 594.40478,671.38553 586.17011,674.11121 582.24299,676.07477 C 586.85549,681.84038 589.61756,683.94214 595.3271,688.2243 C 599.97119,691.70736 604.33354,692.87632 609.34579,696.63551 C 613.35539,699.64271 623.65289,705.26576 625.23364,711.58879 C 626.45191,716.46184 630.62487,721.11416 637.38318,722.80374 C 654.40374,727.05888 678.6904,726.02833 695.3271,721.86916 C 742.68648,710.02931 791.82737,711.09167 840.18692,705.04673 C 875.3948,700.64574 976.94757,690.92349 1000,660.18692 z"
       id="path8545" />
    <path
       style="fill:url(#linearGradient8535);fill-rule:evenodd;stroke:#000000;stroke-width:1px;stroke-linecap:butt;stroke-linejoin:miter;stroke-opacity:1;filter:url(#filter8525);fill-opacity:1"
       d="M -26.168224,623.73832 C -26.382698,624.59621 -7.6487449,625.56445 3.7383178,628.41121 C 62.254648,643.0403 124.14573,645.71554 183.17757,656.4486 C 243.27336,667.37511 309.13831,663.92523 370.09346,663.92523 C 412.46106,663.92523 454.82866,663.92523 497.19626,663.92523 C 570.40498,663.92523 643.61371,663.92523 716.82243,663.92523 C 796.54784,663.92523 877.30478,668.56706 956.07477,656.4486 C 1009.3333,648.25498 1063.0893,639.88011 1115.8879,630.28037 C 1163.201,621.67799 1208.9382,612.52336 1257.0093,612.52336 C 1286.6044,612.52336 1316.1994,612.52336 1345.7944,612.52336 C 1355.4792,612.52336 1342.5328,634.12371 1341.1215,635.88785 C 1333.8085,645.02915 1327.0563,653.83096 1324.2991,664.85981 C 1322.1069,673.62849 1319.1047,682.05126 1315.8879,690.09346 C 1313.1026,697.05656 1306.532,704.43705 1301.8692,710.65421 C 1296.6065,717.67108 1290.6675,723.09757 1285.9813,729.34579 C 1282.1013,734.51907 1282.5604,738.37859 1273.8318,740.56075 C 1228.3402,751.93363 1181.4165,757.38318 1134.5794,757.38318 C 1122.7414,757.38318 1110.9034,757.38318 1099.0654,757.38318 C 1035.0824,757.38318 972.65356,769.53271 908.41121,769.53271 C 859.51513,769.53271 813.10243,779.81308 764.48598,779.81308 C 729.93933,779.81308 697.51189,780.06313 663.5514,773.27103 C 616.95772,763.95229 563.36726,749.90654 515.88785,749.90654 C 455.76324,749.90654 395.63863,749.90654 335.51402,749.90654 C 297.81931,749.90654 260.12461,749.90654 222.42991,749.90654 C 197.60679,749.90654 172.56071,753.64486 148.59813,753.64486 C 121.60854,753.64486 94.374516,754.57944 67.28972,754.57944 C 52.088919,754.57944 41.986609,752.67555 28.971963,746.16822 C 21.254258,742.30937 -6.3341975,757.43553 -9.3457945,749.90654 C -12.111205,742.99301 -18.031881,740.69818 -23.364486,743.36448 C -30.121615,746.74305 -31.886877,757.90605 -38.317757,761.12149 C -49.53123,766.72823 -34.948245,682.07618 -36.448598,676.07477 C -40.457332,660.03983 -41.555219,632.94985 -37.383178,616.26168 C -35.774762,609.82802 -40.144767,604.13322 -32.71028,607.85047 C -29.006066,609.70257 -28.035735,620.0033 -26.168224,623.73832 z"
       id="path8010"
       sodipodi:nodetypes="cssssssssssssssssssssssssssssssssc" />
    <flowRoot
       xml:space="preserve"
       id="flowRoot3355"
       style="font-size:40px;font-style:normal;font-weight:normal;fill:#000000;fill-opacity:1;stroke:none;stroke-width:1px;stroke-linecap:butt;stroke-linejoin:miter;stroke-opacity:1;font-family:Bitstream Vera Sans"
       transform="translate(5.978041,-107.07001)"><flowRegion
         id="flowRegion3357"><rect
           id="rect3359"
           width="1233"
           height="161"
           x="39"
           y="220" /></flowRegion><flowPara
         style="text-align:center;text-anchor:middle;fill:#ffffff;fill-opacity:1"
         id="flowPara3363">Where is home anyway?</flowPara></flowRoot>  </g>
</svg>
