<?xml version="1.0" encoding="UTF-8" standalone="no"?>
<!-- Created with Inkscape (http://www.inkscape.org/) -->
<svg
   xmlns:dc="http://purl.org/dc/elements/1.1/"
   xmlns:cc="http://creativecommons.org/ns#"
   xmlns:rdf="http://www.w3.org/1999/02/22-rdf-syntax-ns#"
   xmlns:svg="http://www.w3.org/2000/svg"
   xmlns="http://www.w3.org/2000/svg"
   xmlns:xlink="http://www.w3.org/1999/xlink"
   xmlns:sodipodi="http://sodipodi.sourceforge.net/DTD/sodipodi-0.dtd"
   xmlns:inkscape="http://www.inkscape.org/namespaces/inkscape"
   width="1280"
   height="720"
   id="svg2"
   sodipodi:version="0.32"
   inkscape:version="0.46"
   version="1.0"
   sodipodi:docname="level5.svg"
   inkscape:output_extension="org.inkscape.output.svg.inkscape"
   inkscape:export-filename="/home/svenstaro/LudumDare/ludumdare15/img/level5.png"
   inkscape:export-xdpi="90"
   inkscape:export-ydpi="90">
  <defs
     id="defs4">
    <linearGradient
       id="linearGradient3159">
      <stop
         style="stop-color:#000200;stop-opacity:1;"
         offset="0"
         id="stop3161" />
      <stop
         style="stop-color:#31502f;stop-opacity:1;"
         offset="1"
         id="stop3163" />
    </linearGradient>
    <inkscape:perspective
       sodipodi:type="inkscape:persp3d"
       inkscape:vp_x="0 : 526.18109 : 1"
       inkscape:vp_y="0 : 1000 : 0"
       inkscape:vp_z="744.09448 : 526.18109 : 1"
       inkscape:persp3d-origin="372.04724 : 350.78739 : 1"
       id="perspective10" />
    <linearGradient
       inkscape:collect="always"
       xlink:href="#linearGradient3159"
       id="linearGradient3165"
       x1="596.23383"
       y1="895.77631"
       x2="598.18201"
       y2="338.76697"
       gradientUnits="userSpaceOnUse" />
    <filter
       inkscape:collect="always"
       id="filter3171">
      <feGaussianBlur
         inkscape:collect="always"
         stdDeviation="2.0971225"
         id="feGaussianBlur3173" />
    </filter>
    <filter
       inkscape:collect="always"
       id="filter3175">
      <feGaussianBlur
         inkscape:collect="always"
         stdDeviation="2.284845"
         id="feGaussianBlur3177" />
    </filter>
    <linearGradient
       inkscape:collect="always"
       xlink:href="#linearGradient3159"
       id="linearGradient3185"
       x1="556.31122"
       y1="-175.61372"
       x2="638.43878"
       y2="606.62927"
       gradientUnits="userSpaceOnUse" />
  </defs>
  <sodipodi:namedview
     id="base"
     pagecolor="#ffffff"
     bordercolor="#666666"
     borderopacity="1.0"
     gridtolerance="10000"
     guidetolerance="10"
     objecttolerance="10"
     inkscape:pageopacity="0.0"
     inkscape:pageshadow="2"
     inkscape:zoom="1.07"
     inkscape:cx="642.52183"
     inkscape:cy="355.27046"
     inkscape:document-units="px"
     inkscape:current-layer="layer1"
     showgrid="false"
     inkscape:window-width="1680"
     inkscape:window-height="982"
     inkscape:window-x="-4"
     inkscape:window-y="-3" />
  <metadata
     id="metadata7">
    <rdf:RDF>
      <cc:Work
         rdf:about="">
        <dc:format>image/svg+xml</dc:format>
        <dc:type
           rdf:resource="http://purl.org/dc/dcmitype/StillImage" />
      </cc:Work>
    </rdf:RDF>
  </metadata>
  <g
     inkscape:label="Layer 1"
     inkscape:groupmode="layer"
     id="layer1">
    <path
       style="fill:url(#linearGradient3185);fill-rule:evenodd;stroke:#000000;stroke-width:5;stroke-linecap:butt;stroke-linejoin:miter;stroke-opacity:1;filter:url(#filter3175);stroke-miterlimit:4;stroke-dasharray:none;fill-opacity:1"
       d="M -49.53271,61.121495 C -43.769688,66.086608 -29.544095,74.568054 -21.495327,82.616822 C -3.8885743,100.22358 21.569385,109.79368 39.252336,127.47664 C 54.626758,142.85106 79.549077,160.25281 98.130841,171.40187 C 119.63967,184.30717 137.92597,202.29333 158.8785,216.26168 C 186.32673,234.5605 209.88023,258.07767 238.31776,275.14019 C 273.59106,296.30417 304.86721,321.96632 342.05607,340.56075 C 376.13526,357.60034 414.79556,367.37077 450.46729,380.74766 C 483.27656,393.05114 547.71066,394.52004 585.04673,401.30841 C 617.12637,407.14107 655.97787,401.30841 688.78505,401.30841 C 704.85695,401.30841 722.37102,396.65907 736.4486,391.02804 C 748.23672,386.31279 757.72372,380.50596 768.2243,374.20561 C 779.53741,367.41774 794.20782,362.42917 806.54206,358.31776 C 823.53988,352.65182 840.3675,346.28291 857.00935,339.62617 C 876.33815,331.89464 894.70403,310.13501 912.14953,298.50467 C 929.2943,287.07483 949.68719,272.18197 964.48598,257.38318 C 973.38021,248.48895 986.21938,243.12641 995.3271,234.01869 C 1004.1072,225.23856 1014.7996,218.28455 1023.3645,209.71963 C 1032.2145,200.8696 1043.5322,195.15939 1052.3364,186.35514 C 1060.3514,178.34021 1074.2391,169.84909 1084.1121,163.92523 C 1101.4801,153.50444 1121.9082,128.54165 1141.1215,123.73832 C 1148.4662,121.90213 1158.6021,111.00697 1165.4206,106.91589 C 1173.3263,102.17247 1184.6578,98.286406 1193.4579,94.766355 C 1211.8619,87.404773 1232.5095,78.812049 1249.5327,68.598131 C 1262.639,60.734356 1275.0685,48.669833 1285.9813,37.757009 C 1289.6371,34.101253 1292.0908,25.538124 1294.3925,20.934579 C 1296.3997,16.920195 1295.1707,9.4107217 1296.2617,5.046729 C 1297.5756,-0.20902707 1295.5242,-6.3143242 1294.3925,-10.841121 C 1292.8994,-16.813507 1287.0938,-18.228796 1281.3084,-21.121495 C 1262.1524,-30.699491 1228.2292,-32.336449 1207.4766,-32.336449 C 1153.8111,-32.336449 1100.1021,-56.635514 1045.7944,-56.635514 C 981.16003,-56.635514 916.35737,-62.242991 851.40187,-62.242991 C 786.60436,-62.242991 721.80685,-62.242991 657.00935,-62.242991 C 584.7352,-62.242991 512.46106,-62.242991 440.18692,-62.242991 C 383.05104,-62.242991 325.82143,-65.981308 269.15888,-65.981308 C 224.33225,-65.981308 174.56816,-71.305593 130.84112,-60.373832 C 98.368232,-52.25561 59.569999,-44.485981 26.168224,-44.485981 C 23.656618,-44.485981 21.183801,-43.862928 18.691589,-43.551402 C 11.120844,-42.605059 2.3776617,-37.730887 -4.6728972,-34.205607 C -13.65697,-29.713571 -20.301552,-25.05421 -28.037383,-19.252336 C -34.679127,-14.271029 -36.541834,-2.2434358 -40.186916,5.046729 C -44.356287,13.385472 -44.834404,22.778329 -51.401869,29.345794 C -54.057685,32.00161 -55.301458,38.563367 -56.074766,42.429907 C -57.042327,47.267709 -56.910629,51.380835 -57.943925,55.514019 C -58.761191,58.783083 -51.91543,58.738776 -49.53271,61.121495 z"
       id="path2383" />
    <path
       style="fill:url(#linearGradient3165);fill-rule:evenodd;stroke:#000000;stroke-width:5;stroke-linecap:butt;stroke-linejoin:miter;stroke-opacity:1;fill-opacity:1;stroke-miterlimit:4;stroke-dasharray:none;filter:url(#filter3171)"
       d="M -48.598131,511.58879 C -3.802547,531.59937 50.93847,553.57977 99.065421,574.20561 C 173.27853,606.01122 256.14658,657.73608 336.4486,672.33645 C 370.17508,678.46854 418.48512,690.09346 452.33645,690.09346 C 469.68055,690.09346 485.25653,696.21972 501.86916,692.8972 C 508.05818,691.65939 515.15478,692.61317 521.49533,691.02804 C 522.74143,690.71651 523.98754,690.40498 525.23364,690.09346 C 532.61353,688.24849 540.54034,688.2243 548.59813,688.2243 C 557.68408,688.2243 565.78818,686.28162 574.76636,684.48598 C 582.45038,682.94918 589.79769,682.59731 597.19626,680.74766 C 602.97158,679.30383 609.06748,677.94393 614.95327,677.94393 C 623.57042,677.94393 633.89357,674.90353 642.05607,673.27103 C 651.95945,671.29035 661.0026,670.26904 671.02804,668.59813 C 679.37685,667.20666 687.8435,665.60887 696.26168,663.92523 C 705.41801,662.09397 714.25578,661.07408 723.36449,659.25234 C 734.20979,657.08328 745.72344,654.32255 757.00935,652.71028 C 793.22627,647.53643 829.53979,643.064 865.42056,635.88785 C 907.94395,627.38317 946.01987,620.93821 985.98131,603.17757 C 990.29843,601.25885 1067.3069,577.16225 1073.8318,576.07477 C 1100.4854,571.6325 1123.407,552.71028 1151.4019,552.71028 C 1169.2996,552.71028 1187.2349,548.03738 1205.6075,548.03738 C 1214.2319,548.03738 1221.2489,548.91036 1228.972,550.84112 C 1234.1962,552.14717 1240.6007,551.67155 1245.7944,552.71028 C 1251.8754,553.92649 1258.2768,553.96171 1264.486,555.51402 C 1272.607,557.54428 1276.0479,559.51257 1283.1776,564.85981 C 1305.2934,581.44666 1310.6903,606.48153 1317.757,631.21495 C 1324.6574,655.36635 1325.2093,692.95799 1315.8879,716.26168 C 1313.2877,722.76211 1310.0932,731.40214 1305.6075,735.88785 C 1293.5121,747.98324 1286.3417,752.19794 1267.2897,754.57944 C 1186.5066,764.67734 1105.0405,750.66536 1024.2991,767.66355 C 941.65527,785.06225 855.97722,756.65502 772.8972,773.27103 C 727.36434,782.3776 673.81415,770.46729 627.1028,770.46729 C 588.05347,770.46729 549.85649,763.92523 510.28037,763.92523 C 457.93457,763.92523 402.90124,762.22809 351.40187,753.64486 C 320.53577,748.50051 290.24262,747.1028 258.8785,747.1028 C 232.08723,747.1028 205.29595,747.1028 178.50467,747.1028 C 159.50156,747.1028 140.49844,747.1028 121.49533,747.1028 C 109.34579,747.1028 97.196262,747.1028 85.046729,747.1028 C 72.58567,747.1028 60.124611,747.1028 47.663551,747.1028 C 38.450777,747.1028 29.424605,744.20268 20.560748,742.42991 C 14.108508,741.13946 7.3175859,741.83735 0.93457944,740.56075 C -17.812109,736.81141 -35.510162,718.13566 -46.728972,704.11215 C -80.533294,661.85675 -81.33425,613.60006 -71.962617,562.05607 C -62.465077,581.75561 -62.299122,493.01752 -48.598131,511.58879 z"
       id="path2387"
       sodipodi:nodetypes="cssssssssssssssssssssssssssssssssssssssssscc" />
    <flowRoot
       xml:space="preserve"
       id="flowRoot3355"
       style="font-size:40px;font-style:normal;font-weight:normal;fill:#000000;fill-opacity:1;stroke:none;stroke-width:1px;stroke-linecap:butt;stroke-linejoin:miter;stroke-opacity:1;font-family:Bitstream Vera Sans"
       transform="translate(-73.311682,-130.09804)"><flowRegion
         id="flowRegion3357"><rect
           id="rect3359"
           width="1233"
           height="161"
           x="39"
           y="220" /></flowRegion><flowPara
         style="text-align:center;text-anchor:middle;fill:#ffffff;fill-opacity:1"
         id="flowPara3363">The little narwhal could feel he was getting closer.</flowPara><flowPara
         style="text-align:center;text-anchor:middle;fill:#ffffff;fill-opacity:1"
         id="flowPara4472">Closer to what, though?</flowPara></flowRoot>  </g>
</svg>
