<?xml version="1.0" encoding="UTF-8" standalone="no"?>
<!-- Created with Inkscape (http://www.inkscape.org/) -->
<svg
   xmlns:dc="http://purl.org/dc/elements/1.1/"
   xmlns:cc="http://creativecommons.org/ns#"
   xmlns:rdf="http://www.w3.org/1999/02/22-rdf-syntax-ns#"
   xmlns:svg="http://www.w3.org/2000/svg"
   xmlns="http://www.w3.org/2000/svg"
   xmlns:xlink="http://www.w3.org/1999/xlink"
   xmlns:sodipodi="http://sodipodi.sourceforge.net/DTD/sodipodi-0.dtd"
   xmlns:inkscape="http://www.inkscape.org/namespaces/inkscape"
   width="1280"
   height="720"
   id="svg7241"
   sodipodi:version="0.32"
   inkscape:version="0.46"
   version="1.0"
   sodipodi:docname="level3.svg"
   inkscape:output_extension="org.inkscape.output.svg.inkscape"
   inkscape:export-filename="/home/svenstaro/LudumDare/ludumdare15/img/level3.png"
   inkscape:export-xdpi="90"
   inkscape:export-ydpi="90">
  <defs
     id="defs7243">
    <linearGradient
       id="linearGradient3731">
      <stop
         style="stop-color:#4a4a4a;stop-opacity:1;"
         offset="0"
         id="stop3733" />
      <stop
         style="stop-color:#8e8e8e;stop-opacity:1;"
         offset="1"
         id="stop3735" />
    </linearGradient>
    <linearGradient
       id="linearGradient3713">
      <stop
         style="stop-color:#67553a;stop-opacity:1;"
         offset="0"
         id="stop3715" />
      <stop
         style="stop-color:#936d4a;stop-opacity:1;"
         offset="1"
         id="stop3717" />
    </linearGradient>
    <linearGradient
       id="linearGradient7804">
      <stop
         id="stop7806"
         offset="0"
         style="stop-color:#160606;stop-opacity:1;" />
      <stop
         id="stop7808"
         offset="1"
         style="stop-color:#501616;stop-opacity:1;" />
    </linearGradient>
    <linearGradient
       id="linearGradient7766">
      <stop
         style="stop-color:#160606;stop-opacity:1;"
         offset="0"
         id="stop7768" />
      <stop
         style="stop-color:#501616;stop-opacity:1;"
         offset="1"
         id="stop7770" />
    </linearGradient>
    <inkscape:perspective
       sodipodi:type="inkscape:persp3d"
       inkscape:vp_x="0 : 526.18109 : 1"
       inkscape:vp_y="0 : 1000 : 0"
       inkscape:vp_z="744.09448 : 526.18109 : 1"
       inkscape:persp3d-origin="372.04724 : 350.78739 : 1"
       id="perspective7249" />
    <linearGradient
       inkscape:collect="always"
       xlink:href="#linearGradient7766"
       id="linearGradient7772"
       x1="777.625"
       y1="773.625"
       x2="773.44769"
       y2="445.00003"
       gradientUnits="userSpaceOnUse" />
    <filter
       inkscape:collect="always"
       id="filter7778">
      <feGaussianBlur
         inkscape:collect="always"
         stdDeviation="2.1049868"
         id="feGaussianBlur7780" />
    </filter>
    <filter
       inkscape:collect="always"
       id="filter7782">
      <feGaussianBlur
         inkscape:collect="always"
         stdDeviation="2.1394398"
         id="feGaussianBlur7784" />
    </filter>
    <linearGradient
       inkscape:collect="always"
       xlink:href="#linearGradient7766"
       id="linearGradient7792"
       x1="673.54169"
       y1="-18.376623"
       x2="663.03857"
       y2="355.58173"
       gradientUnits="userSpaceOnUse" />
    <linearGradient
       inkscape:collect="always"
       xlink:href="#linearGradient7804"
       id="linearGradient7802"
       x1="851.58331"
       y1="696.78979"
       x2="1008.8333"
       y2="279.08148"
       gradientUnits="userSpaceOnUse" />
    <filter
       inkscape:collect="always"
       id="filter7810">
      <feGaussianBlur
         inkscape:collect="always"
         stdDeviation="1.9613635"
         id="feGaussianBlur7812" />
    </filter>
    <filter
       inkscape:collect="always"
       id="filter7820">
      <feGaussianBlur
         inkscape:collect="always"
         stdDeviation="1.488763"
         id="feGaussianBlur7822" />
    </filter>
    <radialGradient
       inkscape:collect="always"
       xlink:href="#linearGradient7766"
       id="radialGradient7832"
       cx="508.21613"
       cy="360.625"
       fx="508.21613"
       fy="360.625"
       r="219.21094"
       gradientTransform="matrix(1,0,0,0.3582927,0,231.41571)"
       gradientUnits="userSpaceOnUse" />
    <linearGradient
       inkscape:collect="always"
       xlink:href="#linearGradient7766"
       id="linearGradient7842"
       x1="934.81427"
       y1="221.07573"
       x2="1064.226"
       y2="364.20782"
       gradientUnits="userSpaceOnUse" />
    <filter
       inkscape:collect="always"
       id="filter7844">
      <feGaussianBlur
         inkscape:collect="always"
         stdDeviation="1.3013771"
         id="feGaussianBlur7846" />
    </filter>
    <filter
       inkscape:collect="always"
       id="filter3709">
      <feGaussianBlur
         inkscape:collect="always"
         stdDeviation="0.76458332"
         id="feGaussianBlur3711" />
    </filter>
    <linearGradient
       inkscape:collect="always"
       xlink:href="#linearGradient3713"
       id="linearGradient3719"
       x1="83.958336"
       y1="558.54169"
       x2="295.34027"
       y2="416.875"
       gradientUnits="userSpaceOnUse"
       gradientTransform="translate(121.875,-243.75)" />
    <filter
       inkscape:collect="always"
       id="filter3727">
      <feGaussianBlur
         inkscape:collect="always"
         stdDeviation="0.54448242"
         id="feGaussianBlur3729" />
    </filter>
    <linearGradient
       inkscape:collect="always"
       xlink:href="#linearGradient3731"
       id="linearGradient3737"
       x1="82.8125"
       y1="510.3418"
       x2="217.85156"
       y2="510.3418"
       gradientUnits="userSpaceOnUse"
       gradientTransform="translate(34.375,-5.2083333)" />
  </defs>
  <sodipodi:namedview
     id="base"
     pagecolor="#ffffff"
     bordercolor="#666666"
     borderopacity="1.0"
     gridtolerance="10000"
     guidetolerance="10"
     objecttolerance="10"
     inkscape:pageopacity="0.0"
     inkscape:pageshadow="2"
     inkscape:zoom="0.96"
     inkscape:cx="422.96518"
     inkscape:cy="360"
     inkscape:document-units="px"
     inkscape:current-layer="layer1"
     showgrid="false"
     inkscape:window-width="1680"
     inkscape:window-height="982"
     inkscape:window-x="-4"
     inkscape:window-y="-3" />
  <metadata
     id="metadata7246">
    <rdf:RDF>
      <cc:Work
         rdf:about="">
        <dc:format>image/svg+xml</dc:format>
        <dc:type
           rdf:resource="http://purl.org/dc/dcmitype/StillImage" />
      </cc:Work>
    </rdf:RDF>
  </metadata>
  <g
     inkscape:label="Layer 1"
     inkscape:groupmode="layer"
     id="layer1">
    <path
       style="fill:url(#linearGradient7802);fill-rule:evenodd;stroke:#000000;stroke-width:5;stroke-linecap:butt;stroke-linejoin:miter;stroke-opacity:1;fill-opacity:1;stroke-miterlimit:4;stroke-dasharray:none;filter:url(#filter7810)"
       d="M 630.20833,641.875 C 638.2186,640.43996 654.57183,635.5092 663.54167,628.33333 C 677.80391,616.92354 693.89649,605.32878 709.375,596.04167 C 711.11111,595 712.84722,593.95833 714.58333,592.91667 C 723.59922,587.50713 732.08433,575.41567 739.58333,567.91667 C 748.82404,558.67596 761.98141,550.20683 772.91667,542.91667 C 788.37695,532.60981 802.10348,518.94826 818.75,510.625 C 826.07482,506.96259 835.70202,498.88131 841.66667,492.91667 C 846.99998,487.58336 870.33025,481.32369 878.125,479.375 C 888.88472,476.68507 897.51809,470.76087 908.33333,468.95833 C 914.99572,467.84794 922.67524,466.41452 929.16667,464.79167 C 935.82448,463.12721 944.01553,465.37888 950,466.875 C 958.67613,469.04403 964.52759,469.97213 972.91667,474.16667 C 981.23256,478.32461 991.38539,482.86041 1000,484.58333 C 1011.3912,486.86158 1024.2291,497.24581 1034.375,503.33333 C 1045.4587,509.98356 1054.5379,516.63257 1064.5833,524.16667 C 1074.6421,531.71071 1085.5332,539.35823 1095.8333,547.08333 C 1108.2355,556.38497 1120.5636,564.61186 1133.3333,573.125 C 1142.2021,579.0375 1152.6968,583.78706 1162.5,587.70833 C 1157.7171,587.70833 1155.0049,588.95345 1152.0833,591.875 C 1149.4843,594.47399 1144.6269,598.20739 1140.625,600.20833 C 1134.3391,603.35128 1132.2061,608.86625 1127.0833,612.70833 C 1119.4873,618.40535 1111.4456,622.08968 1103.125,626.25 C 1096.8033,629.41085 1087.407,631.55129 1082.2917,636.66667 C 1075.3718,643.58658 1069.9213,651.31562 1062.5,657.5 C 1044.1607,672.78274 1021.5326,692.15182 996.875,697.08333 C 980.71401,700.31553 970.24032,706.45833 953.125,706.45833 C 927.68325,706.45833 898.942,701.24592 873.95833,695 C 843.67541,687.42927 811.95982,685.53497 781.25,680.41667 C 760.00482,676.8758 738.87376,673.19142 717.70833,668.95833 C 707.28326,666.87332 694.96094,662.70833 684.375,662.70833 C 683.68056,662.70833 682.96538,662.87676 682.29167,662.70833 C 675.54058,661.02056 669.28722,660.23847 662.5,658.54167 C 650.25065,655.47933 641.27661,647.45777 630.20833,641.875 z"
       id="path7794" />
    <path
       style="fill:url(#linearGradient7772);fill-rule:evenodd;stroke:#000000;stroke-width:5;stroke-linecap:butt;stroke-linejoin:miter;stroke-opacity:1;fill-opacity:1;stroke-miterlimit:4;stroke-dasharray:none;filter:url(#filter7778)"
       d="M -58.333334,704.375 C -52.260216,701.52679 -51.485572,652.51362 -42.708334,648.125 C -26.668389,640.10503 -9.5091962,622.70482 5.2083333,611.66667 C 27.021169,595.30704 52.374431,581.24001 72.916666,565.83334 C 87.048563,555.23441 119.43948,549.7462 135.41666,547.08334 C 164.99629,542.1534 217.68934,542.923 242.70833,534.58334 C 265.5676,526.96358 304.59538,534.58334 329.16666,534.58334 C 354.19015,534.58334 377.24068,539.04976 401.04166,545 C 428.91845,551.9692 453.01555,565.78956 479.16666,576.25 C 506.78187,587.29609 535.1927,595.53542 562.5,606.45834 C 585.38377,615.61185 611.56844,623.31697 635.41666,627.29167 C 658.76028,631.18227 693.70648,630.39491 714.58333,640.83334 C 736.48602,651.78468 777.85413,645.72499 802.08333,655.41667 C 830.07918,666.61501 869.23271,664.05488 898.95833,670 C 915.25762,673.25986 935.19575,669.51599 951.04166,666.875 C 966.46488,664.30447 982.30896,655.06368 996.87503,650.20834 C 1013.6561,644.61464 1028.5001,632.7395 1042.7083,622.08334 C 1060.1499,609.00217 1079.6659,598.66742 1094.7916,583.54167 C 1112.1155,566.21776 1135.8656,554.96773 1154.1666,536.66667 C 1164.533,526.3003 1179.0769,533.80384 1191.6667,526.25 C 1200.1023,521.18865 1208.393,518.10114 1216.6667,514.79167 C 1221.9044,512.69658 1226.4019,512.70833 1232.2917,512.70833 C 1239.5389,512.70833 1244.2461,514.24615 1248.9583,518.95833 C 1257.0049,527.00493 1264.5742,522.07426 1272.9166,530.41667 C 1293.6162,551.11625 1327.7512,556.9692 1354.1666,566.875 C 1354.1666,568.61111 1353.7456,570.39906 1354.1667,572.08333 C 1355.5206,577.49915 1355.2083,583.74964 1355.2083,589.79167 C 1355.2083,597.25794 1354.39,606.15976 1353.125,613.75 C 1351.7955,621.72694 1346.875,629.81125 1346.875,637.70833 C 1346.875,648.55015 1343.8278,660.23594 1341.6667,671.04167 C 1339.0816,683.9672 1332.236,694.18087 1329.1667,706.45833 C 1326.0997,718.72603 1322.5867,728.07889 1314.5833,738.75 C 1308.2606,747.18034 1300.0193,745.8059 1289.5833,748.125 C 1286.4583,748.81944 1283.3333,749.51389 1280.2083,750.20833 C 1252.2185,756.4283 1219.4589,752.29167 1190.625,752.29167 C 1152.5776,752.29167 1115.3595,748.125 1077.0833,748.125 C 1034.375,748.125 991.66667,748.125 948.95833,748.125 C 912.15278,748.125 875.34722,748.125 838.54167,748.125 C 811.45833,748.125 784.375,748.125 757.29167,748.125 C 726.96502,748.125 675.16897,748.94544 647.91667,760.625 C 613.81143,775.24153 577.08605,772.08333 540.625,772.08333 C 522.45601,772.08333 488.16536,772.93685 471.875,764.79167 C 447.641,752.67467 403.8203,760.625 377.08333,760.625 C 341.93787,760.625 307.43819,766.11002 272.91667,771.04167 C 259.44589,772.96606 246.17076,773.125 232.29167,773.125 C 206.7442,773.125 181.62002,763.162 156.25,760.625 C 137.30282,758.73028 118.1504,751.25 98.958333,751.25 C 88.099557,751.25 77.266646,748.69166 66.666667,746.04167 C 63.888889,745.34722 61.111111,744.65278 58.333333,743.95833 C 46.787442,741.07186 30.496272,739.79167 18.75,739.79167 C 9.6726012,739.79167 -1.4151847,737.87537 -10.416667,735.625 C -17.809833,733.77671 -26.178407,732.91828 -32.291667,728.33333 C -40.478077,722.19353 -46.851361,715.85697 -54.166667,708.54167 C -55.555556,707.15278 -56.944445,705.76389 -58.333334,704.375 z"
       id="path7253"
       sodipodi:nodetypes="csssssssssssssssssssssssc" />
    <path
       style="fill:url(#linearGradient7842);fill-rule:evenodd;stroke:#000000;stroke-width:5;stroke-linecap:butt;stroke-linejoin:miter;stroke-opacity:1;fill-opacity:1;stroke-miterlimit:4;stroke-dasharray:none;filter:url(#filter7844)"
       d="M 762.5,186.66667 C 765.22378,187.64023 772.47419,192.47419 777.08333,197.08333 C 782.58364,202.58364 789.09777,206.50537 793.75,212.70833 C 795.08398,214.48698 796.52778,216.18056 797.91667,217.91667 C 804.61385,226.28815 806.27121,234.62575 810.41667,242.91667 C 813.66896,249.42126 818.309,253.43978 822.91667,259.58333 C 830.01772,269.05141 839.64782,275.27282 847.91667,283.54167 C 856.98993,292.61493 865.4938,301.1188 873.95833,309.58333 C 879.16889,314.79389 884.84241,321.97649 887.5,327.29167 C 891.69277,335.67721 895.54832,341.21166 903.125,345 C 907.58687,347.23093 914.19707,346.98677 918.75,348.125 C 924.70115,349.61279 929.77104,354.20008 935.41667,356.45833 C 941.5512,358.91215 947.20814,359.7499 953.125,362.70833 C 957.62272,364.95719 968.76271,362.70833 973.95833,362.70833 C 982.32944,362.70833 989.30351,355.09532 993.75,349.16667 C 997.84632,343.7049 996.97595,332.29809 1000,326.25 C 1003.6609,318.92826 996.51076,314.47848 1001.0417,305.41667 C 1005.9416,295.61685 1014.0303,287.83695 1016.6667,277.29167 C 1019.3834,266.42491 1019.9037,259.47126 1028.125,251.25 C 1034.1854,245.18959 1038.8671,239.01056 1043.75,232.5 C 1049.4357,224.91901 1047.9167,214.67494 1047.9167,205.41667 C 1047.9167,197.97249 1044.5229,191.84178 1042.7083,184.58333 C 1040.1654,174.41155 1041.7963,163.1018 1043.75,153.33333 C 1042.1522,146.94195 1031.3914,157.98549 1025,159.58333 C 946.76893,179.1411 863.41278,179.58783 784.375,193.95833 C 776.03824,195.47411 747.99359,201.98398 750,193.95833 C 751.88308,186.42603 763.56356,186.26784 770.83333,183.54167 C 772.17381,183.03899 768.05556,184.23611 766.66667,184.58333"
       id="path7834" />
    <path
       style="fill:url(#linearGradient7792);fill-rule:evenodd;stroke:#000000;stroke-width:5;stroke-linecap:butt;stroke-linejoin:miter;stroke-opacity:1;filter:url(#filter7782);stroke-miterlimit:4;stroke-dasharray:none;fill-opacity:1"
       d="M 1316.6667,-16.458333 C 1317.791,-9.1767758 1310.9168,-0.11130003 1305.2083,7.5 C 1298.733,16.133791 1292.3082,24.927307 1285.4167,33.541667 C 1277.9517,42.872818 1266.6188,58.565588 1256.25,63.75 C 1249.5161,67.116966 1242.3073,75.769521 1237.5,79.375 C 1233.0298,82.727678 1229.6355,84.869758 1226.0417,86.666667 C 1222.0253,88.674852 1216.605,94.020022 1214.5833,96.041667 C 1210.9857,99.639312 1207.7724,100.88946 1203.125,104.375 C 1196.9243,109.02551 1191.1196,113.8999 1184.375,118.95833 C 1169.2202,130.3244 1153.7336,140.89775 1138.5417,152.29167 C 1123.0625,163.90106 1109.478,175.01755 1089.5833,178.33333 C 1078.6374,180.15766 1066.1863,187.90049 1056.25,191.875 C 1046.4526,195.79395 1034.6521,198.125 1023.9583,198.125 C 1015.2164,198.125 1007.6376,203.33333 998.95833,203.33333 C 993.38563,203.33333 988.34764,205.20476 983.33333,206.45833 C 975.12138,208.51132 968.77254,211.03716 960.41667,212.70833 C 953.10118,214.17143 947.42481,217.91667 939.58333,217.91667 C 932.81873,217.91667 922.30783,220.67304 916.66667,222.08333 C 911.39565,223.40109 906.98062,222.94235 902.08333,224.16667 C 895.13359,225.9041 886.78385,225.20833 879.16667,225.20833 C 863.59352,225.20833 844.50902,226.76194 830.20833,221.04167 C 822.83986,218.09428 738.29444,208.72528 726.04167,207.5 C 665.94788,201.49062 576.53793,187.50234 518.75,174.16667 C 465.56476,161.89315 416.57254,143.22205 366.66667,121.04167 C 324.818,102.44226 278.41058,86.666667 232.29167,86.666667 C 183.36445,86.666667 139.36917,87.241041 91.666667,99.166667 C 63.076604,106.31418 -11.417272,120 -40.625,120 C -54.85796,120 -79.654453,133.26473 -92.708333,139.79167 C -96.905573,139.79167 -96.875,56.842065 -96.875,48.125 C -96.875,39.009587 -96.266531,35.016531 -91.666667,30.416667 C -85.568235,24.318235 -79.325971,14.65685 -73.958333,7.5 C -67.663443,-0.89318767 -59.347396,-3.3443747 -50,-7.0833333 C -26.817217,-16.356447 -2.3934995,-18.663583 21.875,-22.708333 C 49.044497,-27.236583 78.983547,-31.041667 106.25,-31.041667 C 129.65676,-31.041667 153.50997,-32.083333 177.08333,-32.083333 C 227.43056,-32.083333 277.77778,-32.083333 328.125,-32.083333 C 399.30556,-32.083333 470.48611,-32.083333 541.66667,-32.083333 C 612.15278,-32.083333 682.63889,-32.083333 753.125,-32.083333 C 810.65756,-32.083333 866.96014,-30.733574 923.95833,-38.333333 C 969.33411,-44.383437 1015.6607,-37.585501 1060.4167,-49.791667 C 1100.4807,-60.71821 1143.7252,-56.183383 1183.3333,-67.5 C 1204.501,-73.547904 1233.4898,-68.541667 1255.2083,-68.541667 C 1264.6246,-68.541667 1272.593,-69.667648 1278.125,-62.291667 C 1281.9445,-57.19905 1284.5648,-51.68521 1288.5417,-47.708333 C 1292.8734,-43.376643 1296.9412,-39.308795 1300,-36.25 C 1304.5273,-31.722746 1307.4078,-27.800544 1312.5,-22.708333 C 1314.3805,-20.827878 1315.2702,-19.25135 1316.6667,-16.458333 z"
       id="path7255" />
    <path
       style="fill:url(#radialGradient7832);fill-rule:evenodd;stroke:#000000;stroke-width:5;stroke-linecap:butt;stroke-linejoin:miter;stroke-opacity:1;stroke-miterlimit:4;stroke-dasharray:none;filter:url(#filter7820);fill-opacity:1"
       d="M 469.79167,286.66667 C 478.15927,287.24684 494.51818,290.96136 506.25,292.91667 C 526.053,296.21717 548.50173,294.36502 567.70833,299.16667 C 578.29603,301.81359 593.12508,299.16667 604.16667,299.16667 C 614.34997,299.16667 623.99349,302.04004 633.33333,304.375 C 640.08341,306.06252 647.34082,311.32116 653.125,314.79167 C 662.79534,320.59387 666.01756,327.78685 679.16667,330.41667 C 687.16321,332.01598 695.21377,330.21921 698.95833,337.70833 C 702.63219,345.05604 703.125,351.2288 703.125,359.58333 C 703.125,368.80696 711.8716,367.28826 716.66667,372.08333 C 723.64785,379.06452 727.54469,386.78563 722.91667,396.04167 C 721.0774,399.7202 713.66552,404.1273 710.41667,410.625 C 707.75059,415.95715 697.83005,421.60581 692.70833,424.16667 C 684.89568,428.07299 678.74734,431.30275 669.79167,433.54167 C 656.39526,436.89077 637.29938,431.04263 623.95833,429.375 C 609.70253,427.59302 589.83951,423.06096 577.08333,426.25 C 569.03051,428.26321 579.38088,436.66667 539.58333,436.66667 C 510.42128,436.66667 480.83394,429.70845 453.125,424.16667 C 449.53952,423.44957 412.60395,430.64579 395.83333,427.29167 C 369.19746,421.96449 345.98396,421.93589 323.95833,405.41667 C 314.69892,398.47211 308.58644,389.58721 302.08333,381.45833 C 294.69818,372.2269 299.10298,364.50237 304.16667,354.375 C 308.69923,345.30987 319.65919,347.61323 321.875,338.75 C 323.75332,331.2367 293.90255,313.31854 291.66667,304.375 C 287.98919,289.66509 348.28586,292.91667 354.16667,292.91667 C 370.04262,292.91667 384.21643,288.75 394.79167,288.75 C 402.45309,288.75 409.46098,296.04167 414.58333,296.04167 C 419.66695,296.04167 428.31257,287.92186 433.33333,286.66667 C 439.03685,285.24079 444.41947,284.58333 451.04167,284.58333 C 457.01584,284.58333 465.45115,284.93046 469.79167,286.66667 z"
       id="path7814" />
    <path
       style="fill:url(#linearGradient3719);fill-opacity:1;fill-rule:evenodd;stroke:#000000;stroke-width:5;stroke-linecap:butt;stroke-linejoin:miter;stroke-miterlimit:4;stroke-dasharray:none;stroke-opacity:1;filter:url(#filter3709)"
       d="M 236.36922,251.02347 C 238.19615,275.91129 231.36245,332.04399 252.21501,354.21386 L 404.4533,348.63066 C 412.64653,325.01955 394.53047,267.31537 388.96934,243.70426 C 320.91378,238.84739 304.42478,230.91581 236.36922,251.02347 z"
       id="path3707"
       sodipodi:nodetypes="ccccc"
       transform="matrix(0.8387267,-0.5445526,0.5445526,0.8387267,-99.705346,214.04898)" />
    <flowRoot
       xml:space="preserve"
       id="flowRoot3355"
       style="font-size:40px;font-style:normal;font-weight:normal;fill:#000000;fill-opacity:1;stroke:none;stroke-width:1px;stroke-linecap:butt;stroke-linejoin:miter;stroke-opacity:1;font-family:Bitstream Vera Sans"
       transform="translate(110.20118,-166.70785)"><flowRegion
         id="flowRegion3357"><rect
           id="rect3359"
           width="1233"
           height="161"
           x="39"
           y="220" /></flowRegion><flowPara
         style="text-align:center;text-anchor:middle;fill:#ffffff;fill-opacity:1"
         id="flowPara3363">Would he ever be able to get back home?</flowPara></flowRoot>    <text
       xml:space="preserve"
       style="font-size:40px;font-style:normal;font-variant:normal;font-weight:bold;font-stretch:normal;text-align:center;text-anchor:middle;opacity:0.5;fill:url(#linearGradient3737);fill-opacity:1;stroke:#000000;stroke-width:1px;stroke-linecap:butt;stroke-linejoin:miter;stroke-opacity:1;filter:url(#filter3727);font-family:Impact;-inkscape-font-specification:Impact Bold"
       x="184.375"
       y="496.04166"
       id="text3721"
       transform="matrix(0.7808218,-0.6247538,0.6247538,0.7808218,-131.90779,5.9120436)"><tspan
         sodipodi:role="line"
         id="tspan3723"
         x="184.375"
         y="496.04166"
         style="fill:url(#linearGradient3737);fill-opacity:1;stroke:#000000;stroke-opacity:1">Can it</tspan><tspan
         sodipodi:role="line"
         x="184.375"
         y="546.04163"
         id="tspan3725"
         style="fill:url(#linearGradient3737);fill-opacity:1;stroke:#000000;stroke-opacity:1">be true?</tspan></text>
  </g>
</svg>
