<?xml version="1.0" encoding="UTF-8" standalone="no"?>
<!-- Created with Inkscape (http://www.inkscape.org/) -->

<svg
   xmlns:dc="http://purl.org/dc/elements/1.1/"
   xmlns:cc="http://creativecommons.org/ns#"
   xmlns:rdf="http://www.w3.org/1999/02/22-rdf-syntax-ns#"
   xmlns:svg="http://www.w3.org/2000/svg"
   xmlns="http://www.w3.org/2000/svg"
   xmlns:xlink="http://www.w3.org/1999/xlink"
   xmlns:sodipodi="http://sodipodi.sourceforge.net/DTD/sodipodi-0.dtd"
   xmlns:inkscape="http://www.inkscape.org/namespaces/inkscape"
   width="200"
   height="200"
   id="svg2"
   version="1.1"
   inkscape:version="0.48.3.1 r9886"
   sodipodi:docname="New document 1">
  <sodipodi:namedview
     id="base"
     pagecolor="#000000"
     bordercolor="#666666"
     borderopacity="1.0"
     inkscape:pageopacity="0"
     inkscape:pageshadow="2"
     inkscape:zoom="2.8284271"
     inkscape:cx="93.46867"
     inkscape:cy="109.1454"
     inkscape:document-units="px"
     inkscape:current-layer="layer1"
     showgrid="true"
     inkscape:window-width="1366"
     inkscape:window-height="723"
     inkscape:window-x="-2"
     inkscape:window-y="-3"
     inkscape:window-maximized="1"
     inkscape:snap-page="false"
     inkscape:snap-nodes="false">
    <inkscape:grid
       type="xygrid"
       id="grid3169"
       empspacing="5"
       visible="true"
       enabled="true"
       snapvisiblegridlinesonly="true"
       spacingx="50px"
       spacingy="50px" />
  </sodipodi:namedview>
  <defs
     id="defs4">
    <linearGradient
       id="linearGradient4182">
      <stop
         style="stop-color:#000000;stop-opacity:1;"
         offset="0"
         id="stop4184" />
      <stop
         style="stop-color:#2a2a2a;stop-opacity:0.5714286;"
         offset="1"
         id="stop4186" />
    </linearGradient>
    <linearGradient
       id="linearGradient4095">
      <stop
         style="stop-color:#171010;stop-opacity:0.90977442;"
         offset="0"
         id="stop4097" />
      <stop
         style="stop-color:#3d3126;stop-opacity:0.85714287;"
         offset="1"
         id="stop4099" />
    </linearGradient>
    <linearGradient
       id="linearGradient4065">
      <stop
         style="stop-color:#513f26;stop-opacity:1;"
         offset="0"
         id="stop4067" />
      <stop
         style="stop-color:#151411;stop-opacity:1;"
         offset="1"
         id="stop4069" />
    </linearGradient>
    <linearGradient
       id="linearGradient3939">
      <stop
         style="stop-color:#6f6f6f;stop-opacity:1;"
         offset="0"
         id="stop3941" />
      <stop
         style="stop-color:#212121;stop-opacity:1;"
         offset="1"
         id="stop3943" />
    </linearGradient>
    <radialGradient
       inkscape:collect="always"
       xlink:href="#linearGradient4065"
       id="radialGradient4071"
       cx="100"
       cy="952.36218"
       fx="100"
       fy="952.36218"
       r="89.309902"
       gradientUnits="userSpaceOnUse" />
    <radialGradient
       inkscape:collect="always"
       xlink:href="#linearGradient3939"
       id="radialGradient4087"
       cx="100"
       cy="952.36218"
       fx="100"
       fy="952.36218"
       r="89.309898"
       gradientUnits="userSpaceOnUse" />
    <radialGradient
       inkscape:collect="always"
       xlink:href="#linearGradient3939"
       id="radialGradient4091"
       gradientUnits="userSpaceOnUse"
       spreadMethod="pad"
       cx="2.8421709e-14"
       cy="0"
       fx="2.8421709e-14"
       fy="0"
       r="83.213997" />
    <radialGradient
       inkscape:collect="always"
       xlink:href="#linearGradient4095"
       id="radialGradient4103"
       cx="103.5"
       cy="111.5"
       fx="103.5"
       fy="111.5"
       r="28.5"
       gradientUnits="userSpaceOnUse" />
    <radialGradient
       inkscape:collect="always"
       xlink:href="#linearGradient4095"
       id="radialGradient4113"
       cx="103.5"
       cy="111.5"
       fx="103.5"
       fy="111.5"
       r="28.5"
       gradientUnits="userSpaceOnUse" />
    <radialGradient
       inkscape:collect="always"
       xlink:href="#linearGradient4095"
       id="radialGradient4117"
       gradientUnits="userSpaceOnUse"
       cx="103.5"
       cy="111.5"
       fx="103.5"
       fy="111.5"
       r="28.5" />
    <radialGradient
       inkscape:collect="always"
       xlink:href="#linearGradient4095"
       id="radialGradient4119"
       gradientUnits="userSpaceOnUse"
       cx="103.5"
       cy="111.5"
       fx="103.5"
       fy="111.5"
       r="28.5" />
    <radialGradient
       inkscape:collect="always"
       xlink:href="#linearGradient4182"
       id="radialGradient4190"
       cx="101.82338"
       cy="100.6515"
       fx="101.82338"
       fy="100.6515"
       r="58.447224"
       gradientUnits="userSpaceOnUse" />
    <radialGradient
       inkscape:collect="always"
       xlink:href="#linearGradient4065"
       id="radialGradient4198"
       cx="101.82338"
       cy="100.6515"
       fx="101.82338"
       fy="100.6515"
       r="58.447224"
       gradientUnits="userSpaceOnUse" />
  </defs>
  <metadata
     id="metadata7">
    <rdf:RDF>
      <cc:Work
         rdf:about="">
        <dc:format>image/svg+xml</dc:format>
        <dc:type
           rdf:resource="http://purl.org/dc/dcmitype/StillImage" />
        <dc:title></dc:title>
      </cc:Work>
    </rdf:RDF>
  </metadata>
  <g
     id="layer1"
     inkscape:groupmode="layer"
     inkscape:label="Layer 1"
     transform="translate(0,-852.36218)">
    <g
       id="g3160"
       transform="matrix(1.0616087,0,0,1.0616087,100,952.36218)"
       inkscape:label="Gear24"
       style="fill-opacity:1;fill:url(#radialGradient4091);stroke:#000000;stroke-opacity:0.52791876000000004;stroke-width:2.82589997999999998;stroke-miterlimit:4;stroke-dasharray:none">
      <path
         id="path3162"
         d="m 69.849,-5.01 3.753,-0.269 2.629,0.283 6.483,2.21 0,5.572 -6.483,2.21 -2.629,0.283 -3.753,-0.269 -1.084,8.229 3.696,0.712 2.465,0.953 5.69,3.813 -1.442,5.382 -6.834,0.457 -2.612,-0.407 -3.556,-1.232 -3.176,7.669 3.385,1.643 2.135,1.559 4.509,5.156 -2.786,4.825 -6.719,-1.327 -2.418,-1.069 -3.116,-2.11 -5.053,6.585 2.844,2.464 1.659,2.058 3.021,6.148 -3.939,3.939 -6.148,-3.021 -2.058,-1.659 -2.464,-2.844 -6.585,5.053 2.11,3.116 1.069,2.418 1.327,6.719 -4.825,2.786 -5.156,-4.509 -1.559,-2.135 -1.643,-3.385 -7.669,3.176 1.232,3.556 0.407,2.612 -0.457,6.834 -5.382,1.442 -3.813,-5.69 -0.953,-2.465 -0.712,-3.696 -8.229,1.084 0.269,3.753 -0.283,2.629 -2.21,6.483 -5.572,0 -2.21,-6.483 -0.283,-2.629 0.269,-3.753 -8.229,-1.084 -0.712,3.696 -0.953,2.465 -3.813,5.69 -5.382,-1.442 -0.457,-6.834 0.407,-2.612 1.232,-3.556 -7.669,-3.176 -1.643,3.385 -1.559,2.135 -5.156,4.509 -4.825,-2.786 1.327,-6.719 1.069,-2.418 2.11,-3.116 -6.585,-5.053 -2.464,2.844 -2.058,1.659 -6.148,3.021 -3.939,-3.939 3.021,-6.148 1.659,-2.058 2.844,-2.464 -5.053,-6.585 -3.116,2.11 -2.418,1.069 -6.719,1.327 -2.786,-4.825 4.509,-5.156 2.135,-1.559 3.385,-1.643 -3.176,-7.669 -3.556,1.232 -2.612,0.407 -6.834,-0.457 -1.442,-5.382 5.69,-3.813 2.465,-0.953 3.696,-0.712 -1.084,-8.229 -3.753,0.269 -2.629,-0.283 -6.483,-2.21 0,-5.572 6.483,-2.21 2.629,-0.283 3.753,0.269 1.084,-8.229 -3.696,-0.712 -2.465,-0.953 -5.69,-3.813 1.442,-5.382 6.834,-0.457 2.612,0.407 3.556,1.232 3.176,-7.669 -3.385,-1.643 -2.135,-1.559 -4.509,-5.156 2.786,-4.825 6.719,1.327 2.418,1.069 3.116,2.11 5.053,-6.585 -2.844,-2.464 -1.659,-2.058 -3.021,-6.148 3.939,-3.939 6.148,3.021 2.058,1.659 2.464,2.844 6.585,-5.053 -2.11,-3.116 -1.069,-2.418 -1.327,-6.719 4.825,-2.786 5.156,4.509 1.559,2.135 1.643,3.385 7.669,-3.176 -1.232,-3.556 -0.407,-2.612 0.457,-6.834 5.382,-1.442 3.813,5.69 0.953,2.465 0.712,3.696 8.229,-1.084 -0.269,-3.753 0.283,-2.629 2.21,-6.483 5.572,0 2.21,6.483 0.283,2.629 -0.269,3.753 8.229,1.084 0.712,-3.696 0.953,-2.465 3.813,-5.69 5.382,1.442 0.457,6.834 -0.407,2.612 -1.232,3.556 7.669,3.176 1.643,-3.385 1.559,-2.135 5.156,-4.509 4.825,2.786 -1.327,6.719 -1.069,2.418 -2.11,3.116 6.585,5.053 2.464,-2.844 2.058,-1.659 6.148,-3.021 3.939,3.939 -3.021,6.148 -1.659,2.058 -2.844,2.464 5.053,6.585 3.116,-2.11 2.418,-1.069 6.719,-1.327 2.786,4.825 -4.509,5.156 -2.135,1.559 -3.385,1.643 3.176,7.669 3.556,-1.232 2.612,-0.407 6.834,0.457 1.442,5.382 -5.69,3.813 -2.465,0.953 -3.696,0.712 z"
         style="fill:url(#radialGradient4091);stroke:#000000;fill-opacity:1;stroke-opacity:0.52791876000000004;stroke-width:2.82589997999999998;stroke-miterlimit:4;stroke-dasharray:none"
         inkscape:connector-curvature="0" />
    </g>
    <path
       sodipodi:type="arc"
       style="fill:url(#radialGradient4190);stroke:url(#radialGradient4198);stroke-width:8;stroke-miterlimit:4;stroke-opacity:0.52791874000000005;stroke-dasharray:none;fill-opacity:1"
       id="path4180"
       sodipodi:cx="101.82338"
       sodipodi:cy="100.6515"
       sodipodi:rx="54.447224"
       sodipodi:ry="54.447224"
       d="m 156.2706,100.6515 a 54.447224,54.447224 0 1 1 -108.894444,0 54.447224,54.447224 0 1 1 108.894444,0 z"
       transform="translate(-1.8233795,851.71068)" />
    <path
       sodipodi:type="arc"
       style="fill:url(#radialGradient4103);stroke:url(#radialGradient4113);stroke-width:3;stroke-miterlimit:4;stroke-opacity:0.52791876000000004;stroke-dasharray:none;fill-opacity:1"
       id="path4093"
       sodipodi:cx="103.5"
       sodipodi:cy="111.5"
       sodipodi:rx="27"
       sodipodi:ry="27"
       d="m 130.5,111.5 a 27,27 0 1 1 -54,0 27,27 0 1 1 54,0 z"
       transform="translate(-3.5,840.86218)" />
    <path
       transform="matrix(0.24561403,0,0,0.24561403,128.57895,924.97622)"
       d="m 130.5,111.5 a 27,27 0 1 1 -54,0 27,27 0 1 1 54,0 z"
       sodipodi:ry="27"
       sodipodi:rx="27"
       sodipodi:cy="111.5"
       sodipodi:cx="103.5"
       id="path4115"
       style="fill:url(#radialGradient4117);fill-opacity:1;stroke:url(#radialGradient4119);stroke-width:3;stroke-miterlimit:4;stroke-opacity:0.52791874;stroke-dasharray:none"
       sodipodi:type="arc"
       inkscape:transform-center-x="-54.000002" />
    <use
       x="0"
       y="0"
       xlink:href="#path4115"
       inkscape:transform-center-x="-54.000002"
       id="use4121" />
    <use
       x="0"
       y="0"
       xlink:href="#use4121"
       inkscape:transform-center-x="-1.555e-05"
       id="use4123"
       transform="matrix(0,1,-1,0,1052.3622,852.36218)"
       width="200"
       height="200"
       inkscape:transform-center-y="53.999998" />
    <use
       x="0"
       y="0"
       xlink:href="#use4123"
       inkscape:transform-center-x="53.999982"
       inkscape:transform-center-y="1.155e-05"
       id="use4125"
       transform="matrix(0,1,-1,0,1052.3622,852.36218)"
       width="200"
       height="200" />
    <use
       x="0"
       y="0"
       xlink:href="#use4125"
       inkscape:transform-center-y="-53.999986"
       id="use4127"
       transform="matrix(0,1,-1,0,1052.3622,852.36218)"
       width="200"
       height="200" />
    <use
       x="0"
       y="0"
       xlink:href="#use4121"
       inkscape:transform-center-x="-38.183767"
       id="use4129"
       transform="matrix(0.70710678,0.70710678,-0.70710678,0.70710678,702.71108,208.22974)"
       width="200"
       height="200"
       inkscape:transform-center-y="38.183762" />
    <use
       x="0"
       y="0"
       xlink:href="#use4123"
       inkscape:transform-center-x="38.183754"
       inkscape:transform-center-y="38.18377"
       id="use4131"
       transform="matrix(0.70710678,0.70710678,-0.70710678,0.70710678,702.71108,208.22974)"
       width="200"
       height="200" />
    <use
       x="0"
       y="0"
       xlink:href="#use4125"
       inkscape:transform-center-x="38.183762"
       inkscape:transform-center-y="-38.183751"
       id="use4133"
       transform="matrix(0.70710678,0.70710678,-0.70710678,0.70710678,702.71108,208.22974)"
       width="200"
       height="200" />
    <use
       x="0"
       y="0"
       xlink:href="#use4127"
       inkscape:transform-center-y="-38.183762"
       id="use4135"
       transform="matrix(0.70710678,0.70710678,-0.70710678,0.70710678,702.71108,208.22974)"
       width="200"
       height="200"
       inkscape:transform-center-x="-38.183756" />
  </g>
</svg>
