<?xml version="1.0" encoding="UTF-8" standalone="no"?>
<!-- Created with Inkscape (http://www.inkscape.org/) -->
<svg
   xmlns:dc="http://purl.org/dc/elements/1.1/"
   xmlns:cc="http://web.resource.org/cc/"
   xmlns:rdf="http://www.w3.org/1999/02/22-rdf-syntax-ns#"
   xmlns:svg="http://www.w3.org/2000/svg"
   xmlns="http://www.w3.org/2000/svg"
   xmlns:sodipodi="http://sodipodi.sourceforge.net/DTD/sodipodi-0.dtd"
   xmlns:inkscape="http://www.inkscape.org/namespaces/inkscape"
   width="596.94946"
   height="601.84204"
   id="svg2"
   sodipodi:version="0.32"
   inkscape:version="0.45.1"
   sodipodi:docbase="C:\Documents and Settings\Owner\Desktop\SVG\Paul's Images"
   sodipodi:docname="crate front.svg"
   inkscape:output_extension="org.inkscape.output.svg.inkscape"
   version="1.0"
   inkscape:export-filename="C:\Documents and Settings\Owner\Desktop\SVG\Paul's Images\crate front.png"
   inkscape:export-xdpi="115.49691"
   inkscape:export-ydpi="115.49691">
  <defs
     id="defs4">
    <linearGradient
       id="linearGradient4206">
      <stop
         style="stop-color:#998238;stop-opacity:1;"
         offset="0"
         id="stop4208" />
      <stop
         style="stop-color:#998238;stop-opacity:0;"
         offset="1"
         id="stop4210" />
    </linearGradient>
  </defs>
  <sodipodi:namedview
     id="base"
     pagecolor="#ffffff"
     bordercolor="#666666"
     borderopacity="1.0"
     gridtolerance="10000"
     guidetolerance="10"
     objecttolerance="10"
     inkscape:pageopacity="0.0"
     inkscape:pageshadow="2"
     inkscape:zoom="0.24748737"
     inkscape:cx="-160.18144"
     inkscape:cy="144.66232"
     inkscape:document-units="px"
     inkscape:current-layer="layer1"
     inkscape:window-width="745"
     inkscape:window-height="573"
     inkscape:window-x="230"
     inkscape:window-y="69" />
  <metadata
     id="metadata7">
    <rdf:RDF>
      <cc:Work
         rdf:about="">
        <dc:format>image/svg+xml</dc:format>
        <dc:type
           rdf:resource="http://purl.org/dc/dcmitype/StillImage" />
      </cc:Work>
    </rdf:RDF>
  </metadata>
  <g
     inkscape:label="Layer 1"
     inkscape:groupmode="layer"
     id="layer1"
     transform="translate(-66.99231,-322.32941)">
    <g
       id="g5224"
       transform="translate(864.69058,-56.568542)">
      <path
         id="rect4203"
         d="M -730.20503,461.40022 L -262.18111,461.40022 L -262.18111,933.46474 L -730.20503,933.46474 L -730.20503,461.40022 z "
         style="fill:#988036;fill-opacity:1;stroke:none;stroke-width:6.72747564;stroke-linecap:square;stroke-miterlimit:4;stroke-opacity:1" />
      <path
         sodipodi:nodetypes="cccccccccc"
         d="M -795.19827,384.27029 L -203.24881,384.27029 L -207.28943,978.23997 L -795.19826,976.21967 L -795.19827,384.27029 z M -710.34544,888.33647 L -290.12207,888.33647 L -287.66216,471.21356 L -707.31496,474.17395 L -710.34544,888.33647 z "
         style="fill:#bc9d3f;fill-opacity:1;stroke:#755419;stroke-width:5;stroke-linecap:square;stroke-miterlimit:4;stroke-opacity:1"
         id="path4183" />
      <path
         sodipodi:nodetypes="ccccccccccccccccccccc"
         d="M -706.96825,474.67903 L -292.80572,474.67903 L -292.80572,886.82131 L -708.98856,884.80101 L -706.96825,474.67903 z M -331.19155,475.6892 L -670.60281,474.67905 L -502.91749,645.39481 L -331.19155,475.6892 z M -704.94799,515.0851 L -704.94799,852.47611 L -539.28298,683.78061 L -704.94799,515.0851 z M -672.62311,887.83151 L -335.23217,887.83151 L -501.90734,718.12591 L -672.62311,887.83151 z M -292.80575,847.42531 L -292.80575,518.11556 L -465.54185,683.78061 L -292.80575,847.42531 z "
         style="fill:#ac8d2d;fill-opacity:1;stroke:#755419;stroke-width:5;stroke-linecap:square;stroke-miterlimit:4;stroke-opacity:1"
         id="rect2205" />
      <path
         sodipodi:nodetypes="cccc"
         id="path3205"
         d="M -504.22154,695.54522 L -464.67017,735.17428 M -465.68033,658.40269 L -425.42964,699.58584"
         style="fill:none;fill-opacity:1;fill-rule:evenodd;stroke:#936f25;stroke-width:1px;stroke-linecap:butt;stroke-linejoin:miter;stroke-opacity:1" />
      <path
         sodipodi:nodetypes="cccccccc"
         d="M -290.29526,881.71063 L -202.74939,974.19443 M -795.21611,379.89795 L -706.4781,473.60904 M -700.7668,880.70053 L -794.86644,972.85753 M -205.94751,382.9284 L -290.64492,472.59888"
         style="fill:none;fill-opacity:1;fill-rule:evenodd;stroke:#936f25;stroke-width:2;stroke-linecap:butt;stroke-linejoin:miter;stroke-miterlimit:4;stroke-opacity:1"
         id="path3207" />
      <path
         style="fill:#7a5e2f;fill-opacity:1"
         d="M -793.69183,683.91562 L -793.69183,387.91566 L -497.69187,387.91566 L -201.69187,387.91566 L -201.69187,683.91562 L -201.69187,979.91561 L -497.69187,979.91561 L -793.69183,979.91561 L -793.69183,683.91562 z M -205.52067,976.26061 C -203.75697,974.66451 -203.69187,964.25651 -203.69187,683.76062 C -203.69187,459.84566 -203.96527,392.91566 -204.87987,392.91566 C -205.53327,392.91566 -214.87077,401.81646 -225.62988,412.69516 C -236.38898,423.57386 -247.44057,434.48636 -250.18897,436.94516 L -255.18607,441.41566 L -251.22177,436.91566 C -249.04147,434.44066 -238.13028,423.39216 -226.97468,412.36336 C -215.81917,401.33466 -206.69187,391.77216 -206.69187,391.11336 C -206.69187,390.18966 -234.65628,389.91476 -328.94187,389.91186 C -396.17937,389.90976 -527.91687,389.79726 -621.69183,389.66186 L -792.19183,389.41566 L -791.93183,681.67552 C -791.68623,957.77161 -791.57563,974.04101 -789.93183,975.84221 C -788.22823,977.70901 -782.12243,977.75061 -497.77067,977.83221 C -228.86288,977.90941 -207.21387,977.79301 -205.52067,976.26061 z M -778.83823,964.23981 C -775.91373,960.84311 -772.86603,957.81261 -772.06553,957.50541 C -769.56123,956.54451 -771.79943,959.30401 -778.17363,965.03621 L -784.15533,970.41561 L -778.83823,964.23981 z M -220.22948,961.70871 L -225.19188,956.50181 L -220.55238,960.45871 C -216.67537,963.76531 -213.97167,966.91561 -215.01087,966.91561 C -215.15177,966.91561 -217.50018,964.57251 -220.22948,961.70871 z M -768.92633,954.41561 C -767.35703,951.54401 -753.85853,938.41561 -753.17653,939.09761 C -752.62693,939.64721 -764.15773,951.87921 -768.10553,954.93451 C -769.88333,956.31031 -769.94163,956.27351 -768.92633,954.41561 z M -231.30528,951.08861 C -233.01058,949.61841 -236.60768,945.95741 -239.29888,942.95301 L -244.19188,937.49051 L -240.19188,940.62081 C -235.17938,944.54341 -227.16848,952.72551 -227.76068,953.31771 C -228.00488,953.56191 -229.59998,952.55881 -231.30528,951.08861 z M -748.69183,934.33551 C -748.69183,933.86101 -738.79183,923.53701 -726.69183,911.39331 L -704.69183,889.31381 L -704.58953,872.86471 C -704.51993,861.69311 -704.21803,857.53851 -703.64833,859.91561 C -703.18703,861.84061 -702.81393,868.76221 -702.81923,875.29701 C -702.82463,881.83181 -702.46063,887.52001 -702.01043,887.93751 C -701.56023,888.35501 -693.98933,889.00961 -685.18633,889.39221 L -669.18073,890.08771 L -584.43637,805.65621 C -537.82687,759.21881 -499.69217,720.81761 -499.69237,720.32011 C -499.69287,719.47691 -503.51927,715.54712 -514.80017,704.80412 C -524.30907,695.74862 -526.28067,693.84592 -529.69187,690.43292 C -531.61687,688.50692 -533.57097,686.92762 -534.03417,686.92332 C -535.91857,686.90602 -543.48287,694.28872 -622.43983,773.20751 L -704.68773,855.41561 L -704.79013,846.41561 C -705.11153,818.15641 -704.66203,477.55256 -704.30293,477.19336 C -704.06523,476.95576 -611.12067,476.68356 -497.75927,476.58846 L -291.64767,476.41566 L -274.85347,459.83816 C -265.61667,450.72056 -257.52657,442.93156 -256.87557,442.52916 C -253.83517,440.65016 -256.54157,443.82816 -266.44187,453.76276 C -272.35437,459.69566 -280.05257,467.53306 -283.54887,471.17906 L -289.90577,477.80826 L -289.76917,674.61192 C -289.69407,782.85391 -289.92907,874.90311 -290.29137,879.16561 C -291.40797,892.30211 -292.69187,887.75471 -292.69187,870.66331 L -292.69187,854.41101 L -374.25567,772.91331 C -454.42687,692.80702 -470.41787,676.38972 -465.94187,678.78292 C -464.70437,679.44462 -463.69187,680.42012 -463.69187,680.95072 C -463.69187,681.48142 -463.06377,681.91562 -462.29597,681.91562 C -461.52827,681.91562 -422.95447,644.00312 -376.57657,597.66562 L -292.25297,513.41566 L -292.53097,496.91566 C -292.68387,487.84066 -293.16337,480.05736 -293.59667,479.61946 C -294.02987,479.18146 -301.76607,478.68106 -310.78817,478.50736 L -327.19187,478.19156 L -411.44187,562.30132 C -457.77937,608.56172 -495.64477,646.86212 -495.58707,647.41332 C -495.52937,647.96462 -489.99287,653.59062 -483.28367,659.91562 C -471.05387,671.44512 -468.12187,674.67882 -469.05337,675.61042 C -470.15837,676.71542 -475.73467,671.95142 -486.19187,660.96852 C -492.24187,654.61442 -535.89187,610.85642 -583.19187,563.72852 L -669.19183,478.04146 L -685.69183,478.61166 C -694.76683,478.92526 -702.28343,479.25106 -702.39533,479.33566 C -702.50733,479.42016 -702.78463,487.01646 -703.01163,496.21616 L -703.42433,512.94306 L -648.15233,568.17932 C -617.75287,598.55922 -578.42157,637.81562 -560.74957,655.41562 C -543.07757,673.01562 -527.35057,688.76562 -525.80067,690.41562 C -524.25077,692.06562 -521.90477,694.35322 -520.58737,695.49922 C -519.26987,696.64522 -514.14187,702.00392 -509.19187,707.40742 C -504.24187,712.81092 -496.81687,720.41191 -492.69187,724.29861 C -488.56687,728.18531 -449.68247,766.81421 -406.28217,810.14051 L -327.37237,888.91561 L -314.09117,888.91561 C -291.48387,888.91561 -298.44027,890.57741 -324.17357,891.32421 C -337.60147,891.71391 -428.68127,891.94731 -526.57317,891.84281 L -704.55843,891.65291 L -707.37513,894.03421 C -708.92433,895.34401 -716.71683,903.16561 -724.69183,911.41561 C -740.89293,928.17531 -748.69183,935.62321 -748.69183,934.33551 z M -541.61317,876.30671 C -540.66097,875.46761 -537.78377,874.91561 -534.36317,874.91561 L -528.69187,874.91561 L -528.57817,869.66561 C -527.98417,842.24641 -528.16277,789.05541 -528.85337,787.69821 C -529.60807,786.21511 -530.85007,786.05371 -537.95957,786.51471 C -548.72797,787.21291 -555.69187,788.76001 -555.69187,790.45401 C -555.69187,791.29981 -553.94227,792.01601 -550.94187,792.39831 C -541.56977,793.59251 -539.69187,794.02021 -539.69187,794.96091 C -539.69187,796.04841 -540.85117,796.16711 -552.89297,796.31261 C -558.38667,796.37901 -562.05447,796.87811 -562.84297,797.66661 C -563.84157,798.66521 -563.75117,798.91561 -562.39187,798.91561 C -559.22467,798.91561 -560.66947,800.68881 -564.40817,801.39011 C -570.84197,802.59711 -573.36357,805.16691 -574.48777,811.66251 C -575.13477,815.40091 -575.14277,818.05571 -574.51067,819.24371 C -573.97567,820.24921 -573.79897,821.75231 -574.11817,822.58391 C -575.03057,824.96171 -573.79847,826.04291 -571.54867,824.83891 C -569.60367,823.79801 -569.59647,823.70581 -571.35777,822.41791 C -572.36477,821.68161 -572.83517,820.72551 -572.40307,820.29341 C -571.33687,819.22721 -549.67707,818.56201 -543.03747,819.39161 C -540.09737,819.75891 -537.69187,820.43871 -537.69187,820.90221 C -537.69187,821.36571 -541.17937,822.03451 -545.44187,822.38841 C -553.79457,823.08191 -557.59757,823.80771 -567.69187,826.63481 C -573.84157,828.35711 -574.20877,828.62931 -574.50527,831.68537 C -574.84637,835.20191 -574.53617,835.43771 -571.62127,833.87777 C -569.06197,832.50807 -558.78797,832.41947 -557.45187,833.75557 C -556.71957,834.48791 -557.12597,834.94431 -558.79727,835.26661 C -560.11427,835.52051 -564.11687,836.34151 -567.69187,837.09101 L -574.19187,838.45361 L -574.45037,856.10461 C -574.66377,870.67201 -574.44807,874.01661 -573.21577,875.24891 C -572.28977,876.17491 -568.77297,876.98371 -563.95727,877.37811 C -559.68627,877.72801 -555.06687,878.15881 -553.69187,878.33561 C -549.61517,878.85951 -543.30807,877.80011 -541.61317,876.30671 z M -564.94187,857.25331 C -564.25437,856.97591 -563.12937,856.97591 -562.44187,857.25331 C -561.75437,857.53071 -562.31687,857.75771 -563.69187,857.75771 C -565.06687,857.75771 -565.62937,857.53071 -564.94187,857.25331 z M -548.94187,834.25327 C -548.25437,833.97587 -547.12937,833.97587 -546.44187,834.25327 C -545.75437,834.53071 -546.31687,834.75771 -547.69187,834.75771 C -549.06687,834.75771 -549.62937,834.53071 -548.94187,834.25327 z M -559.19187,807.07431 C -557.24467,805.11721 -546.39317,803.59431 -540.19187,804.40771 C -535.35037,805.04281 -534.68127,805.33311 -536.72647,805.91111 C -541.24607,807.18831 -560.28637,808.17421 -559.19187,807.07431 z M -594.44187,876.45961 C -584.54477,876.49671 -582.67357,876.26021 -582.57537,874.95961 C -581.96467,866.86581 -581.78027,856.99111 -582.20567,855.16561 C -582.68947,853.08971 -583.28957,852.91451 -589.96097,852.90191 C -602.91277,852.87741 -606.13067,850.56431 -594.79617,849.42601 C -590.12787,848.95721 -587.17977,849.11931 -585.66907,849.92781 C -583.88907,850.88041 -583.25737,850.84821 -582.54707,849.76881 C -581.30047,847.87431 -581.91587,815.34121 -583.19187,815.68491 C -583.74187,815.83311 -584.19187,816.92731 -584.19187,818.11651 C -584.19187,819.72081 -585.04067,820.49991 -587.48137,821.13601 C -589.51637,821.66631 -591.10557,822.87331 -591.64827,824.30091 C -592.13087,825.57011 -594.73477,828.19561 -597.43467,830.13531 C -600.13577,832.07587 -603.11777,835.29331 -604.06477,837.28881 C -605.01127,839.28351 -606.27397,840.91561 -606.87077,840.91561 C -608.61137,840.91561 -614.65577,847.84611 -614.12387,849.23211 C -613.83467,849.98581 -615.02237,850.99491 -617.06987,851.73531 C -618.95657,852.41751 -622.19053,855.03851 -624.25643,857.55971 C -627.65353,861.70541 -628.02123,862.73041 -628.10223,868.27961 C -628.24813,878.26701 -628.41303,878.14051 -616.45537,877.21231 C -610.81047,876.77411 -600.90437,876.43541 -594.44187,876.45961 z M -609.87937,868.23241 C -609.15747,867.94361 -608.29507,867.97911 -607.96277,868.31141 C -607.63047,868.64371 -608.22107,868.88001 -609.27527,868.83661 C -610.44017,868.78861 -610.67717,868.55171 -609.87937,868.23241 z M -606.87937,850.23241 C -606.15747,849.94361 -605.29507,849.97911 -604.96277,850.31141 C -604.63047,850.64371 -605.22107,850.88001 -606.27527,850.83661 C -607.44017,850.78861 -607.67717,850.55171 -606.87937,850.23241 z M -478.00587,876.44821 C -474.56717,875.63111 -473.30047,873.72431 -474.23657,870.77471 C -474.74697,869.16681 -475.90677,868.91561 -482.81827,868.91561 C -487.21367,868.91561 -490.56837,868.52471 -490.27307,868.04691 C -489.39307,866.62291 -482.29417,865.88241 -478.88807,866.85931 C -477.14507,867.35921 -475.48247,867.38581 -475.19357,866.91831 C -474.90467,866.45091 -474.49557,863.58091 -474.28437,860.54051 C -473.81337,853.75921 -475.15057,851.56741 -479.68007,851.69621 C -483.24087,851.79741 -490.69187,849.21141 -490.69187,847.87441 C -490.69187,847.04661 -489.64937,846.65181 -484.29727,845.45311 C -482.12367,844.96631 -481.68777,844.51971 -482.54727,843.66021 C -484.69547,841.51201 -483.69557,840.65171 -479.67717,841.19071 C -476.45367,841.62311 -475.46837,841.36641 -474.67717,839.88811 C -473.41647,837.53241 -473.41137,831.78347 -474.66717,828.48071 C -475.53327,826.20251 -476.19787,825.91561 -480.60817,825.91561 C -483.33927,825.91561 -485.85197,825.46561 -486.19187,824.91561 C -486.79357,823.94201 -485.97157,823.79101 -478.69187,823.53751 L -475.19187,823.41561 L -474.35987,815.91561 C -473.81777,811.02881 -473.89777,807.45351 -474.58937,805.65441 C -475.61917,802.97561 -475.81627,802.91271 -481.19387,803.54471 C -486.07227,804.11811 -486.66137,803.99951 -486.10737,802.55591 C -485.57257,801.16231 -486.28367,800.91331 -490.83487,800.90021 C -493.78127,800.89181 -496.86687,800.44871 -497.69187,799.91561 C -499.57987,798.69541 -488.42127,798.66331 -481.19187,799.86801 C -475.42707,800.82861 -473.27057,799.77621 -474.34077,796.52441 C -474.72247,795.36451 -474.98017,793.55631 -474.91347,792.50611 C -474.84677,791.45591 -475.22087,789.79581 -475.74477,788.81681 C -476.35977,787.66761 -476.34207,786.81741 -475.69457,786.41721 C -475.14317,786.07641 -474.69187,783.78791 -474.69187,781.33181 C -474.69187,777.45821 -475.03207,776.73671 -477.25697,775.89081 C -478.66777,775.35441 -483.28027,774.88391 -487.50697,774.84531 C -497.09017,774.75761 -494.38267,773.08961 -484.48887,772.98581 C -477.92107,772.91701 -477.75597,772.84991 -476.31167,769.66561 C -474.10067,764.79071 -473.33427,758.18991 -474.62137,755.10821 C -475.23997,753.62731 -477.30887,751.39891 -479.21897,750.15641 C -481.12907,748.91381 -482.69187,747.45131 -482.69187,746.90641 C -482.69187,746.36141 -483.18947,745.91561 -483.79757,745.91561 C -484.40567,745.91561 -486.24017,744.79061 -487.87427,743.41561 C -489.58997,741.97191 -492.10547,740.91561 -493.82767,740.91561 C -495.56117,740.91561 -496.55117,740.49681 -496.19187,739.91561 C -495.85197,739.36561 -494.70047,738.91561 -493.63287,738.91561 C -491.01507,738.91561 -491.17497,736.39101 -493.91437,734.47231 C -497.05167,732.27481 -500.42997,732.53961 -502.75877,735.16561 C -509.17267,742.39801 -511.66947,744.88091 -515.94187,748.27551 C -520.52847,751.91961 -521.91207,755.04341 -519.57847,756.48571 C -518.96607,756.86411 -515.02857,757.50271 -510.82847,757.90481 L -503.19187,758.63581 L -510.69187,758.79101 C -514.81687,758.87631 -518.69377,759.27681 -519.30717,759.68091 C -521.02397,760.81191 -521.91947,764.68641 -520.88947,766.52701 C -520.30367,767.57371 -520.37297,769.27811 -521.07847,771.17941 C -522.00707,773.68181 -521.91757,774.35441 -520.53917,775.23131 C -519.06337,776.17011 -519.04417,776.52351 -520.36017,778.53211 C -521.45027,780.19571 -521.56377,781.28641 -520.79617,782.72081 C -520.10297,784.01601 -520.08127,785.78191 -520.73097,788.03781 C -521.97837,792.36961 -521.83527,800.60431 -520.44907,804.26071 C -519.39197,807.04921 -519.25917,807.09211 -513.78117,806.41421 C -510.70707,806.03381 -508.55697,806.09361 -509.00327,806.54711 C -509.44947,807.00061 -512.14947,807.60651 -515.00327,807.89361 C -521.08147,808.50501 -520.48787,805.86591 -520.51817,832.41557 C -520.52887,841.76561 -520.60197,850.42811 -520.68067,851.66561 C -520.93337,855.63831 -520.85707,864.25911 -520.51977,869.84551 L -520.19187,875.27551 L -513.83647,875.02051 C -509.79677,874.85841 -507.70617,875.12961 -508.09877,875.76481 C -508.43847,876.31451 -507.92337,876.92301 -506.95417,877.11701 C -503.80647,877.74721 -481.28257,877.22691 -478.00587,876.44821 z M -492.94187,875.25331 C -492.25437,874.97591 -491.12937,874.97591 -490.44187,875.25331 C -489.75437,875.53071 -490.31687,875.75771 -491.69187,875.75771 C -493.06687,875.75771 -493.62937,875.53071 -492.94187,875.25331 z M -514.19187,816.91561 C -513.85197,816.36561 -512.13797,815.92241 -510.38287,815.93091 C -507.95477,815.94251 -507.55057,816.17791 -508.69187,816.91561 C -510.67517,818.19721 -514.98407,818.19721 -514.19187,816.91561 z M -513.69187,781.91561 C -512.86687,781.38241 -511.51687,780.97091 -510.69187,781.00121 C -509.70287,781.03741 -509.87317,781.34891 -511.19187,781.91561 C -513.94097,783.09691 -515.51987,783.09691 -513.69187,781.91561 z M -374.47217,877.27981 L -366.95067,876.64401 L -366.83687,868.29741 C -366.72417,860.03001 -366.75097,859.93641 -369.65787,858.43321 C -373.99767,856.18891 -379.07577,856.42131 -393.63977,859.53041 C -395.57647,859.94391 -395.78527,860.24421 -394.63977,860.96901 C -393.84347,861.47271 -391.98097,861.89181 -390.50097,861.90021 C -386.42757,861.92341 -386.16337,863.72581 -390.12447,864.46891 C -394.09227,865.21331 -399.94797,864.67201 -407.11217,862.89881 L -412.03237,861.68101 L -409.61217,859.82051 C -408.28097,858.79721 -407.71757,857.95001 -408.36007,857.93781 C -409.00267,857.92561 -410.17427,857.66771 -410.96377,857.36471 C -412.11217,856.92401 -412.50947,858.42411 -412.95117,864.86761 C -413.75567,876.60561 -413.55187,877.02211 -407.32657,876.35891 C -404.50247,876.05801 -399.49187,876.23031 -396.19187,876.74181 C -388.43667,877.94371 -383.71127,878.06071 -374.47217,877.27981 z M -389.94187,871.22061 C -395.07997,870.63721 -394.69017,868.89811 -389.44187,868.98971 C -384.55727,869.07491 -375.12147,870.60221 -378.31687,870.79041 C -379.48567,870.85921 -381.73567,871.08001 -383.31687,871.28101 C -384.89817,871.48201 -387.87937,871.45481 -389.94187,871.22061 z M -352.94327,875.16971 C -352.73487,874.54441 -353.93287,873.32521 -355.60557,872.46021 C -358.56967,870.92741 -358.66237,870.94981 -359.26347,873.34471 C -359.60267,874.69621 -359.61067,876.23801 -359.28127,876.77101 C -358.52917,877.98781 -353.45537,876.70601 -352.94327,875.16971 z M -636.56873,870.63871 C -637.15253,870.05491 -637.95803,870.54441 -638.70243,871.93541 C -639.65633,873.71771 -639.62593,874.33831 -638.55213,875.00191 C -636.91793,876.01191 -635.12963,872.07781 -636.56873,870.63871 z M -441.84587,873.71021 C -430.21647,873.54811 -420.68457,873.19061 -420.66377,872.91561 C -420.64307,872.64061 -420.65497,867.24061 -420.69017,860.91561 C -420.79987,841.21041 -420.64217,833.47837 -420.09367,831.67687 C -419.76667,830.6028 -420.55647,829.01881 -422.15997,827.53271 C -424.26057,825.58591 -424.41577,825.15471 -422.97377,825.27141 C -421.40417,825.39841 -421.16527,824.36911 -420.96877,816.63191 C -420.75357,808.16081 -420.83367,807.80811 -423.21877,806.72141 C -424.57897,806.10161 -425.69187,804.94731 -425.69187,804.15621 C -425.69187,803.36521 -426.92937,801.48001 -428.44187,799.96691 C -429.95437,798.45391 -432.01457,796.00461 -433.01997,794.52411 C -434.02547,793.04361 -437.29687,790.20641 -440.28977,788.21921 C -443.31767,786.20881 -445.98137,783.61041 -446.29487,782.36141 C -446.90467,779.93171 -453.20657,774.35101 -458.13117,771.87951 C -459.95987,770.96181 -461.08197,769.69011 -460.91887,768.72021 C -460.76877,767.82741 -461.86547,766.13761 -463.35607,764.96511 C -465.64047,763.16821 -466.19487,763.06291 -466.88447,764.29521 C -467.33447,765.09931 -467.32477,766.80531 -466.86287,768.08631 C -465.90517,770.74261 -466.01797,776.34561 -467.09607,779.66561 C -468.21717,783.11791 -466.91367,786.12071 -464.61127,785.39001 C -462.06647,784.58231 -462.19087,785.32361 -465.08607,788.21881 C -467.01707,790.14981 -467.45237,791.56121 -467.33607,795.51431 C -467.21037,799.78621 -466.93507,800.38571 -465.19187,800.18281 C -464.09187,800.05481 -459.81687,799.71721 -455.69187,799.43251 C -446.91837,798.82711 -450.16497,800.41721 -459.96667,801.52621 C -463.81417,801.96141 -466.03697,802.72591 -466.57517,803.79881 C -467.02117,804.68801 -467.34247,813.50221 -467.28907,823.38581 C -467.19247,841.24541 -467.17727,841.36341 -464.82327,842.53721 L -462.45467,843.71821 L -464.57327,844.85211 C -465.73857,845.47571 -466.69187,846.87011 -466.69187,847.95071 C -466.69187,849.61821 -465.97307,849.92621 -461.94187,849.98581 C -458.36797,850.03871 -457.68707,850.26891 -459.19187,850.91561 C -460.29187,851.38821 -462.42087,851.80661 -463.92287,851.84531 C -465.90507,851.89631 -466.79507,852.53241 -467.16887,854.16561 C -467.58247,855.97221 -467.27507,874.62381 -466.81397,875.70071 C -466.74687,875.85761 -465.85897,875.54021 -464.84107,874.99541 C -463.82307,874.45061 -453.47527,873.87221 -441.84587,873.71021 z M -458.42817,865.19801 C -456.90807,864.96811 -454.65807,864.97431 -453.42817,865.21161 C -452.19817,865.44901 -453.44187,865.63701 -456.19187,865.62951 C -458.94187,865.62201 -459.94817,865.42781 -458.42817,865.19801 z M -452.42957,837.31991 C -451.05217,835.94251 -436.90367,832.91557 -431.84287,832.91557 C -425.46187,832.91557 -425.67347,833.52587 -432.92227,836.02991 C -437.80277,837.71591 -453.88927,838.77961 -452.42957,837.31991 z M -444.69187,813.95941 L -447.19187,813.20271 L -444.33677,812.42431 C -440.80367,811.46111 -428.70107,812.50641 -427.31277,813.89471 C -426.10547,815.10201 -440.73717,815.15651 -444.69187,813.95941 z M -395.45077,854.61671 C -381.22327,855.28891 -375.40807,854.58801 -375.87957,852.25781 C -376.17267,850.80941 -383.28297,846.10821 -388.55057,843.88011 C -390.48507,843.06191 -390.68987,842.61801 -389.68917,841.41231 C -388.68087,840.19741 -389.31307,839.16471 -393.33047,835.46431 C -398.93737,830.2997 -404.90527,827.62501 -409.78307,828.09041 C -413.13477,828.41011 -413.19697,828.50221 -413.49137,833.58497 C -413.65607,836.42821 -413.35417,840.25321 -412.82057,842.08501 C -411.88667,845.29051 -411.82277,845.32591 -411.11837,843.02781 C -410.40307,840.69391 -410.19777,840.65341 -402.02037,841.23051 C -392.42007,841.90801 -391.68897,842.18821 -392.40237,844.91661 C -392.86007,846.66651 -393.76727,846.91561 -399.68357,846.91561 C -409.55927,846.91561 -412.60627,847.72611 -413.31277,850.54091 C -414.28267,854.40531 -413.16857,856.04731 -410.31317,854.96171 C -408.95737,854.44621 -402.31997,854.29211 -395.45077,854.61671 z M -406.69187,822.44141 C -406.69187,821.19901 -411.73667,816.82521 -412.57327,817.34221 C -413.53297,817.93541 -413.84817,823.67461 -413.00267,825.16191 C -412.59877,825.87251 -406.69187,823.32611 -406.69187,822.44141 z M -303.19187,821.08221 C -303.19187,819.27361 -305.14917,819.60381 -305.53737,821.47791 C -305.75337,822.52061 -305.37857,822.97781 -304.53737,822.69741 C -303.79737,822.45071 -303.19187,821.72391 -303.19187,821.08221 z M -681.00873,819.72811 C -681.32793,818.93031 -681.56493,819.16731 -681.61293,820.33221 C -681.65633,821.38641 -681.42003,821.97701 -681.08773,821.64471 C -680.75543,821.31241 -680.71983,820.44991 -681.00873,819.72811 z M -312.87237,818.66561 C -313.10117,817.05451 -313.97287,816.32571 -315.94187,816.09911 C -319.10077,815.73571 -319.38007,816.49771 -317.03687,819.08681 C -314.70607,821.66241 -312.47877,821.43711 -312.87237,818.66561 z M -671.12823,810.52551 C -670.83583,809.36501 -669.04313,807.39891 -667.14423,806.15641 C -662.97283,803.42661 -662.85503,802.61001 -666.44183,801.28821 C -669.08833,800.31291 -668.98623,800.22901 -663.73273,799.06091 C -658.09003,797.80611 -654.69183,795.61671 -654.69183,793.23581 C -654.69183,792.48241 -653.45433,791.39861 -651.94183,790.82721 C -648.07113,789.36501 -643.69183,784.92641 -643.69183,782.46561 C -643.69183,781.27481 -642.73263,779.96511 -641.44183,779.39361 C -640.11413,778.80581 -639.31233,777.68381 -639.48573,776.65651 C -639.65463,775.65531 -639.15213,774.91561 -638.30303,774.91561 C -637.49103,774.91561 -636.61133,774.12811 -636.34823,773.16561 C -635.70203,770.80191 -635.66413,618.87682 -636.30923,616.67772 C -636.58953,615.72192 -638.25283,614.52492 -640.00543,614.01792 L -643.19183,613.09592 L -639.94183,613.00572 C -637.72933,612.94432 -636.69183,612.42672 -636.69183,611.38422 C -636.69183,609.54342 -637.51013,609.24902 -644.94183,608.41612 C -653.34223,607.47462 -652.20943,605.66592 -643.47223,606.06962 L -636.25253,606.40312 L -635.97003,599.65302 L -635.68763,592.90282 L -641.37323,586.65922 C -644.50033,583.22522 -648.55133,579.61732 -650.37543,578.64172 C -652.19943,577.66602 -653.69183,576.21942 -653.69183,575.42682 C -653.69183,571.72022 -664.10623,570.50602 -667.14053,573.85892 C -668.10783,574.92772 -670.31503,576.08962 -672.04553,576.44102 C -677.30983,577.50972 -681.68273,579.25922 -681.85703,580.36642 C -682.49763,584.43412 -682.74903,597.95772 -682.44353,611.91562 L -682.19183,623.41562 L -679.51703,623.13952 C -675.84983,622.76102 -674.95053,624.69552 -678.40093,625.54022 C -682.19653,626.46952 -682.65883,627.44722 -682.67653,634.58382 C -682.69743,643.01352 -682.22743,643.99822 -678.75973,642.78942 C -677.03793,642.18922 -674.11933,642.16202 -671.08643,642.71802 C -665.78553,643.68982 -665.99633,643.87652 -675.44183,646.57392 C -679.48523,647.72862 -681.69183,648.88082 -681.69183,649.83722 C -681.69183,650.82212 -681.35833,650.98202 -680.69253,650.31622 C -679.47743,649.10112 -644.29003,649.48142 -642.05213,650.73382 C -641.12163,651.25452 -643.97603,651.56612 -649.35843,651.53142 C -665.23293,651.42902 -680.92063,652.66932 -681.81663,654.09772 C -682.27133,654.82252 -682.54173,659.69062 -682.41763,664.91562 L -682.19183,674.41562 L -666.69183,674.53482 C -642.60333,674.72012 -640.52133,674.83062 -641.17593,675.88972 C -641.55053,676.49592 -649.30903,676.68072 -661.71313,676.37902 L -681.64833,675.89412 L -682.26423,678.34802 C -682.60303,679.69762 -682.59193,681.26822 -682.23973,681.83812 C -681.88753,682.40792 -682.11643,683.84042 -682.74853,685.02142 C -683.55763,686.53332 -683.59403,687.83492 -682.87143,689.42092 C -681.91113,691.52832 -681.54913,691.60542 -677.24283,690.62002 C -673.94993,689.86652 -672.32903,689.87842 -671.54553,690.66182 C -670.75223,691.45522 -671.67803,691.94092 -674.90573,692.42492 C -677.35613,692.79242 -679.96383,693.46562 -680.70063,693.92102 C -681.76233,694.57722 -682.09733,701.02812 -682.31503,725.01041 C -682.46613,741.65411 -682.37183,755.62441 -682.10543,756.05541 C -681.83903,756.48651 -680.45493,756.39581 -679.02963,755.85391 C -675.04773,754.33991 -662.08343,753.47301 -661.34293,754.67111 C -660.22643,756.47761 -667.22163,758.91561 -673.52153,758.91561 C -680.65923,758.91561 -682.95733,760.54811 -682.49583,765.29101 C -682.30253,767.27831 -681.70143,768.31271 -680.84443,768.13311 C -680.10323,767.97771 -677.45513,767.57071 -674.95963,767.22871 C -668.28103,766.31331 -669.78423,769.03381 -676.69783,770.37471 C -681.38223,771.28321 -682.16013,771.77731 -682.81713,774.26091 C -683.23113,775.82581 -683.14733,778.21761 -682.63083,779.57601 C -682.11443,780.93441 -681.69183,783.04581 -681.69183,784.26821 C -681.69183,786.18141 -681.11403,786.51361 -677.53873,786.65621 C -671.49303,786.89731 -670.65323,788.53841 -676.25263,789.16951 C -678.83023,789.46011 -681.33593,790.30931 -681.82073,791.05671 C -682.70953,792.42671 -682.90293,811.97891 -682.05853,815.09191 C -681.64243,816.62601 -681.18223,816.59291 -676.63173,814.70181 C -673.41833,813.36641 -671.47173,811.88921 -671.12823,810.52551 z M -676.19183,747.91561 C -675.85193,747.36561 -674.89883,746.91561 -674.07383,746.91561 C -673.24883,746.91561 -672.85193,747.36561 -673.19183,747.91561 C -673.53173,748.46561 -674.48493,748.91561 -675.30993,748.91561 C -676.13493,748.91561 -676.53173,748.46561 -676.19183,747.91561 z M -655.94183,742.27641 C -656.90433,741.99731 -657.69183,741.36051 -657.69183,740.86131 C -657.69183,739.38381 -652.88923,738.61671 -647.91133,739.29891 C -643.02963,739.96811 -639.63633,741.91561 -643.35233,741.91561 C -644.48553,741.91561 -647.38803,742.11091 -649.80233,742.34971 C -652.21653,742.58851 -654.97933,742.55551 -655.94183,742.27641 z M -647.11993,733.03201 C -648.05773,731.51451 -643.19173,730.52861 -641.01433,731.79491 C -639.62203,732.60461 -639.54593,732.86511 -640.69183,732.89881 C -641.51683,732.92301 -643.15353,733.20091 -644.32903,733.51631 C -645.50443,733.83171 -646.76033,733.61381 -647.11993,733.03201 z M -676.69183,728.97461 C -676.69183,727.27511 -674.78533,726.80671 -670.95883,727.56631 L -667.19183,728.31411 L -670.19183,728.99651 C -674.71213,730.02471 -676.69183,730.01801 -676.69183,728.97461 z M -664.19183,715.91562 C -663.85193,715.36562 -662.67383,714.91562 -661.57383,714.91562 C -660.47383,714.91562 -659.85193,715.36562 -660.19183,715.91562 C -660.53173,716.46562 -661.70993,716.91562 -662.80993,716.91562 C -663.90993,716.91562 -664.53173,716.46562 -664.19183,715.91562 z M -654.42283,709.22262 C -653.44983,708.96902 -652.09983,708.98572 -651.42283,709.25962 C -650.74583,709.53352 -651.54183,709.74102 -653.19183,709.72062 C -654.84183,709.70022 -655.39583,709.47612 -654.42283,709.22262 z M -679.69183,704.05162 C -679.69183,703.57642 -677.98013,702.00142 -675.88813,700.55162 C -671.64283,697.60962 -665.31503,697.00822 -662.24273,699.25472 C -660.51983,700.51452 -660.51453,700.63352 -662.15453,701.26292 C -663.93103,701.94462 -677.57773,704.91322 -678.94183,704.91472 C -679.35433,704.91522 -679.69183,704.52682 -679.69183,704.05162 z M -653.21213,689.88282 C -653.56113,689.31812 -652.05133,688.91562 -649.58423,688.91562 C -644.78573,688.91562 -644.72633,689.34952 -649.40313,690.23922 C -651.16923,690.57512 -652.88333,690.41482 -653.21213,689.88282 z M -675.19183,667.00472 C -680.13643,666.41462 -680.15443,666.39972 -676.81683,665.66182 C -672.26343,664.65502 -657.51613,664.74062 -655.87163,665.78332 C -655.02133,666.32252 -656.44473,666.84772 -659.87163,667.25932 C -665.62183,667.94982 -667.53893,667.91792 -675.19183,667.00472 z M -671.19183,600.91562 C -668.43493,599.73092 -657.52503,599.73092 -655.69183,600.91562 C -654.66863,601.57682 -657.21123,601.86752 -663.69183,601.83002 C -669.91813,601.79392 -672.50263,601.47882 -671.19183,600.91562 z M -673.13833,586.01332 C -674.94103,585.30782 -674.90413,585.20322 -672.63833,584.59722 C -667.41873,583.20112 -660.08623,584.28242 -662.85803,586.03942 C -664.48423,587.07032 -670.47623,587.05502 -673.13833,586.01332 z M -313.19187,807.41561 C -313.19187,803.89531 -313.49177,803.37971 -315.69187,803.11651 C -320.55937,802.53431 -321.24507,801.55921 -317.19187,800.98361 L -313.19187,800.41561 L -313.40667,787.03411 C -313.52477,779.67431 -313.87957,773.39461 -314.19507,773.07911 C -314.51057,772.76361 -317.67637,772.32031 -321.23027,772.09401 C -327.83157,771.67371 -328.29807,771.42041 -326.80607,769.06611 C -326.19287,768.09851 -324.14577,767.81551 -319.57137,768.06611 L -313.19187,768.41561 L -313.04047,739.41561 C -312.95717,723.46561 -312.78007,708.16562 -312.64697,705.41562 C -312.24177,697.04382 -313.78247,684.81802 -315.31687,684.22922 C -317.26287,683.48252 -317.02147,682.23502 -314.81947,681.65922 C -313.13127,681.21772 -312.93507,680.00142 -312.82477,669.29252 C -312.75747,662.76022 -313.03757,656.91522 -313.44717,656.30372 C -314.67067,654.47702 -320.54287,654.14242 -326.55247,655.55692 C -333.26237,657.13632 -340.33047,657.30942 -341.19187,655.91562 C -341.55027,655.33572 -340.57727,654.91562 -338.87597,654.91562 C -334.82057,654.91562 -329.69187,653.81422 -329.69187,652.94342 C -329.69187,652.54622 -330.70437,651.69552 -331.94187,651.05292 C -333.76867,650.10442 -332.49897,649.96032 -325.19187,650.28712 C -320.24187,650.50842 -315.51687,650.85292 -314.69187,651.05252 C -312.66327,651.54352 -312.12617,646.63002 -314.03517,645.04562 C -315.39047,643.92082 -335.35547,641.10432 -344.19187,640.79122 C -346.59687,640.70602 -345.03187,640.31652 -340.26727,639.81442 C -333.54407,639.10592 -319.90397,639.76372 -314.69987,641.04752 C -313.52837,641.33652 -313.16997,640.23422 -313.03157,635.91562 C -312.79237,628.45342 -313.26677,627.25062 -316.72147,626.55962 C -320.71557,625.76082 -320.51097,624.08352 -316.44187,624.26812 L -313.19187,624.41562 L -313.00567,609.91562 C -312.78817,592.97452 -312.79477,592.96212 -322.13307,592.82962 C -327.46867,592.75392 -327.83377,592.62982 -325.19187,591.79012 C -323.54187,591.26562 -320.05437,591.09482 -317.44187,591.41052 L -312.69187,591.98442 L -312.53437,587.70002 C -312.44777,585.34362 -312.48477,582.74062 -312.61667,581.91562 C -312.74867,581.09062 -312.78407,573.15152 -312.69537,564.27332 C -312.59387,554.10642 -312.91527,547.89552 -313.56377,547.49472 C -314.78857,546.73782 -325.69187,557.53062 -325.69187,559.49992 C -325.69187,560.25032 -327.09687,561.59072 -328.81407,562.47882 C -332.77247,564.52572 -338.69187,570.40132 -338.69187,572.28342 C -338.69187,573.07252 -340.20857,574.61282 -342.06227,575.70652 C -344.47897,577.13252 -345.56357,578.58752 -345.89547,580.84932 C -346.15007,582.58422 -345.91667,584.27672 -345.37667,584.61042 C -344.83667,584.94412 -347.58387,586.73222 -351.48157,588.58382 C -355.71447,590.59472 -358.81897,592.74062 -359.19107,593.91282 C -359.94087,596.27542 -358.32597,599.75052 -357.27127,598.04402 C -356.40657,596.64482 -348.03947,596.54412 -347.18757,597.92262 C -346.32347,599.32072 -349.39707,600.36762 -354.44187,600.39362 C -356.77937,600.40572 -358.75517,600.86562 -358.83247,601.41562 C -359.01357,602.70322 -359.73957,667.19492 -359.67677,676.41562 C -359.64067,681.72872 -359.22917,683.71682 -357.96937,684.66562 C -357.05657,685.35312 -356.83707,685.91562 -357.48177,685.91562 C -358.86917,685.91562 -360.16627,690.33892 -359.22537,691.86142 C -358.76457,692.60702 -357.98447,692.60732 -356.59297,691.86262 C -355.50537,691.28052 -352.72017,690.94792 -350.40367,691.12332 L -346.19187,691.44232 L -352.63687,693.54442 L -359.08187,695.64652 L -359.27527,705.79102 C -359.38157,711.37052 -359.17687,716.11582 -358.82047,716.33612 C -358.46397,716.55642 -354.87927,716.37522 -350.85437,715.93342 C -346.82957,715.49162 -342.33397,715.49312 -340.86417,715.93692 C -338.71897,716.58452 -339.27667,716.76172 -343.69187,716.83522 C -350.05827,716.94112 -356.04107,718.40761 -357.96777,720.33431 C -358.99687,721.36341 -359.29727,725.85881 -359.25157,739.54661 L -359.19187,757.41561 L -356.88377,757.16711 C -355.55227,757.02371 -354.83687,757.34101 -355.19287,757.91711 C -355.53227,758.46621 -356.42807,758.91561 -357.18357,758.91561 C -358.89987,758.91561 -359.53167,761.09001 -359.58067,767.16561 C -359.61477,771.40381 -359.38047,771.91901 -357.40537,771.94741 C -355.35227,771.97691 -355.31867,772.07541 -356.94187,773.30761 C -359.41817,775.18731 -359.11187,777.40321 -356.19187,778.73361 C -354.81687,779.36011 -353.69187,780.51911 -353.69187,781.30911 C -353.69187,783.29001 -345.05587,790.78681 -340.19187,793.02831 C -337.99187,794.04211 -333.94187,794.93081 -331.19187,795.00321 L -326.19187,795.13471 L -330.62017,796.00341 C -333.05577,796.48121 -335.45617,797.27981 -335.95447,797.77811 C -337.44077,799.26441 -332.60477,801.90751 -328.21937,802.00571 L -324.19187,802.09591 L -327.44187,803.03431 C -329.22937,803.55051 -330.69187,804.37921 -330.69187,804.87611 C -330.69187,807.50121 -320.27607,812.00821 -315.19187,811.58291 C -313.55317,811.44581 -313.19187,810.69311 -313.19187,807.41561 z M -333.66657,782.18551 L -337.14127,780.72641 L -334.66657,779.35641 C -332.14517,777.96051 -319.57527,777.36561 -318.35637,778.58441 C -317.98857,778.95231 -318.40047,780.04101 -319.27177,781.00381 C -320.56917,782.43751 -321.39237,782.56731 -323.81957,781.72121 C -326.12607,780.91711 -327.16097,781.01581 -328.48747,782.16631 C -329.98517,783.46521 -330.61327,783.46761 -333.66657,782.18551 z M -322.69187,753.91561 C -322.69187,753.36561 -321.00437,752.92241 -318.94187,752.93091 C -316.15257,752.94231 -315.57617,753.19451 -316.69187,753.91561 C -318.66277,755.18921 -322.69187,755.18921 -322.69187,753.91561 z M -329.69187,747.26071 C -330.51687,747.13301 -336.59187,746.67061 -343.19187,746.23321 L -355.19187,745.43781 L -341.69187,744.91701 C -327.72527,744.37821 -323.69187,744.60201 -323.69187,745.91561 C -323.69187,746.77981 -327.41127,747.61361 -329.69187,747.26071 z M -352.69187,721.91561 C -350.73537,720.65111 -348.69187,720.65111 -348.69187,721.91561 C -348.69187,722.46561 -349.92937,722.90871 -351.44187,722.90021 C -353.58487,722.88831 -353.86077,722.67091 -352.69187,721.91561 z M -354.69187,710.02752 C -356.76417,709.65752 -357.71887,709.09802 -357.03217,708.65582 C -356.39427,708.24512 -355.20187,708.16642 -354.38227,708.48092 C -353.56267,708.79542 -350.70957,709.41892 -348.04197,709.86652 C -343.24897,710.67072 -343.23897,710.68022 -347.19187,710.66632 C -349.39187,710.65862 -352.76687,710.37112 -354.69187,710.02752 z M -355.05607,626.13542 C -356.00817,624.59482 -349.91737,623.95912 -342.69187,624.84502 L -336.19187,625.64192 L -341.69187,625.78972 C -344.71687,625.87102 -348.82217,626.20722 -350.81477,626.53682 C -352.83877,626.87152 -354.71057,626.69442 -355.05607,626.13542 z M -353.26097,611.80382 C -354.51017,609.78252 -351.30317,608.94642 -342.24187,608.93092 C -335.49197,608.91932 -333.57487,609.19852 -334.44307,610.06672 C -336.76307,612.38672 -352.02977,613.79602 -353.26097,611.80382 z M -329.69187,575.91562 C -329.69187,575.35242 -326.87827,574.91562 -323.25097,574.91562 C -319.70837,574.91562 -316.53187,575.36562 -316.19187,575.91562 C -315.80217,576.54612 -318.18157,576.91562 -322.63287,576.91562 C -326.67227,576.91562 -329.69187,576.48782 -329.69187,575.91562 z M -303.29887,808.33381 C -302.33867,805.83141 -302.57797,804.91561 -304.19187,804.91561 C -305.12527,804.91561 -305.69187,805.86001 -305.69187,807.41561 C -305.69187,810.20851 -304.23307,810.76831 -303.29887,808.33381 z M -303.19187,791.58221 C -303.19187,788.97571 -305.15277,789.13931 -305.52607,791.77691 C -305.75517,793.39591 -305.44067,793.99851 -304.52607,793.69361 C -303.79227,793.44901 -303.19187,792.49891 -303.19187,791.58221 z M -528.31517,782.90911 C -527.83287,782.44321 -527.72897,780.90401 -528.08417,779.48881 C -528.68847,777.08091 -529.11697,776.91561 -534.75077,776.91561 C -543.54257,776.91561 -551.06457,781.15471 -547.94187,784.34961 C -546.98777,785.32581 -529.48707,784.04131 -528.31517,782.90911 z M -302.84637,781.46751 C -302.62537,780.32751 -302.98577,779.84671 -303.84637,780.13331 C -304.58647,780.37971 -305.34737,781.38331 -305.53737,782.36361 C -305.75837,783.50361 -305.39807,783.98441 -304.53737,783.69791 C -303.79737,783.45141 -303.03647,782.44781 -302.84637,781.46751 z M -689.69183,776.97461 C -689.69183,773.85561 -691.10833,772.16241 -692.21693,773.95611 C -693.09593,775.37831 -691.92033,779.91561 -690.67283,779.91561 C -690.13333,779.91561 -689.69183,778.59211 -689.69183,776.97461 z M -528.15677,773.85871 C -527.79757,773.27751 -527.77957,771.70251 -528.11677,770.35871 C -528.84657,767.45101 -532.20257,767.09401 -536.74157,769.44121 C -541.26547,771.78061 -540.52117,773.74061 -534.94187,774.18051 C -532.32937,774.38651 -529.88097,774.63621 -529.50097,774.73531 C -529.12087,774.83441 -528.51597,774.44001 -528.15677,773.85871 z M -689.69183,766.97461 C -689.69183,766.45701 -690.14183,765.75551 -690.69183,765.41561 C -691.24183,765.07561 -691.69183,765.49911 -691.69183,766.35651 C -691.69183,767.21401 -691.24183,767.91561 -690.69183,767.91561 C -690.14183,767.91561 -689.69183,767.49211 -689.69183,766.97461 z M -303.61687,766.64061 C -303.74057,765.44491 -305.11217,765.67641 -305.54187,766.96561 C -305.76187,767.62561 -305.40187,767.98561 -304.74187,767.76561 C -304.08187,767.54561 -303.57567,767.03931 -303.61687,766.64061 z M -528.69187,763.71561 C -528.69187,762.10011 -528.98757,761.81131 -529.80477,762.62841 C -530.41687,763.24051 -530.61527,764.23051 -530.24577,764.82841 C -529.21137,766.50211 -528.69187,766.13011 -528.69187,763.71561 z M -366.87547,763.17291 C -367.26657,759.78271 -372.34057,756.76991 -373.81417,759.05281 C -374.42577,760.00031 -373.77457,761.25361 -371.67707,763.16561 C -367.85877,766.64631 -366.47447,766.64841 -366.87547,763.17291 z M -624.05993,762.83401 C -622.20743,761.68911 -620.69183,760.10821 -620.69183,759.32091 C -620.69183,757.74171 -611.23257,747.91561 -609.71237,747.91561 C -608.25877,747.91561 -601.69187,741.59681 -601.69187,740.19821 C -601.69187,739.52101 -600.44807,738.32371 -598.92787,737.53761 C -597.40757,736.75141 -593.13257,733.15071 -589.42787,729.53601 C -582.87917,723.14651 -582.69187,722.82411 -582.69187,717.93971 C -582.69187,715.17642 -583.02937,712.92452 -583.44187,712.93542 C -585.30287,712.98452 -609.47907,715.97262 -612.30517,716.50282 C -614.07417,716.83472 -615.74537,716.63812 -616.10517,716.05592 C -616.48697,715.43822 -615.21507,714.76692 -612.96967,714.40112 C -610.89187,714.06262 -606.94187,713.30072 -604.19187,712.70792 C -601.44187,712.11512 -595.36687,711.35692 -590.69187,711.02292 L -582.19187,710.41562 L -581.97187,698.41562 C -581.64677,680.69212 -579.86867,682.43802 -598.39887,682.28632 C -607.08507,682.21512 -615.54187,681.72592 -617.19187,681.19912 C -619.75233,680.38162 -618.79997,680.12652 -610.69187,679.45802 C -595.42597,678.19932 -586.34787,678.02932 -584.59147,678.96932 C -583.22257,679.70192 -582.87287,679.15452 -582.45827,675.63062 C -582.18557,673.31232 -582.04317,665.89012 -582.14177,659.13672 C -582.28787,649.12692 -582.63197,646.54692 -584.00377,645.17512 C -585.33967,643.83922 -589.13947,643.25742 -602.43917,642.35232 C -611.65317,641.72522 -619.41683,641.08912 -619.69183,640.93872 C -620.71563,640.37882 -610.98357,639.06072 -605.19187,638.97492 C -595.12597,638.82592 -591.07117,635.43512 -596.86857,632.01452 C -603.47767,628.11502 -606.63737,625.37962 -606.66437,623.53402 C -606.67947,622.49912 -608.82937,619.65212 -611.44187,617.20722 C -614.05437,614.76232 -618.72157,610.27102 -621.81343,607.22652 C -624.90533,604.18202 -627.65453,602.07902 -627.92283,602.55332 C -628.19113,603.02752 -628.46053,620.64752 -628.52153,641.70882 L -628.63233,680.00202 L -626.41213,680.89542 C -624.79733,681.54522 -624.65063,681.80612 -625.87443,681.85222 C -628.31453,681.94412 -628.51753,683.54492 -628.58323,703.22142 C -628.61603,713.01462 -628.83033,721.33961 -629.05963,721.72141 C -629.28883,722.10321 -629.18133,724.20631 -628.82053,726.39501 L -628.16463,730.37441 L -623.81703,730.06051 C -618.72597,729.69291 -618.92247,731.36101 -624.08423,732.32941 C -625.96223,732.68171 -627.78093,733.70521 -628.12573,734.60391 C -628.84333,736.47391 -628.63973,764.91561 -627.90873,764.91561 C -627.64433,764.91561 -625.91233,763.97891 -624.05993,762.83401 z M -597.87937,695.23242 C -597.15747,694.94362 -596.29507,694.97912 -595.96277,695.31142 C -595.63047,695.64372 -596.22107,695.88002 -597.27527,695.83662 C -598.44017,695.78862 -598.67717,695.55172 -597.87937,695.23242 z M -610.94187,689.25332 C -610.25437,688.97592 -609.12937,688.97592 -608.44187,689.25332 C -607.75437,689.53072 -608.31687,689.75772 -609.69187,689.75772 C -611.06687,689.75772 -611.62937,689.53072 -610.94187,689.25332 z M -611.69187,662.36612 C -612.51687,662.19162 -614.99187,661.71892 -617.19187,661.31582 L -621.19183,660.58282 L -618.19187,659.86752 C -613.42287,658.73042 -600.69187,658.78342 -600.69187,659.94032 C -600.69187,661.99362 -606.94037,663.37162 -611.69187,662.36612 z M -303.69187,760.35651 C -303.69187,758.90521 -304.12477,758.06501 -304.69187,758.41561 C -305.24187,758.75551 -305.69187,759.90701 -305.69187,760.97461 C -305.69187,762.04211 -305.24187,762.91561 -304.69187,762.91561 C -304.14187,762.91561 -303.69187,761.76401 -303.69187,760.35651 z M -367.81537,756.31181 C -366.76727,755.98401 -366.59657,754.69201 -367.09997,750.89731 C -367.46357,748.15611 -367.36217,745.12631 -366.87457,744.16441 C -366.38697,743.20261 -366.20107,739.34351 -366.46137,735.58881 C -366.88517,729.47641 -367.19917,728.64151 -369.46277,727.61021 L -371.99097,726.45831 L -369.59137,725.89161 C -367.23137,725.33421 -367.19187,725.13651 -367.19187,713.87022 L -367.19187,702.41562 L -388.44187,702.76872 C -402.12327,702.99602 -409.69187,702.76702 -409.69187,702.12572 C -409.69187,700.20282 -406.02567,699.76962 -386.69187,699.40792 L -367.19187,699.04312 L -367.19187,693.34072 C -367.19187,685.78842 -368.29067,685.09672 -377.71917,686.71352 C -381.64087,687.38602 -385.31207,687.65032 -385.87747,687.30092 C -387.85697,686.07752 -384.40987,685.10562 -375.62527,684.41032 C -365.62737,683.61902 -365.90287,683.93122 -366.36267,673.91562 C -366.52687,670.34062 -366.72117,656.48212 -366.79447,643.11902 C -366.90227,623.49422 -367.20337,618.54692 -368.36067,617.38962 C -372.04067,613.70972 -389.63187,619.05642 -391.33187,624.37152 C -392.16667,626.98162 -397.78397,632.25492 -409.08637,641.03862 C -411.74727,643.10642 -411.82797,643.34902 -410.08637,644.04352 C -408.31767,644.74882 -408.34137,644.84382 -410.44187,645.47392 C -413.10907,646.27402 -412.89817,644.99202 -413.23007,662.41562 C -413.54907,679.15792 -413.37947,680.14412 -410.38897,678.93922 C -409.18057,678.45232 -406.84187,677.74232 -405.19187,677.36152 C -403.54187,676.98062 -402.75437,676.46202 -403.44187,676.20892 C -404.12937,675.95592 -404.69187,675.11142 -404.69187,674.33222 C -404.69187,673.20212 -402.72007,672.92982 -394.94187,672.98582 C -378.49477,673.10442 -376.85207,675.97262 -392.79467,676.73482 C -399.85327,677.07232 -401.40917,677.43352 -401.31147,678.71182 C -401.22727,679.81312 -402.86217,680.69072 -406.83697,681.67792 L -412.48197,683.07992 L -413.02227,688.24772 C -413.45107,692.34992 -413.28967,711.83822 -412.79957,715.14082 C -412.74037,715.53972 -411.52467,715.42232 -410.09797,714.87982 C -402.54177,712.00702 -384.69187,710.63362 -384.69187,712.92512 C -384.69187,714.34532 -388.08797,715.04462 -399.53227,715.98122 C -405.76947,716.49162 -411.28197,717.16221 -411.78227,717.47141 C -412.28257,717.78061 -412.69187,719.09251 -412.69187,720.38671 C -412.69187,722.35261 -412.03387,722.85091 -408.69187,723.41561 C -404.52277,724.11991 -403.94107,724.76471 -405.79877,726.62251 C -406.60797,727.43171 -406.20457,728.18881 -404.29877,729.43751 C -402.86497,730.37691 -401.69187,731.71931 -401.69187,732.42041 C -401.69187,733.12161 -399.62867,734.66511 -397.10687,735.85051 C -393.10547,737.73141 -392.69007,738.20841 -393.84317,739.59781 C -394.97287,740.95901 -394.80397,741.42151 -392.67817,742.78751 C -391.31077,743.66621 -388.39187,746.24031 -386.19187,748.50771 C -383.99187,750.77511 -380.72937,753.19901 -378.94187,753.89421 C -377.15437,754.58941 -375.69187,755.76741 -375.69187,756.51191 C -375.69187,757.78851 -372.25677,757.70131 -367.81537,756.31181 z M -397.69187,666.41562 C -397.69187,665.16142 -395.76627,664.93272 -385.94187,665.02042 C -374.79187,665.11992 -374.39617,665.19262 -378.19187,666.44362 C -380.39187,667.16862 -385.67937,667.79642 -389.94187,667.83872 C -396.19827,667.90072 -397.69187,667.62652 -397.69187,666.41562 z M -396.19187,657.12382 C -395.64187,656.57762 -390.24187,655.88342 -384.19187,655.58122 C -372.09367,654.97672 -375.47037,656.21662 -389.19187,657.41702 C -394.48967,657.88052 -396.85417,657.78152 -396.19187,657.12382 z M -381.10987,646.04832 C -381.75907,644.99792 -373.36037,643.72182 -371.21547,644.54492 C -370.37747,644.86642 -369.69187,645.53142 -369.69187,646.02252 C -369.69187,647.17232 -380.40027,647.19642 -381.10987,646.04832 z M -689.69183,744.91561 C -689.69183,743.88051 -690.14183,742.75551 -690.69183,742.41561 C -691.27683,742.05401 -691.69183,743.09151 -691.69183,744.91561 C -691.69183,746.73961 -691.27683,747.77711 -690.69183,747.41561 C -690.14183,747.07561 -689.69183,745.95061 -689.69183,744.91561 z M -303.69187,746.35651 C -303.69187,745.49911 -304.14187,745.07561 -304.69187,745.41561 C -305.24187,745.75551 -305.69187,746.45701 -305.69187,746.97461 C -305.69187,747.49211 -305.24187,747.91561 -304.69187,747.91561 C -304.14187,747.91561 -303.69187,747.21401 -303.69187,746.35651 z M -689.69183,736.41561 C -689.69183,733.86241 -691.05673,733.07891 -692.22143,734.96341 C -693.05333,736.30941 -692.06533,738.91561 -690.72323,738.91561 C -690.15593,738.91561 -689.69183,737.79061 -689.69183,736.41561 z M -303.79157,733.16561 C -303.88057,729.81881 -303.97737,729.68441 -304.69187,731.91561 C -305.83667,735.49011 -305.83667,736.91561 -304.69187,736.91561 C -304.14187,736.91561 -303.73677,735.22811 -303.79157,733.16561 z M -303.29567,720.32531 C -302.56247,718.41471 -303.46177,716.65532 -304.76097,717.45831 C -305.95077,718.19361 -305.98237,721.91561 -304.79887,721.91561 C -304.30777,721.91561 -303.63127,721.19991 -303.29567,720.32531 z M -420.76887,684.41562 C -420.73877,668.19062 -420.91367,654.91562 -421.15757,654.91562 C -421.40147,654.91562 -422.68837,655.92812 -424.01737,657.16562 C -425.34637,658.40312 -427.50427,660.32742 -428.81277,661.44192 C -430.12127,662.55632 -433.04917,665.52392 -435.31917,668.03642 C -437.58917,670.54892 -440.83377,673.59252 -442.52937,674.79982 C -444.22507,676.00722 -446.60137,678.38412 -447.81027,680.08182 L -450.00817,683.16842 L -447.82397,684.81592 C -446.12207,686.09972 -445.90547,686.72912 -446.84287,687.66662 C -448.01377,688.83752 -446.57637,689.72582 -439.45877,692.23012 C -438.38607,692.60752 -437.95527,693.43832 -438.32837,694.41052 C -439.01037,696.18782 -434.15627,701.35692 -428.88967,704.46172 C -426.64147,705.78712 -425.73397,706.96842 -426.04637,708.16292 C -426.41367,709.56762 -422.69247,713.91562 -421.12287,713.91562 C -420.95827,713.91562 -420.79897,700.64062 -420.76887,684.41562 z M -689.69183,710.97462 C -689.69183,710.45702 -690.14183,709.75552 -690.69183,709.41562 C -691.24183,709.07562 -691.69183,709.49912 -691.69183,710.35652 C -691.69183,711.21402 -691.24183,711.91562 -690.69183,711.91562 C -690.14183,711.91562 -689.69183,711.49212 -689.69183,710.97462 z M -570.61617,707.32822 C -569.28287,705.90522 -566.84187,704.15322 -565.19187,703.43502 C -563.54187,702.71672 -561.29187,701.41452 -560.19187,700.54132 C -557.09437,698.08232 -559.97277,696.71482 -567.05757,697.27942 C -574.73097,697.89092 -575.05987,698.26802 -574.81037,706.16562 C -574.67047,710.59392 -573.88117,710.81272 -570.61617,707.32822 z M -303.19477,701.92452 C -302.46927,699.63872 -303.38647,697.60882 -304.76097,698.45832 C -305.97437,699.20822 -305.97297,703.91562 -304.75927,703.91562 C -304.24637,703.91562 -303.54227,703.01962 -303.19477,701.92452 z M -568.41417,690.91562 C -567.71137,690.91562 -566.35897,691.82352 -565.40877,692.93332 C -563.61907,695.02342 -562.33977,694.99852 -554.88157,692.72832 C -552.38277,691.96762 -551.03647,690.62012 -549.39007,687.23122 C -547.21817,682.76072 -547.21737,682.73572 -549.20047,681.28112 C -550.29577,680.47772 -551.06907,679.04762 -550.91887,678.10312 C -550.76337,677.12482 -552.78627,674.27752 -555.61937,671.48702 C -560.08767,667.08592 -561.13117,666.54612 -565.89237,666.17262 C -572.01617,665.69232 -574.88707,667.22752 -574.86447,670.97062 C -574.78357,684.34552 -574.53067,691.69542 -574.10237,693.11442 C -573.63377,694.66702 -573.42187,694.64552 -571.64077,692.86442 C -570.56887,691.79252 -569.11687,690.91562 -568.41417,690.91562 z M -567.69187,679.91562 C -565.71807,678.64002 -558.98027,678.64002 -558.19187,679.91562 C -557.80657,680.53902 -559.76137,680.90982 -563.38287,680.90022 C -567.50237,680.88942 -568.75567,680.60302 -567.69187,679.91562 z M -689.69183,686.91562 C -689.69183,683.76822 -691.34183,682.83982 -692.33513,685.42832 C -692.83093,686.72022 -691.21753,689.91562 -690.06943,689.91562 C -689.86173,689.91562 -689.69183,688.56562 -689.69183,686.91562 z M -303.17977,686.09442 C -303.97437,685.29982 -305.69367,687.10362 -305.08317,688.09142 C -304.66797,688.76332 -304.15267,688.66102 -303.62127,687.80132 C -303.16997,687.07102 -302.97127,686.30292 -303.17977,686.09442 z M -303.69187,677.85652 C -303.69187,676.72412 -304.14187,676.07562 -304.69187,676.41562 C -305.24187,676.75552 -305.69187,677.68202 -305.69187,678.47462 C -305.69187,679.26712 -305.24187,679.91562 -304.69187,679.91562 C -304.14187,679.91562 -303.69187,678.98902 -303.69187,677.85652 z M -304.08777,669.18642 C -305.10427,668.16992 -305.94297,669.70032 -305.10897,671.04982 C -304.47897,672.06922 -304.24337,672.07002 -303.90467,671.05382 C -303.67307,670.35902 -303.75547,669.51872 -304.08777,669.18642 z M -568.60957,663.37302 C -565.17827,661.59862 -565.38167,660.88622 -570.11737,658.09212 L -573.54917,656.06722 L -574.57837,659.01962 C -576.51807,664.58392 -574.20857,666.26832 -568.60957,663.37302 z M -689.69183,659.91562 C -689.69183,658.26562 -690.14183,656.91562 -690.69183,656.91562 C -691.24183,656.91562 -691.69183,658.26562 -691.69183,659.91562 C -691.69183,661.56562 -691.24183,662.91562 -690.69183,662.91562 C -690.14183,662.91562 -689.69183,661.56562 -689.69183,659.91562 z M -303.69187,647.35652 C -303.69187,646.49912 -304.14187,646.07562 -304.69187,646.41562 C -305.24187,646.75552 -305.69187,647.45702 -305.69187,647.97462 C -305.69187,648.49212 -305.24187,648.91562 -304.69187,648.91562 C -304.14187,648.91562 -303.69187,648.21402 -303.69187,647.35652 z M -689.69183,634.41562 C -689.69183,633.10552 -690.14183,631.75552 -690.69183,631.41562 C -691.28813,631.04702 -691.69183,632.25822 -691.69183,634.41562 C -691.69183,636.57292 -691.28813,637.78412 -690.69183,637.41562 C -690.14183,637.07562 -689.69183,635.72562 -689.69183,634.41562 z M -494.99807,632.97852 C -494.71947,631.91312 -493.29917,630.58892 -491.84177,630.03582 C -485.26067,627.53842 -482.80007,622.95732 -488.00097,622.88512 C -491.10317,622.84212 -488.31047,621.37282 -483.47697,620.50512 C -478.68287,619.64432 -477.80467,618.10212 -480.79807,615.80062 L -483.19187,613.96002 L -480.52367,613.93782 C -475.61667,613.89692 -474.69187,613.00992 -474.69187,608.34372 C -474.69187,602.53312 -476.06197,601.92852 -489.61207,601.76002 C -495.67147,601.68472 -500.42927,601.29962 -500.18487,600.90422 C -499.47997,599.76362 -491.87257,598.60562 -483.33077,598.33892 C -479.00717,598.20382 -475.05497,597.67862 -474.54797,597.17172 C -472.89577,595.51942 -474.81937,592.95772 -478.55177,591.83942 C -483.88297,590.24212 -486.38777,588.21142 -484.88297,586.70662 C -483.98057,585.80432 -482.67847,585.77292 -479.65247,586.58062 C -476.10127,587.52842 -475.50517,587.43522 -474.62687,585.79412 C -474.01517,584.65112 -473.96567,582.67402 -474.49857,580.67392 C -475.34427,577.50012 -475.49427,577.42292 -480.27937,577.69682 C -482.98127,577.85152 -486.31687,577.69532 -487.69187,577.34982 C -489.84417,576.80892 -489.35737,576.45892 -484.19187,574.83332 C -480.89187,573.79472 -477.45617,572.93842 -476.55687,572.93032 C -475.16197,572.91772 -474.90977,571.48352 -474.83947,563.16562 C -474.79427,557.80312 -474.48727,547.56562 -474.15737,540.41562 C -473.66647,529.77422 -473.82807,527.05272 -475.04847,525.41562 C -476.20937,523.85812 -476.27917,523.08366 -475.36407,521.91566 C -474.53877,520.86226 -474.33817,516.54506 -474.69037,507.41566 L -475.19187,494.41566 L -483.83567,494.76666 C -493.16037,495.14546 -497.98177,494.34656 -495.57407,492.82156 C -494.81387,492.34016 -491.94187,491.90776 -489.19187,491.86066 C -486.44187,491.81356 -483.29187,491.40826 -482.19187,490.95996 C -480.31477,490.19486 -480.34547,490.10866 -482.69187,489.55586 C -485.97627,488.78216 -519.33887,489.22766 -520.16657,490.05626 C -521.28917,491.18006 -521.45817,509.94206 -520.35187,510.62576 C -519.78477,510.97626 -516.81687,511.15426 -513.75637,511.02146 C -508.65297,510.79986 -508.35597,510.90186 -510.17127,512.25206 C -512.03287,513.63666 -511.86977,513.76636 -507.43147,514.43196 C -500.33357,515.49636 -502.76817,516.91566 -511.69187,516.91566 C -516.02697,516.91566 -519.83957,517.34546 -520.16427,517.87086 C -520.61597,518.60176 -520.95957,560.82562 -520.64477,576.91562 C -520.47317,585.68842 -520.93217,593.41732 -521.75307,595.57652 C -522.27727,596.95532 -522.38087,598.60812 -521.98317,599.24952 C -521.58547,599.89082 -521.14937,603.34062 -521.01397,606.91562 C -520.81277,612.22962 -520.38657,613.67222 -518.67797,614.82202 C -517.52847,615.59562 -515.96347,617.72322 -515.20017,619.55012 C -513.69817,623.14492 -509.38297,626.27872 -503.44187,628.08932 C -499.49467,629.29222 -498.66697,630.58502 -501.21747,631.56372 C -502.39377,632.01512 -502.48027,632.46572 -501.59497,633.53232 C -499.85277,635.63162 -495.59847,635.27442 -494.99807,632.97852 z M -499.19187,567.06182 C -502.66077,566.45612 -501.70517,566.18402 -491.99507,565.01212 C -480.91147,563.67452 -476.36807,563.99172 -478.34187,565.96552 C -479.59967,567.22342 -493.94627,567.97772 -499.19187,567.06182 z M -497.44187,536.19932 C -495.92937,535.97022 -493.45437,535.97022 -491.94187,536.19932 C -490.42937,536.42842 -491.66687,536.61592 -494.69187,536.61592 C -497.71687,536.61592 -498.95437,536.42842 -497.44187,536.19932 z M -482.93027,522.20836 C -481.68637,521.96916 -479.88637,521.97826 -478.93027,522.22856 C -477.97417,522.47886 -478.99187,522.67456 -481.19187,522.66346 C -483.39187,522.65236 -484.17417,522.44756 -482.93027,522.20836 z M -493.69187,508.94126 C -493.69187,507.45736 -488.14617,504.91156 -484.99157,504.94746 C -482.31377,504.97786 -482.27637,505.04316 -484.13307,506.44746 C -485.20067,507.25496 -485.65067,507.96046 -485.13307,508.01526 C -483.61547,508.17606 -488.97887,509.70686 -491.44187,509.81596 C -492.67937,509.87076 -493.69187,509.47716 -493.69187,508.94126 z M -302.86857,631.58272 C -302.67717,630.59592 -303.18737,629.91562 -304.11857,629.91562 C -305.04617,629.91562 -305.69187,630.77062 -305.69187,631.99892 C -305.69187,634.43592 -303.35517,634.09152 -302.86857,631.58272 z M -303.54187,621.41562 C -303.54187,620.89312 -304.02567,620.30432 -304.61687,620.10722 C -305.20817,619.91012 -305.69187,620.49892 -305.69187,621.41562 C -305.69187,622.33222 -305.20817,622.92102 -304.61687,622.72392 C -304.02567,622.52682 -303.54187,621.93812 -303.54187,621.41562 z M -366.69187,608.35652 C -366.69187,603.62782 -367.04947,601.91562 -368.03687,601.91562 C -369.67187,601.91562 -372.93447,605.33972 -372.09717,606.17692 C -371.76767,606.50642 -373.37117,607.73162 -375.66047,608.89952 C -377.94967,610.06742 -379.64947,611.54292 -379.43757,612.17842 C -379.05657,613.32162 -368.88877,615.84472 -367.44187,615.15502 C -367.02937,614.95842 -366.69187,611.89912 -366.69187,608.35652 z M -303.29567,613.32532 C -302.56247,611.41472 -303.46177,609.65532 -304.76097,610.45832 C -305.95077,611.19362 -305.98237,614.91562 -304.79887,614.91562 C -304.30777,614.91562 -303.63127,614.19992 -303.29567,613.32532 z M -689.69183,608.91562 C -689.69183,606.78052 -690.14183,604.75552 -690.69183,604.41562 C -691.30873,604.03432 -691.69183,605.75822 -691.69183,608.91562 C -691.69183,612.07292 -691.30873,613.79682 -690.69183,613.41562 C -690.14183,613.07562 -689.69183,611.05062 -689.69183,608.91562 z M -303.69187,605.35652 C -303.69187,604.49912 -304.14187,604.07562 -304.69187,604.41562 C -305.24187,604.75552 -305.69187,605.45702 -305.69187,605.97462 C -305.69187,606.49212 -305.24187,606.91562 -304.69187,606.91562 C -304.14187,606.91562 -303.69187,606.21402 -303.69187,605.35652 z M -528.19377,594.66562 C -528.54787,575.53362 -528.09697,577.26632 -532.92217,576.49472 C -536.10337,575.98602 -536.78537,575.58282 -535.67217,574.86872 C -534.85807,574.34642 -533.00917,574.16702 -531.56367,574.47002 C -529.03937,574.99922 -528.91187,574.81142 -528.33657,569.71832 C -528.00717,566.80182 -527.90147,556.34672 -528.10177,546.48482 C -528.42407,530.61072 -528.67277,528.40272 -530.26997,527.23482 C -531.26227,526.50922 -532.66317,525.91562 -533.38307,525.91562 C -534.10287,525.91562 -534.69187,525.46562 -534.69187,524.91562 C -534.69187,524.36562 -533.34187,523.91562 -531.69187,523.91562 L -528.69187,523.91562 L -528.49057,516.66566 C -528.13707,503.93836 -528.66397,491.54346 -529.59827,490.60936 C -530.61327,489.59426 -568.90417,488.50116 -572.43177,489.38656 C -574.05297,489.79336 -574.69187,490.68806 -574.69187,492.55126 C -574.69187,494.78886 -574.38007,495.05046 -572.44187,494.43876 C -567.78937,492.97036 -565.00857,492.77766 -561.65107,493.69116 L -558.19187,494.63226 L -563.19187,495.31616 C -573.84177,496.77286 -574.12747,496.94856 -574.78857,502.45036 C -575.61267,509.30816 -575.17577,510.07406 -570.82587,509.39726 L -567.19187,508.83186 L -570.92597,510.88946 L -574.66007,512.94706 L -574.56627,533.92552 L -574.47257,554.90412 L -570.33227,554.41982 L -566.19187,553.93552 L -570.03287,555.59582 C -573.54047,557.11212 -573.82157,557.51712 -573.27247,560.26292 C -572.94167,561.91672 -572.51447,563.42632 -572.32317,563.61772 C -572.13177,563.80902 -569.21147,564.45242 -565.83357,565.04742 C -559.67157,566.13282 -557.66107,568.15122 -561.69187,569.20532 C -564.49947,569.93952 -564.17977,571.64662 -560.85397,573.68032 C -559.29307,574.63472 -558.19677,575.95172 -558.41767,576.60692 C -558.88457,577.99132 -553.71497,580.91562 -550.80057,580.91562 C -549.70577,580.91562 -548.53187,581.36562 -548.19187,581.91562 C -547.85197,582.46562 -548.27547,582.91562 -549.13287,582.91562 C -551.44967,582.91562 -551.01917,585.65872 -548.44187,587.31852 C -547.20437,588.11552 -544.50437,589.07602 -542.44187,589.45292 C -538.48697,590.17562 -537.97587,590.79962 -539.82467,592.64832 C -541.60987,594.43352 -540.13907,596.64682 -535.64377,598.94012 C -533.36367,600.10342 -531.75087,601.30792 -532.05977,601.61682 C -532.94827,602.50532 -530.76177,605.91562 -529.30357,605.91562 C -528.27877,605.91562 -528.03197,603.41352 -528.19377,594.66562 z M -553.19187,560.91562 C -554.76327,560.24032 -554.33457,560.04432 -551.19187,560.00122 C -548.99187,559.97092 -546.51687,560.38242 -545.69187,560.91562 C -543.75127,562.16972 -550.27327,562.16972 -553.19187,560.91562 z M -562.44207,553.33242 C -562.12137,553.01172 -558.61907,552.34252 -554.65917,551.84522 C -547.40217,550.93402 -544.27827,551.40522 -546.83517,553.02522 C -548.33007,553.97252 -563.37837,554.26872 -562.44207,553.33242 z M -570.61147,537.82172 C -574.47437,536.27762 -571.95857,535.04192 -561.32467,533.26012 C -554.01007,532.03452 -551.29477,531.91262 -550.43597,532.77142 C -546.64717,536.56032 -563.32357,540.73472 -570.61147,537.82172 z M -550.19187,510.97006 C -552.70227,510.37676 -552.21257,510.18956 -547.19187,509.82306 C -540.17227,509.31066 -535.69187,509.78056 -535.69187,511.02916 C -535.69187,512.05556 -545.77237,512.01446 -550.19187,510.97006 z M -569.69187,502.61936 C -569.41687,502.33696 -563.64187,501.38866 -556.85847,500.51186 C -543.95437,498.84396 -532.61577,499.23946 -534.66237,501.28606 C -535.32237,501.94606 -542.46127,502.51706 -552.96807,502.75036 C -562.44117,502.96056 -569.96687,502.90166 -569.69187,502.61936 z M -464.69187,603.79752 C -464.69187,603.24752 -465.14187,603.07562 -465.69187,603.41562 C -466.24187,603.75552 -466.69187,604.48362 -466.69187,605.03362 C -466.69187,605.58362 -466.24187,605.75552 -465.69187,605.41562 C -465.14187,605.07562 -464.69187,604.34752 -464.69187,603.79752 z M -457.69187,597.05662 C -455.42497,595.99372 -454.19187,594.71882 -454.19187,593.43792 C -454.19187,592.13442 -452.82837,590.77092 -450.19187,589.43792 C -447.26097,587.95602 -446.21257,586.81972 -446.26907,585.18612 C -446.32637,583.53332 -445.51827,582.68332 -443.14537,581.90022 C -440.19737,580.92732 -431.69187,572.21732 -431.69187,570.17142 C -431.69187,569.68442 -430.11687,568.53492 -428.19187,567.61692 C -423.86237,565.55232 -423.63117,563.07772 -427.69187,562.26562 C -432.19767,561.36442 -431.30387,560.06442 -425.94187,559.72032 L -421.19187,559.41562 L -421.19187,553.91562 L -421.19187,548.41562 L -428.69187,548.68062 C -432.81687,548.82652 -437.75377,548.67492 -439.66267,548.34392 C -442.81637,547.79712 -442.95337,547.64062 -441.16267,546.63012 C -440.07877,546.01862 -435.17607,545.39492 -430.26787,545.24432 C -421.75317,544.98302 -418.92957,543.95812 -420.35777,541.64712 C -420.65147,541.17192 -420.82987,531.54202 -420.75427,520.24716 C -420.65857,505.95306 -420.96937,499.28626 -421.77677,498.31336 C -423.29807,496.48026 -428.72337,496.52976 -432.32757,498.40946 C -435.45887,500.04256 -452.69187,500.58646 -452.69187,499.05226 C -452.69187,497.82676 -442.21137,495.98366 -435.69187,496.06266 C -426.68797,496.17176 -421.22257,495.29116 -420.89777,493.67896 C -420.66667,492.53186 -422.38187,492.08046 -428.89777,491.57326 C -446.87697,490.17376 -463.47547,491.36586 -466.37447,494.26486 C -466.80327,494.69366 -467.19317,501.15396 -467.24087,508.62126 C -467.32217,521.31686 -467.20017,522.23146 -465.36197,522.71216 C -463.43787,523.21522 -463.43647,523.25562 -465.29407,524.61472 C -467.06307,525.90902 -467.19187,527.57242 -467.19187,549.11812 C -467.19187,570.97712 -467.08877,572.25992 -465.29407,572.72952 C -463.66207,573.15662 -463.60477,573.37952 -464.88497,574.32092 C -465.70387,574.92292 -466.68047,577.73702 -467.05517,580.57432 C -467.72077,585.61362 -467.65257,585.80242 -464.11047,588.72212 L -460.48427,591.71112 L -463.58907,592.39302 C -465.71567,592.86002 -466.88067,593.81952 -467.28697,595.43842 C -468.48617,600.21622 -465.50347,600.71922 -457.69187,597.05662 z M -455.44187,567.20982 C -456.67937,566.97152 -457.69187,566.35782 -457.69187,565.84602 C -457.69187,565.33432 -453.75437,564.92992 -448.94187,564.94742 C -441.02997,564.97612 -440.37787,565.11982 -442.13307,566.44742 C -443.97697,567.84212 -450.28357,568.20342 -455.44187,567.20982 z M -447.69187,557.91562 C -447.69187,557.36562 -445.89187,556.91562 -443.69187,556.91562 C -441.49187,556.91562 -439.69187,557.36562 -439.69187,557.91562 C -439.69187,558.46562 -441.49187,558.91562 -443.69187,558.91562 C -445.89187,558.91562 -447.69187,558.46562 -447.69187,557.91562 z M -447.44707,531.66562 C -446.96947,530.21472 -438.82927,529.47962 -433.76377,530.42992 C -428.24377,531.46552 -432.12277,532.88272 -440.52527,532.90022 C -445.94987,532.91162 -447.75147,532.59022 -447.44707,531.66562 z M -453.92397,520.19086 C -452.12667,519.96836 -449.42667,519.97296 -447.92397,520.20106 C -446.42137,520.42926 -447.89187,520.61136 -451.19187,520.60576 C -454.49187,520.60016 -455.72137,520.41346 -453.92397,520.19086 z M -440.15227,519.97976 C -440.89307,518.78106 -432.56417,517.50396 -429.77617,518.38886 C -428.61387,518.75776 -427.92097,519.47716 -428.23637,519.98766 C -428.98647,521.20126 -439.40157,521.19446 -440.15227,519.97976 z M -689.69183,597.41562 C -689.69183,596.59062 -690.14183,595.91562 -690.69183,595.91562 C -691.24183,595.91562 -691.69183,596.59062 -691.69183,597.41562 C -691.69183,598.24062 -691.24183,598.91562 -690.69183,598.91562 C -690.14183,598.91562 -689.69183,598.24062 -689.69183,597.41562 z M -302.84637,596.46752 C -302.62537,595.32752 -302.98577,594.84672 -303.84637,595.13332 C -304.58647,595.37972 -305.34737,596.38332 -305.53737,597.36362 C -305.75837,598.50362 -305.39807,598.98442 -304.53737,598.69792 C -303.79737,598.45142 -303.03647,597.44782 -302.84637,596.46752 z M -689.69183,590.47462 C -689.69183,590.23202 -690.14183,589.75552 -690.69183,589.41562 C -691.24183,589.07562 -691.69183,589.27412 -691.69183,589.85652 C -691.69183,590.43902 -691.24183,590.91562 -690.69183,590.91562 C -690.14183,590.91562 -689.69183,590.71712 -689.69183,590.47462 z M -303.19477,582.92452 C -302.46927,580.63872 -303.38647,578.60882 -304.76097,579.45832 C -305.97437,580.20822 -305.97297,584.91562 -304.75927,584.91562 C -304.24637,584.91562 -303.54227,584.01962 -303.19477,582.92452 z M -661.07153,568.72082 C -660.09443,567.13992 -664.81193,562.95992 -668.98393,561.70992 C -672.60693,560.62442 -672.75903,560.43652 -671.04383,559.16572 C -669.28673,557.86392 -669.35923,557.64292 -672.45763,554.85462 C -674.52103,552.99762 -676.81503,551.91562 -678.68853,551.91562 C -682.63753,551.91562 -682.91303,553.28102 -681.85383,567.60632 C -681.70113,569.67102 -681.53373,569.71442 -678.94183,568.36242 C -675.40743,566.51872 -674.06123,566.57552 -669.19183,568.77402 C -665.21913,570.56762 -662.20073,570.54792 -661.07153,568.72082 z M -303.61687,565.64062 C -303.74057,564.44492 -305.11217,564.67642 -305.54187,565.96562 C -305.76187,566.62562 -305.40187,566.98562 -304.74187,566.76562 C -304.08187,566.54562 -303.57567,566.03932 -303.61687,565.64062 z M -689.69183,556.41562 C -689.69183,555.59062 -690.14183,554.91562 -690.69183,554.91562 C -691.24183,554.91562 -691.69183,555.59062 -691.69183,556.41562 C -691.69183,557.24062 -691.24183,557.91562 -690.69183,557.91562 C -690.14183,557.91562 -689.69183,557.24062 -689.69183,556.41562 z M -303.69187,553.91562 C -303.69187,553.36562 -303.89037,552.91562 -304.13287,552.91562 C -304.37547,552.91562 -304.85197,553.36562 -305.19187,553.91562 C -305.53187,554.46562 -305.33337,554.91562 -304.75097,554.91562 C -304.16847,554.91562 -303.69187,554.46562 -303.69187,553.91562 z M -582.05277,533.47442 C -581.67627,511.81646 -581.63547,511.92056 -590.51337,511.90696 C -598.85067,511.89416 -606.72607,510.77996 -606.06297,509.70706 C -605.74287,509.18906 -600.28287,508.87956 -593.83817,509.01406 L -582.19187,509.25706 L -582.15127,500.83636 C -582.12887,496.20496 -582.31317,491.79146 -582.56077,491.02866 C -582.93107,489.88806 -585.51417,489.76686 -597.10147,490.34666 C -604.85117,490.73436 -613.01357,491.39396 -615.24007,491.81246 C -618.19497,492.36776 -619.63763,492.19916 -620.58213,491.18796 C -621.30603,490.41316 -623.26163,489.93776 -625.02023,490.10916 L -628.16433,490.41566 L -628.48843,497.16566 C -628.78003,503.23686 -628.62223,503.91566 -626.91893,503.91566 C -624.35563,503.91566 -623.48713,504.96396 -624.76993,506.50966 C -625.51883,507.41206 -625.50953,508.38776 -624.73833,509.82876 C -622.78343,513.48146 -619.75023,514.29286 -608.94187,514.05446 C -598.64227,513.82726 -594.91157,515.18416 -602.69187,516.32776 C -604.89187,516.65106 -608.49187,517.18016 -610.69187,517.50356 C -615.53717,518.21566 -615.80597,519.30856 -611.44187,520.55306 C -608.51247,521.38836 -608.16157,521.89626 -607.88417,525.70182 C -607.63297,529.14922 -607.06737,530.18712 -604.80187,531.35872 C -603.27577,532.14792 -600.17417,534.34172 -597.90927,536.23392 C -595.64447,538.12612 -592.08157,540.00442 -589.99167,540.40772 C -586.30507,541.11942 -586.26637,541.17002 -588.69187,542.10842 L -591.19187,543.07572 L -587.94187,545.81842 C -586.15437,547.32702 -584.69187,549.24092 -584.69187,550.07172 C -584.69187,551.77682 -583.61137,553.16842 -582.86607,552.42302 C -582.59517,552.15222 -582.22917,543.62532 -582.05277,533.47442 z M -600.19187,523.91562 C -599.85197,523.36562 -596.78787,522.92246 -593.38287,522.93096 C -589.01667,522.94176 -587.63407,523.23192 -588.69187,523.91562 C -590.71537,525.22322 -601.00007,525.22322 -600.19187,523.91562 z M -410.15677,551.30052 C -408.80107,550.41232 -407.69187,548.87622 -407.69187,547.88702 C -407.69187,546.41482 -408.19087,546.22092 -410.44187,546.81812 C -412.44707,547.35012 -413.27757,548.27472 -413.50837,550.23162 C -413.87677,553.35712 -413.48577,553.48182 -410.15677,551.30052 z M -679.69183,548.41562 C -679.69183,547.59062 -680.36683,546.91562 -681.19183,546.91562 C -682.01683,546.91562 -682.69183,547.59062 -682.69183,548.41562 C -682.69183,549.24062 -682.01683,549.91562 -681.19183,549.91562 C -680.36683,549.91562 -679.69183,549.24062 -679.69183,548.41562 z M -406.89457,543.02052 C -401.07507,541.01052 -393.12957,534.74192 -392.27567,531.48712 C -391.97677,530.34772 -390.14817,528.39892 -388.21207,527.15642 C -386.27597,525.91382 -384.68907,524.33882 -384.68557,523.65642 C -384.68207,522.97396 -383.27377,521.61556 -381.55587,520.63766 C -378.55357,518.92866 -378.49997,518.78516 -380.17447,516.93486 C -381.85117,515.08216 -381.80917,514.98696 -379.05417,514.39366 C -374.16557,513.34076 -371.69187,512.01916 -371.69187,510.46006 C -371.69187,509.63596 -370.54497,508.21016 -369.14307,507.29166 C -366.92877,505.84076 -366.63357,505.01766 -366.89307,501.01866 L -367.19187,496.41566 L -372.19187,495.86626 C -376.96827,495.34136 -377.07367,495.26606 -374.54927,494.18176 C -373.09577,493.55746 -370.95827,493.29466 -369.79927,493.59776 C -368.63917,493.90116 -367.69187,493.67446 -367.69187,493.09356 C -367.69187,492.51306 -369.82937,491.67306 -372.44187,491.22686 C -378.58697,490.17736 -411.28047,490.16926 -412.32727,491.21696 C -413.72297,492.61386 -413.77737,545.12132 -412.38287,544.88292 C -412.27787,544.86502 -409.80807,544.02692 -406.89457,543.02052 z M -393.44187,514.22626 C -392.47937,513.97476 -390.90437,513.97476 -389.94187,514.22626 C -388.97937,514.47786 -389.76687,514.68366 -391.69187,514.68366 C -393.61687,514.68366 -394.40437,514.47786 -393.44187,514.22626 z M -635.69183,497.47466 C -635.69183,495.88196 -637.50623,494.39666 -638.38193,495.27236 C -639.20453,496.09496 -637.92043,498.91566 -636.72323,498.91566 C -636.15593,498.91566 -635.69183,498.26716 -635.69183,497.47466 z M -357.23457,497.98476 C -356.91817,497.47276 -357.06947,496.80026 -357.57077,496.49046 C -358.07217,496.18066 -358.74037,496.59956 -359.05577,497.42136 C -359.67747,499.04146 -358.17497,499.50626 -357.23457,497.98476 z M -252.70647,929.40061 C -254.56427,927.48381 -255.63017,925.91561 -255.07517,925.91561 C -253.78287,925.91561 -248.17517,931.73221 -248.83317,932.39011 C -249.10567,932.66261 -250.84867,931.31731 -252.70647,929.40061 z M -273.65627,908.45121 C -282.14847,899.94581 -288.85897,892.74931 -288.56867,892.45901 C -288.18667,892.07691 -266.07987,913.64341 -256.77527,923.47531 C -256.54607,923.71741 -256.77647,923.91561 -257.28737,923.91561 C -257.79817,923.91561 -265.16417,916.95661 -273.65627,908.45121 z M -292.69187,888.85651 C -292.69187,888.27411 -292.24187,888.07561 -291.69187,888.41561 C -291.14187,888.75551 -290.69187,889.23201 -290.69187,889.47461 C -290.69187,889.71711 -291.14187,889.91561 -291.69187,889.91561 C -292.24187,889.91561 -292.69187,889.43901 -292.69187,888.85651 z M -710.76753,471.16566 L -713.19183,468.41566 L -710.44183,470.83996 C -707.87153,473.10586 -707.23323,473.91566 -708.01753,473.91566 C -708.19663,473.91566 -709.43413,472.67816 -710.76753,471.16566 z M -722.44183,460.00246 C -729.57893,453.25196 -731.38373,450.89716 -727.94183,452.82606 C -725.54463,454.16946 -713.58953,466.98016 -714.81943,466.88766 C -715.02423,466.87226 -718.45433,463.77386 -722.44183,460.00246 z M -748.49403,434.01836 C -757.40283,425.27486 -764.69183,417.79476 -764.69183,417.39596 C -764.69183,416.15816 -761.61093,418.93926 -749.19193,431.38746 C -737.21203,443.39556 -731.12363,449.91566 -731.89043,449.91566 C -732.11353,449.91566 -739.58523,442.76186 -748.49403,434.01836 z M -773.94183,408.51716 C -780.55383,402.29876 -781.95923,400.49206 -779.42923,401.46296 C -778.30833,401.89306 -766.10213,414.95316 -766.87973,414.89046 C -767.05133,414.87666 -770.22933,412.00866 -773.94183,408.51716 z M -785.76753,396.16566 L -788.19183,393.41566 L -785.44183,395.83996 C -782.87153,398.10586 -782.23323,398.91566 -783.01753,398.91566 C -783.19663,398.91566 -784.43413,397.67816 -785.76753,396.16566 z M -791.69183,390.91566 C -791.69183,390.36566 -791.24183,389.91566 -790.69183,389.91566 C -790.14183,389.91566 -789.69183,390.36566 -789.69183,390.91566 C -789.69183,391.46566 -790.14183,391.91566 -790.69183,391.91566 C -791.24183,391.91566 -791.69183,391.46566 -791.69183,390.91566 z "
         id="path5203" />
    </g>
  </g>
</svg>
