<?xml version="1.0" encoding="UTF-8" standalone="no"?>
<!-- Created with Inkscape (http://www.inkscape.org/) -->

<svg
   xmlns:dc="http://purl.org/dc/elements/1.1/"
   xmlns:cc="http://creativecommons.org/ns#"
   xmlns:rdf="http://www.w3.org/1999/02/22-rdf-syntax-ns#"
   xmlns:svg="http://www.w3.org/2000/svg"
   xmlns="http://www.w3.org/2000/svg"
   xmlns:xlink="http://www.w3.org/1999/xlink"
   xmlns:sodipodi="http://sodipodi.sourceforge.net/DTD/sodipodi-0.dtd"
   xmlns:inkscape="http://www.inkscape.org/namespaces/inkscape"
   width="200"
   height="200"
   id="svg4152"
   version="1.1"
   inkscape:version="0.48.0 r9654"
   sodipodi:docname="column.svg">
  <defs
     id="defs4154">
    <linearGradient
       id="linearGradient6306">
      <stop
         style="stop-color:#513710;stop-opacity:1;"
         offset="0"
         id="stop6308" />
      <stop
         style="stop-color:#513710;stop-opacity:0;"
         offset="1"
         id="stop6310" />
    </linearGradient>
    <linearGradient
       id="linearGradient6152">
      <stop
         style="stop-color:#313131;stop-opacity:1;"
         offset="0"
         id="stop6154" />
      <stop
         style="stop-color:#1c1a17;stop-opacity:1;"
         offset="1"
         id="stop6156" />
    </linearGradient>
    <linearGradient
       id="linearGradient6138">
      <stop
         style="stop-color:#2a2010;stop-opacity:1;"
         offset="0"
         id="stop6140" />
      <stop
         style="stop-color:#36250b;stop-opacity:1;"
         offset="1"
         id="stop6142" />
    </linearGradient>
    <linearGradient
       id="linearGradient6130">
      <stop
         style="stop-color:#1f1406;stop-opacity:1;"
         offset="0"
         id="stop6132" />
      <stop
         style="stop-color:#2d1f09;stop-opacity:1;"
         offset="1"
         id="stop6134" />
    </linearGradient>
    <marker
       inkscape:stockid="Arrow1Lend"
       orient="auto"
       refY="0.0"
       refX="0.0"
       id="Arrow1Lend"
       style="overflow:visible;">
      <path
         id="path4678"
         d="M 0.0,0.0 L 5.0,-5.0 L -12.5,0.0 L 5.0,5.0 L 0.0,0.0 z "
         style="fill-rule:evenodd;stroke:#000000;stroke-width:1.0pt;marker-start:none;"
         transform="scale(0.8) rotate(180) translate(12.5,0)" />
    </marker>
    <marker
       inkscape:stockid="Arrow1Lstart"
       orient="auto"
       refY="0.0"
       refX="0.0"
       id="Arrow1Lstart"
       style="overflow:visible">
      <path
         id="path4675"
         d="M 0.0,0.0 L 5.0,-5.0 L -12.5,0.0 L 5.0,5.0 L 0.0,0.0 z "
         style="fill-rule:evenodd;stroke:#000000;stroke-width:1.0pt;marker-start:none"
         transform="scale(0.8) translate(12.5,0)" />
    </marker>
    <filter
       inkscape:collect="always"
       id="filter6066">
      <feGaussianBlur
         inkscape:collect="always"
         stdDeviation="0.23750003"
         id="feGaussianBlur6068" />
    </filter>
    <linearGradient
       inkscape:collect="always"
       xlink:href="#linearGradient6130"
       id="linearGradient6136"
       x1="5.1101249"
       y1="94.288772"
       x2="195.37093"
       y2="94.288772"
       gradientUnits="userSpaceOnUse"
       gradientTransform="matrix(0,1,-1,0,196.70884,848.25643)" />
    <linearGradient
       inkscape:collect="always"
       xlink:href="#linearGradient6138"
       id="linearGradient6144"
       x1="7.9299998"
       y1="947.36218"
       x2="192.07001"
       y2="947.36218"
       gradientUnits="userSpaceOnUse"
       spreadMethod="pad" />
    <linearGradient
       inkscape:collect="always"
       xlink:href="#linearGradient6152"
       id="linearGradient6158"
       x1="18.85618"
       y1="95.767235"
       x2="54.211521"
       y2="105.981"
       gradientUnits="userSpaceOnUse"
       gradientTransform="translate(-0.63338641,851.8384)" />
    <filter
       inkscape:collect="always"
       id="filter6180"
       x="-0.02044898"
       width="1.040898"
       y="-0.1503"
       height="1.3006">
      <feGaussianBlur
         inkscape:collect="always"
         stdDeviation="0.32801897"
         id="feGaussianBlur6182" />
    </filter>
    <linearGradient
       inkscape:collect="always"
       xlink:href="#linearGradient6152-1"
       id="linearGradient6158-5"
       x1="18.85618"
       y1="95.767235"
       x2="54.211521"
       y2="105.981"
       gradientUnits="userSpaceOnUse"
       gradientTransform="translate(-0.2618914,851.8384)" />
    <linearGradient
       id="linearGradient6152-1">
      <stop
         style="stop-color:#313131;stop-opacity:1;"
         offset="0"
         id="stop6154-9" />
      <stop
         style="stop-color:#1c1a17;stop-opacity:1;"
         offset="1"
         id="stop6156-7" />
    </linearGradient>
    <filter
       color-interpolation-filters="sRGB"
       inkscape:collect="always"
       id="filter6180-1"
       x="-0.020448981"
       width="1.040898"
       y="-0.1503"
       height="1.3006001">
      <feGaussianBlur
         inkscape:collect="always"
         stdDeviation="0.32801897"
         id="feGaussianBlur6182-3" />
    </filter>
    <linearGradient
       y2="105.981"
       x2="54.211521"
       y1="95.767235"
       x1="18.85618"
       gradientTransform="translate(71.80356,851.31465)"
       gradientUnits="userSpaceOnUse"
       id="linearGradient6201"
       xlink:href="#linearGradient6152-1"
       inkscape:collect="always" />
    <linearGradient
       y2="105.981"
       x2="54.211521"
       y1="95.767235"
       x1="18.85618"
       gradientTransform="translate(71.365408,851.57654)"
       gradientUnits="userSpaceOnUse"
       id="linearGradient6201-2"
       xlink:href="#linearGradient6152-1-0"
       inkscape:collect="always" />
    <linearGradient
       id="linearGradient6152-1-0">
      <stop
         style="stop-color:#313131;stop-opacity:1;"
         offset="0"
         id="stop6154-9-6" />
      <stop
         style="stop-color:#1c1a17;stop-opacity:1;"
         offset="1"
         id="stop6156-7-8" />
    </linearGradient>
    <filter
       color-interpolation-filters="sRGB"
       inkscape:collect="always"
       id="filter6180-1-7"
       x="-0.020448981"
       width="1.040898"
       y="-0.1503"
       height="1.3006001">
      <feGaussianBlur
         inkscape:collect="always"
         stdDeviation="0.32801897"
         id="feGaussianBlur6182-3-4" />
    </filter>
    <linearGradient
       y2="105.981"
       x2="54.211521"
       y1="95.767235"
       x1="18.85618"
       gradientTransform="translate(134.74313,851.57652)"
       gradientUnits="userSpaceOnUse"
       id="linearGradient6241"
       xlink:href="#linearGradient6152-1-0"
       inkscape:collect="always" />
    <linearGradient
       y2="105.981"
       x2="54.211521"
       y1="95.767235"
       x1="18.85618"
       gradientTransform="translate(137.10015,851.83841)"
       gradientUnits="userSpaceOnUse"
       id="linearGradient6241-2"
       xlink:href="#linearGradient6152-1-0-4"
       inkscape:collect="always" />
    <linearGradient
       id="linearGradient6152-1-0-4">
      <stop
         style="stop-color:#313131;stop-opacity:1;"
         offset="0"
         id="stop6154-9-6-4" />
      <stop
         style="stop-color:#1c1a17;stop-opacity:1;"
         offset="1"
         id="stop6156-7-8-5" />
    </linearGradient>
    <linearGradient
       id="linearGradient6152-1-0-4-7">
      <stop
         style="stop-color:#313131;stop-opacity:1;"
         offset="0"
         id="stop6154-9-6-4-3" />
      <stop
         style="stop-color:#1c1a17;stop-opacity:1;"
         offset="1"
         id="stop6156-7-8-5-1" />
    </linearGradient>
    <radialGradient
       inkscape:collect="always"
       xlink:href="#linearGradient6152-1-0-4-7"
       id="radialGradient6400-5"
       gradientUnits="userSpaceOnUse"
       cx="41.378841"
       cy="43.912724"
       fx="41.378841"
       fy="43.912724"
       r="4.1664796" />
    <linearGradient
       id="linearGradient6419">
      <stop
         style="stop-color:#313131;stop-opacity:1;"
         offset="0"
         id="stop6421" />
      <stop
         style="stop-color:#1c1a17;stop-opacity:1;"
         offset="1"
         id="stop6423" />
    </linearGradient>
    <filter
       inkscape:collect="always"
       id="filter6523"
       x="-0.64851064"
       width="2.2970213"
       y="-0.64851064"
       height="2.2970213">
      <feGaussianBlur
         inkscape:collect="always"
         stdDeviation="1.9814592"
         id="feGaussianBlur6525" />
    </filter>
    <filter
       inkscape:collect="always"
       id="filter6583">
      <feGaussianBlur
         inkscape:collect="always"
         stdDeviation="0.10999439"
         id="feGaussianBlur6585" />
    </filter>
    <radialGradient
       inkscape:collect="always"
       xlink:href="#linearGradient6152-1-0-4"
       id="radialGradient6591"
       gradientUnits="userSpaceOnUse"
       cx="41.378841"
       cy="43.912724"
       fx="41.378841"
       fy="43.912724"
       r="4.1664796" />
    <radialGradient
       inkscape:collect="always"
       xlink:href="#linearGradient6152-1-0-4"
       id="radialGradient6609"
       gradientUnits="userSpaceOnUse"
       cx="41.378841"
       cy="43.912724"
       fx="41.378841"
       fy="43.912724"
       r="4.1664796" />
    <radialGradient
       inkscape:collect="always"
       xlink:href="#linearGradient6152-1-0-4"
       id="radialGradient6617"
       gradientUnits="userSpaceOnUse"
       cx="41.378841"
       cy="43.912724"
       fx="41.378841"
       fy="43.912724"
       r="4.1664796" />
    <radialGradient
       inkscape:collect="always"
       xlink:href="#linearGradient6152-1-0-4"
       id="radialGradient6625"
       gradientUnits="userSpaceOnUse"
       cx="41.378841"
       cy="43.912724"
       fx="41.378841"
       fy="43.912724"
       r="4.1664796" />
    <radialGradient
       inkscape:collect="always"
       xlink:href="#linearGradient6152-1-0-4"
       id="radialGradient6633"
       gradientUnits="userSpaceOnUse"
       cx="41.378841"
       cy="43.912724"
       fx="41.378841"
       fy="43.912724"
       r="4.1664796" />
    <radialGradient
       inkscape:collect="always"
       xlink:href="#linearGradient6152-1-0-4"
       id="radialGradient6641"
       gradientUnits="userSpaceOnUse"
       cx="41.378841"
       cy="43.912724"
       fx="41.378841"
       fy="43.912724"
       r="4.1664796" />
    <radialGradient
       inkscape:collect="always"
       xlink:href="#linearGradient6152-1-0-4"
       id="radialGradient6649"
       gradientUnits="userSpaceOnUse"
       cx="41.378841"
       cy="43.912724"
       fx="41.378841"
       fy="43.912724"
       r="4.1664796" />
    <radialGradient
       inkscape:collect="always"
       xlink:href="#linearGradient6152-1-0-4"
       id="radialGradient6657"
       gradientUnits="userSpaceOnUse"
       cx="41.378841"
       cy="43.912724"
       fx="41.378841"
       fy="43.912724"
       r="4.1664796" />
    <linearGradient
       y2="105.981"
       x2="54.211521"
       y1="95.767235"
       x1="18.85618"
       gradientTransform="translate(134.74313,851.57652)"
       gradientUnits="userSpaceOnUse"
       id="linearGradient6241-24"
       xlink:href="#linearGradient6152-1-0-7"
       inkscape:collect="always" />
    <linearGradient
       id="linearGradient6152-1-0-7">
      <stop
         style="stop-color:#313131;stop-opacity:1;"
         offset="0"
         id="stop6154-9-6-0" />
      <stop
         style="stop-color:#1c1a17;stop-opacity:1;"
         offset="1"
         id="stop6156-7-8-4" />
    </linearGradient>
    <filter
       color-interpolation-filters="sRGB"
       inkscape:collect="always"
       id="filter6180-1-7-9"
       x="-0.020448981"
       width="1.040898"
       y="-0.1503"
       height="1.3006001">
      <feGaussianBlur
         inkscape:collect="always"
         stdDeviation="0.32801897"
         id="feGaussianBlur6182-3-4-6" />
    </filter>
    <linearGradient
       y2="105.981"
       x2="54.211521"
       y1="95.767235"
       x1="18.85618"
       gradientTransform="translate(134.74313,851.57652)"
       gradientUnits="userSpaceOnUse"
       id="linearGradient6714"
       xlink:href="#linearGradient6152-1-0-7"
       inkscape:collect="always" />
    <linearGradient
       inkscape:collect="always"
       xlink:href="#linearGradient6152-1-0"
       id="linearGradient6739"
       gradientUnits="userSpaceOnUse"
       gradientTransform="translate(134.74313,851.57652)"
       x1="18.85618"
       y1="95.767235"
       x2="54.211521"
       y2="105.981" />
    <linearGradient
       inkscape:collect="always"
       xlink:href="#linearGradient6152-1-0"
       id="linearGradient6743"
       gradientUnits="userSpaceOnUse"
       gradientTransform="translate(134.74313,851.57652)"
       x1="18.85618"
       y1="95.767235"
       x2="54.211521"
       y2="105.981" />
  </defs>
  <sodipodi:namedview
     id="base"
     pagecolor="#656565"
     bordercolor="#666666"
     borderopacity="1.0"
     inkscape:pageopacity="1"
     inkscape:pageshadow="2"
     inkscape:zoom="2.7"
     inkscape:cx="90.517059"
     inkscape:cy="73.084246"
     inkscape:document-units="px"
     inkscape:current-layer="layer1"
     showgrid="false"
     inkscape:snap-global="true"
     showguides="true"
     inkscape:guide-bbox="true"
     inkscape:window-width="1280"
     inkscape:window-height="744"
     inkscape:window-x="-3"
     inkscape:window-y="-3"
     inkscape:window-maximized="1">
    <inkscape:grid
       type="xygrid"
       id="grid4670"
       empspacing="5"
       visible="true"
       enabled="true"
       snapvisiblegridlinesonly="true" />
  </sodipodi:namedview>
  <metadata
     id="metadata4157">
    <rdf:RDF>
      <cc:Work
         rdf:about="">
        <dc:format>image/svg+xml</dc:format>
        <dc:type
           rdf:resource="http://purl.org/dc/dcmitype/StillImage" />
        <dc:title></dc:title>
      </cc:Work>
    </rdf:RDF>
  </metadata>
  <g
     inkscape:label="Layer 1"
     inkscape:groupmode="layer"
     id="layer1"
     transform="translate(0,-852.36218)">
    <rect
       style="fill:url(#linearGradient6144);fill-opacity:1;fill-rule:nonzero;stroke:#272620;stroke-width:3;stroke-miterlimit:4;stroke-opacity:1;stroke-dasharray:36, 36;stroke-dashoffset:0;filter:url(#filter6066)"
       id="rect4668"
       width="180"
       height="10.000021"
       x="10"
       y="942.36218"
       transform="matrix(0,1,-1,0,1049.071,848.25643)" />
    <path
       style="fill:url(#linearGradient6136);fill-opacity:1;fill-rule:nonzero;stroke:none"
       id="path6128"
       d="m 102.60572,872.83739 c -1.23506,-5.62193 1.03435,5.71465 0.63248,4.31694 -0.16148,-0.56162 -0.19502,-1.15249 -0.3075,-1.72593 -0.24704,-1.25955 0.16645,1.83702 0.18594,2.05055 0.0325,0.32525 0.0965,0.64889 0.0975,0.97576 2.5e-4,0.0776 -0.0433,-0.15477 -0.095,-0.21263 -0.0159,-0.0178 -0.0482,0.0607 -0.0596,0.0398 -0.0654,-0.12001 -0.14712,-0.52445 -0.1307,-0.38873 0.16719,1.38207 0.60325,2.7434 0.58395,4.13542 -0.0155,1.11714 -0.39704,-2.19895 -0.59556,-3.29842 1.07487,8.33935 -0.003,-0.47421 -0.0478,0.65446 -0.0359,0.897 0.27484,1.77595 0.34598,2.67085 0.0193,0.24246 -0.12047,-0.93775 -0.18966,-0.70458 -0.13597,0.45819 0.31878,1.8071 -0.0792,0.50628 0.0207,0.30152 0.0279,0.60427 0.062,0.90457 0.10391,0.91519 0.3066,1.82075 0.35185,2.7407 0.0206,0.41863 -0.1971,-0.81507 -0.27738,-1.22645 -0.21535,-1.10357 -0.35378,-2.22271 -0.60937,-3.31765 -0.0829,-0.35531 0.0434,0.72898 0.0896,1.09089 0.18448,1.44364 0.40159,2.88291 0.60239,4.32437 -0.0265,-6.83587 -0.053,-13.67173 -0.0796,-20.5076 0.0637,-0.24596 0.20983,-0.99128 0.19115,-0.73789 -0.11152,0.89423 -0.22304,1.78846 -0.33456,2.68269 0.0258,0.024 0.0769,0.0367 0.0775,0.072 0.006,0.35927 -0.18144,1.41403 -0.0587,1.07635 0.25089,-0.69003 0.3008,-1.43731 0.4512,-2.15596 -0.0489,7.76599 -0.0978,15.53199 -0.14665,23.29798 -0.33819,0.0217 -0.45613,-1.25453 -0.475,-0.91222 -0.0495,0.89754 0.32536,1.7992 0.19983,2.6893 -0.0611,0.43329 -0.21357,-0.85488 -0.40289,-1.24938 -0.0371,-0.0772 -0.16022,-0.0606 -0.24032,-0.0909 1.58997,12.45382 -0.7079,-3.16845 -0.43743,1.7376 0.0711,1.2891 0.33947,2.56671 0.34509,3.85775 0.002,0.3675 -0.14101,-0.73761 -0.33287,-1.05106 -0.0573,-0.0936 -0.0825,0.20344 -0.12369,0.30516 -0.0739,-0.16504 -0.21847,-0.67591 -0.22178,-0.49511 -0.0131,0.71438 0.13329,1.4228 0.19178,2.13489 0.0329,0.40106 0.13912,0.80599 0.0825,1.20439 -0.0294,0.20678 -0.17962,-0.81221 -0.16787,-0.60368 0.0346,0.6138 0.2392,2.4438 0.23688,1.82903 -0.0231,-6.12564 -0.1995,-12.24974 -0.29925,-18.37462 -0.47095,3.44633 0.35363,-1.68292 0.43062,-2.16531 0.0172,-0.10743 -0.009,0.22485 -0.0597,0.32085 -0.094,0.60336 -0.18664,1.20692 -0.28186,1.81008 -0.031,0.19638 -0.0729,0.39117 -0.0968,0.58854 -0.0861,0.70892 -0.16533,2.84053 -0.23314,2.12964 -0.0748,-0.7839 0.12346,-1.57037 0.21185,-2.35286 0.0134,-0.11833 0.0807,-0.46343 0.0929,-0.34497 0.046,0.44623 0.007,0.89715 0.0102,1.34573 0.10388,-0.7531 0.16034,-1.51427 0.31164,-2.25928 0.0657,-0.32339 0.32969,0.10346 0.34869,0.16775 0.0684,0.23131 0.10843,0.4752 0.10243,0.71633 -0.0544,2.18931 -0.47013,3.93571 0.17827,0.60677 0.0233,0.15923 0.0467,0.31846 0.07,0.47769 -0.0664,0.83305 -0.27723,1.66712 -0.19913,2.49915 0.0454,0.48398 0.20354,-0.95068 0.29975,-1.42717 0.13136,-0.6506 0.038,-2.5211 0.38292,-1.95401 0.31604,0.51964 -0.66136,4.15497 0.10474,1.09517 -0.10615,1.06812 -0.21229,2.13624 -0.31843,3.20437 0.0334,0.0438 0.0911,0.0771 0.1002,0.13144 0.0367,0.21912 -0.0192,0.44982 0.0333,0.66571 0.0105,0.0432 0.11518,-0.0252 0.13249,0.0158 0.25588,0.60568 -0.12829,0.34894 0.20073,0.52912 -0.0389,0.62298 -0.17104,1.24711 -0.11676,1.86894 0.016,0.18391 0.15745,-0.33398 0.23618,-0.50097 0.18065,-0.85738 0.50407,-3.44753 0.54197,-2.57214 0.063,1.45559 -0.38099,2.89152 -0.46518,4.34603 -0.008,0.13719 0.15552,-0.22659 0.23328,-0.33989 -0.0518,0.80571 -0.10357,1.61142 -0.15535,2.41713 0.0842,-0.0805 0.16844,-0.16091 0.25266,-0.24136 0.0259,0.33057 -0.20893,1.15837 0.0777,0.99171 0.39124,-0.22747 0.43595,-1.74 0.43097,-1.28747 -0.0178,1.61805 -0.38363,3.21579 -0.46996,4.83163 -0.008,0.15386 0.14749,0.27339 0.18928,0.42169 0.0687,0.24368 0.0933,0.49768 0.13996,0.74651 0.79181,1.22566 -0.58402,-1.03883 0.0381,2.96308 0.0614,0.39471 0.26627,-0.75322 0.3994,-1.12983 -0.0646,0.92201 -0.1522,1.8427 -0.19388,2.76602 -0.0202,0.4474 -0.4337,1.41546 0.008,1.34355 0.48269,-0.0785 0.26899,-0.94036 0.40349,-1.41054 -0.0351,0.64349 -0.14526,1.28728 -0.10524,1.93049 0.008,0.11977 0.18028,-0.41149 0.20704,-0.29451 0.0833,0.36405 -0.014,0.74678 -0.0182,1.12021 -0.0681,6.10205 -0.24844,12.20399 -0.19859,18.30621 0.01,1.18212 0.44356,2.34611 0.37695,3.52639 -0.0347,0.61512 -0.31677,-1.19076 -0.47516,-1.78614 -0.0416,0.20568 0.013,0.45873 -0.12475,0.61703 -0.0683,0.0784 -0.23998,-0.28809 -0.25142,-0.18473 -0.0764,0.69026 0.38742,2.68514 0.0414,2.08299 -0.55464,-0.96527 0.048,-2.45438 -0.71865,-3.26159 -0.59745,-0.62904 0.1343,1.73456 0.0913,2.60104 -0.005,0.10224 -0.15368,0.13528 -0.23051,0.20292 0.14853,1.63725 0.29706,3.2745 0.4456,4.91175 -0.0651,0.0915 -0.14297,0.37377 -0.19532,0.27444 -0.23719,-0.45007 -0.38716,-1.97073 -0.43156,-1.46394 -0.0946,1.07959 0.18625,2.15943 0.27601,3.23942 0.0693,0.83429 0.90704,2.05311 0.20129,2.50341 -0.66588,0.42486 -0.32785,-1.54537 -0.49178,-2.31806 0.0963,0.68157 0.0644,1.37022 0.11188,2.05437 0.49569,7.13762 0.79565,19.67048 0.45203,-19.70561 -0.0111,-1.27637 -0.36173,2.52707 -0.54259,3.79061 0.0671,-0.33457 0.0426,-0.70168 0.20144,-1.00372 0.11936,-0.227 -0.0635,0.50948 -0.0763,0.76563 -7.6e-4,0.0152 0.04,-0.0382 0.0394,-0.023 -0.009,0.22015 -0.0705,0.43748 -0.0655,0.65775 0.002,0.089 0.0595,-0.16872 0.0747,-0.25644 0.14411,-0.8315 0.26863,-1.66628 0.40295,-2.49941 -0.19174,1.24714 -0.26623,1.68185 -0.43674,3.15888 -0.0343,0.2973 -0.14884,1.18377 -0.0698,0.89511 0.17191,-0.62801 0.21629,-1.28452 0.3508,-1.92159 0.0201,-0.0954 0.10305,-0.3671 0.11195,-0.27006 0.0333,0.36356 -0.0242,0.72976 -0.0363,1.09464 0.0701,-0.22526 0.17636,-0.90924 0.21043,-0.67578 0.18082,1.23909 -0.76154,5.20622 -0.45303,5.55622 0.8021,0.90997 0.0856,-2.5217 0.69108,-3.57282 0.45203,-0.78482 -0.16623,1.80485 -0.19418,2.71011 -0.008,0.26281 0.0575,0.52272 0.0863,0.78408 0.86535,-1.18289 -0.26401,0.22842 0.0776,2.25748 0.0749,0.44506 0.012,-1.06985 0.4048,-1.29206 0.30049,-0.16998 0.003,0.6925 0.0506,1.03447 0.0185,0.13345 0.15184,0.24267 0.14512,0.37723 -0.0592,1.1856 -0.22733,2.36324 -0.341,3.54485 0.0246,0.28048 -0.15734,1.00234 0.0737,0.84145 0.33334,-0.23214 0.16957,-1.50489 0.38044,-1.15771 0.29054,0.47836 -0.0369,1.1188 -0.0646,1.67779 -0.0319,0.64506 -0.24489,1.30167 -0.11428,1.93417 0.0662,0.32062 0.21472,-0.61856 0.32209,-0.92784 -0.0856,0.89737 -0.17112,1.79474 -0.25668,2.6921 -0.0859,0.86508 -0.24433,1.726 -0.25764,2.59523 -0.0833,5.43934 -0.0268,10.87991 -0.032,16.31988 -0.002,2.11464 0.15647,0.7783 0.50486,4.68933 0.0228,0.25593 -0.1294,-0.49802 -0.21551,-0.74011 -0.0271,-0.0763 -0.0816,-0.13993 -0.12241,-0.2099 0.0453,0.541 0.0907,1.08199 0.13601,1.62298 -0.0537,0.0332 -0.15463,0.0368 -0.16104,0.0996 -0.0496,0.48611 0.10242,0.98784 10e-4,1.4659 -0.0243,0.11499 -0.14576,-0.21487 -0.26122,-0.23686 -0.0948,-0.0181 -0.24063,0.0431 -0.25424,0.13868 -0.0937,0.65804 -0.033,1.32896 -0.0495,1.99344 -1.29117,0.12762 0.51235,-0.16354 -0.3745,2.5652 -0.21104,0.64935 -0.75902,-2.40341 -1.02388,-1.77409 -0.30903,0.73428 -0.0301,1.59451 -0.10424,2.38771 -0.0408,0.43567 -0.15985,0.86041 -0.23978,1.29061 -1.0553,0.90102 -0.0863,2.53482 -0.60494,3.67819 -0.0606,0.13358 -0.19426,-0.29619 -0.33997,-0.27936 -0.1339,0.0155 -0.21419,0.20851 -0.21366,0.3433 0.004,1.01797 0.15134,2.03032 0.22701,3.04548 -0.11738,-0.40725 -0.35,-1.64558 -0.35213,-1.22176 -0.005,1.02994 0.28222,2.04262 0.34284,3.07079 0.0135,0.22821 -0.19409,-0.42734 -0.20045,-0.65585 -0.15249,-5.48344 -0.29682,-10.96886 -0.27536,-16.45438 0.002,-0.58529 0.23175,-1.14742 0.34644,-1.72137 0.0895,-0.44789 0.17743,-0.89611 0.26615,-1.34416 -0.69511,5.71805 0.5439,-3.74689 -0.22577,2.28918 -0.0536,0.42041 -0.11378,0.52946 -0.0244,0.34305 0.0912,-0.59649 0.0122,-1.24554 0.27347,-1.78947 0.18295,-0.38088 -0.0207,0.84489 -0.0227,1.26743 -0.002,0.43452 -0.0624,0.87515 0.0104,1.30353 0.0131,0.0772 0.14752,-0.0747 0.18697,-0.14236 0.3255,-0.55823 0.10228,-0.79449 0.35415,-0.40708 -0.0175,0.37558 -0.0349,0.75116 -0.0524,1.12673 -0.11551,0.94854 -0.2925,1.89159 -0.34652,2.8456 -0.0195,0.34507 0.2369,-1.35369 0.24246,-1.00811 0.10324,6.42442 0.0109,12.85055 0.0511,19.27568 0.002,0.38047 0.1764,1.50603 0.0765,1.13888 -0.26394,-0.97052 -0.38166,-1.97499 -0.57249,-2.96249 0.18849,1.42137 0.37698,2.84275 0.56547,4.26412 0.0246,0.38251 0.0725,1.53083 0.0738,1.14753 0.0231,-6.89552 0.0166,-13.79116 -0.008,-20.68667 -0.002,-0.41937 -0.0241,0.83894 -0.0622,1.25659 -0.29906,3.28353 -1.36972,3.61147 -0.1588,3.16834 0.6646,-1.56752 -0.0344,-0.1867 0.32353,0.4586 0.10673,0.19244 0.27812,-0.81248 0.29055,-0.59278 0.0491,0.86777 -0.21263,1.73304 -0.17691,2.60147 0.006,0.14934 0.17944,-0.2391 0.26916,-0.35864 -0.056,0.89008 -0.11201,1.78016 -0.16801,2.67024 0.46751,0.0799 -0.39353,2.07397 0.16262,1.8231 0.42574,-0.19205 0.008,-1.60861 0.39341,-1.34479 0.44428,0.30412 -0.44373,1.91773 0.002,1.61521 0.74119,-0.50346 0.38534,-3.82601 0.59431,-0.678 -0.0454,1.16861 -0.18296,3.67418 -0.10847,4.99065 0.0187,0.32997 -0.0248,1.24639 0.16707,0.97731 0.41159,-0.57717 0.12422,-1.51027 0.59251,-2.04246 0.25993,-0.2954 0.14848,0.77458 0.17787,1.16695 0.0531,0.70867 0.0461,1.42056 0.0691,2.13084 0.0812,0.35404 -0.0113,0.80336 0.24367,1.06213 0.13515,0.13718 0.31014,-0.22838 0.46521,-0.34256 -0.1596,2.18602 -0.97228,4.4225 -0.47882,6.55807 0.31881,1.37969 0.52418,-5.4359 1.04261,-4.11818 -0.38028,6.14139 -1.12203,4.04875 -0.0188,6.66061 0.97387,1.81694 -0.48768,-1.14384 0.38976,3.06684 0.0334,0.1604 0.35337,-0.44293 0.3999,-0.28583 0.16977,0.57313 -0.0244,1.1991 0.0464,1.79264 0.0167,0.13963 0.14068,0.24353 0.21102,0.36529 -0.001,0.47495 -0.003,0.94991 -0.004,1.42486 2.9e-4,7.05322 5.8e-4,14.10642 8.6e-4,21.15972 -0.10079,-0.152 -0.23039,-0.6235 -0.30237,-0.4559 -0.17023,0.3962 -0.0386,0.8616 -0.0571,1.2925 -0.024,0.5589 0.22903,1.6717 -0.32978,1.6456 -0.12479,-0.01 -0.21495,-0.1274 -0.32243,-0.1911 -0.0732,0.3051 -0.0273,0.6673 -0.21945,0.9153 -0.0847,0.1093 -0.37069,-0.2549 -0.39734,-0.1192 -0.21008,1.0693 0.58854,2.5312 -0.22006,3.2618 -0.6515,0.5886 -0.23787,-1.7531 -0.53563,-2.5791 -0.042,-0.1165 -0.27693,0.043 -0.34005,0.1499 -0.13693,0.2312 -0.13977,0.5189 -0.20965,0.7784 -0.32027,-1.4275 -0.28454,-1.0422 -0.22347,-3.3567 0.0115,-0.4365 0.0443,0.8726 0.0933,1.3065 0.78428,6.9451 0.15982,1.9656 0.4811,1.071 0.11728,-0.3265 0.17375,0.6719 0.26063,1.0078 0.19965,1.5664 -0.0974,-1.5324 -0.0395,-1.1524 0.10833,0.7829 0.21667,1.5657 0.325,2.3486 -0.0219,-0.058 -0.0268,-0.2225 -0.0657,-0.1741 -0.0555,0.069 -0.0104,0.1771 -0.008,0.2656 0.008,0.2841 0.027,0.5678 0.0405,0.8517 -0.85124,-2.0086 1.5649,3.5813 0.18847,2.7983 -1.01259,-0.5761 0.0981,-4.2527 -0.71721,-3.4206 -0.88605,0.9044 0.54404,2.5275 0.36431,3.7808 -0.10589,0.7383 -0.39817,-1.4377 -0.59725,-2.1565 0.0511,0.963 0.10209,1.9261 0.15314,2.8891 0.1136,1.4189 0.22721,-5.1622 0.34082,-3.7434 -0.13061,-0.1453 -0.31555,-0.616 -0.39184,-0.4361 -0.20507,0.4836 0.10737,1.0866 -0.0904,1.5733 -0.071,0.1747 -0.25236,-0.5617 -0.37784,-0.4209 -0.9036,1.0133 0.39289,1.0776 -0.42709,0.9774 -0.95908,0.3922 0.51946,2.079 -0.0573,2.8227 -0.0679,0.088 -0.20513,-0.3565 -0.22274,-0.247 -0.0781,0.4854 0.0266,0.9831 0.0251,1.4748 -0.002,0.5353 0.41367,1.3129 -0.0346,1.6055 -0.39087,0.2551 -0.73509,-0.5754 -1.10264,-0.8632 -2.678893,2.6472 -1.02363,1.783 -1.66097,-0.4011 -0.0787,-0.2696 -0.16352,0.5387 -0.276753,0.7957 -0.0208,0.047 -0.10068,0.051 -0.11791,0.1 -0.10338,0.2915 -0.25109,1.2062 -0.23581,0.8973 0.0475,-0.9601 0.2221,-1.9097 0.33314,-2.8646 -0.0871,0.3752 -0.19516,1.5049 -0.26127,1.1255 -0.84237,-4.8349 0.0321,-6.1964 0.0739,-1.0426 0.16187,-1.3382 0.510733,-2.6605 0.536993,-4.0082 0.0193,-0.9918 -0.313153,1.9598 -0.516003,2.9308 -0.0511,0.2446 0.0372,-0.4983 0.0598,-0.7471 0.0252,-0.2777 0.0557,-0.5549 0.0836,-0.8323 -0.0664,0.3421 -0.13276,0.6842 -0.19914,1.0263 l 3.526733,-14.4852 0,0 c -0.0802,0.5316 -0.16037,1.0632 -0.24055,1.5948 -0.0468,0.3605 -0.0937,0.721 -0.14049,1.0815 0.11418,-0.6521 0.41571,-2.6142 0.34255,-1.9563 -0.15681,1.4102 -0.50482,2.7989 -0.59372,4.2149 -0.0627,0.9983 0.26477,-1.9878 0.51471,-2.9563 0.24095,-0.9338 -0.47114,3.267 -0.28981,2.8784 0.12028,-0.6287 0.21008,-2.5082 0.36086,-1.8861 0.17973,0.7415 -0.2124,1.5124 -0.267,2.2734 -0.0131,0.1831 0.0904,-0.3559 0.14207,-0.5321 0.0194,-0.066 -0.003,0.256 -0.0452,0.2018 -0.091,-0.1156 0.0167,-0.4471 -0.12842,-0.4224 -0.52518,0.089 -0.96119,0.4597 -1.44178,0.6896 -0.35804,-0.3975 -0.56581,-1.3591 -1.07412,-1.1924 -0.478973,0.1571 0.0489,1.0079 0.11163,1.5081 0.0448,0.3571 0.22338,1.4188 0.21039,1.0591 -0.0351,-0.9726 -0.43131,-1.9456 -0.27709,-2.9065 0.10182,-0.6344 0.29496,1.2508 0.44244,1.8762 -0.0464,-0.8226 -0.0929,-1.6452 -0.13931,-2.4678 0.006,0.01 0.60117,1.288 0.52975,0.035 -0.1092,-1.9154 -0.52556,-3.8102 -0.55866,-5.7285 -0.008,-0.438 0.0691,1.3725 0.48091,1.223 1.05384,-0.3823 -0.60546,-2.3152 0.44246,-0.9616 0.34059,-3.069 -0.19751,2.3505 -0.10115,-3.9666 0.002,-0.1433 0.26202,0.4894 0.25476,0.3463 -0.0647,-1.2752 -0.34863,-2.5321 -0.43028,-3.8063 -0.0118,-0.1846 0.14604,0.3399 0.21905,0.5099 -0.13634,-1.105 -0.27268,-2.2099 -0.40902,-3.3148 0.20672,1.1342 0.31607,2.2906 0.62017,3.4027 0.16718,0.6114 -0.1421,-1.2597 -0.20659,-1.8902 -0.0532,-0.5199 -0.13605,-1.0385 -0.14637,-1.561 -9e-4,-0.045 0.0722,0.077 0.11689,0.069 0.0635,-0.011 0.11873,-0.1684 0.15519,-0.1153 0.16852,0.2456 0.22287,0.5525 0.3343,0.8287 0.10327,0.082 0.17838,0.2616 0.30981,0.2475 0.33171,-0.035 0.53229,-0.9757 0.71718,-0.698 0.27021,0.4058 0.126,1.8688 0.32827,1.4252 0.49004,-1.0746 -0.0251,-3.9637 0.31745,-1.7815 0.016,-0.1667 0.21235,-1.8703 -0.0202,-1.6934 -0.30989,0.2358 0.11093,1.5394 -0.007,1.1682 -0.19582,-0.6194 -0.12033,-2.5736 -0.2358,-1.9344 -0.13085,0.7244 0.1663,2.2809 0.32331,3.1943 -0.0999,-1.034 -0.19974,-2.068 -0.29961,-3.102 0.0141,-0.1188 0.0489,-0.237 0.0423,-0.3564 -0.0354,-0.642 -0.53022,-1.39046 -0.16781,-1.92152 0.31491,-0.46147 0.22587,1.09462 0.36236,1.63642 1.99458,7.9165 0.55198,-29.24269 0.0887,18.4562 0.0589,-0.7108 0.11785,-1.4216 0.17677,-2.1324 -0.11523,0.2968 -0.35162,1.2086 -0.3457,0.8903 0.0288,-1.55 0.45865,-3.0825 0.4153,-4.6322 -0.0125,-0.4472 -0.30369,0.8447 -0.51015,1.2416 -0.11812,0.2271 -0.45742,0.8734 -0.45672,0.6174 0.005,-2.0291 0.31438,-4.046 0.47156,-6.069 -0.0374,-0.7684 0.27897,-1.6427 -0.11226,-2.3051 -0.21154,-0.3582 -0.23936,0.8923 -0.60443,1.0917 -0.19616,0.1071 -0.36014,-0.338 -0.36662,-0.5614 -0.0449,-1.5462 0.71522,-3.1715 0.21579,-4.6354 -0.32277,-0.9461 -0.54156,1.9245 -0.81234,2.8868 0.0972,-1.6012 0.19439,-3.2025 0.29159,-4.8037 -0.21087,0.6817 -0.0652,1.6124 -0.63261,2.0452 -0.39186,0.2989 -0.097,-0.9816 -0.11611,-1.4741 -0.0259,-0.6705 -0.0126,-1.3419 -0.0188,-2.0129 -0.11391,0.20161 -0.24326,0.8144 -0.34174,0.6048 -0.71842,-1.52884 0.53593,-1.50791 -0.32343,-1.46377 -0.0384,-0.36841 -0.0282,-0.74516 -0.11509,-1.10522 -0.0262,-0.10845 -0.20751,-0.14609 -0.21384,-0.25747 -0.0459,-0.80868 0.0729,-1.61929 0.0612,-2.42919 -0.005,-0.35013 -0.0169,-0.7074 -0.11139,-1.04458 -0.025,-0.0894 -0.19037,-0.24739 -0.22666,-0.16193 -0.267033,0.62883 -0.362473,1.31739 -0.543703,1.97609 0.0119,-0.67801 -8.7e-4,-1.3569 0.0358,-2.03402 0.0655,-1.20752 1.112553,-2.74969 0.27064,-3.61779 -0.75083,-0.7742 -0.17221,2.22537 -0.72016,3.15429 -0.3472,0.58859 0.0672,-1.3656 0.0682,-2.04896 4.6e-4,-0.34389 -0.0282,-0.68766 -0.064,-1.02967 -0.0236,-0.225 -0.076,-0.44604 -0.11396,-0.66906 -1.05946,1.73375 0.75451,-1.087 0.0828,-3.12789 -0.30193,-0.91739 -0.60201,3.79875 -0.60765,2.83297 -0.0459,-7.86649 0.33662,-15.72965 0.48653,-23.59485 0.006,-0.30515 -0.0875,-0.61791 -0.0194,-0.91541 0.0244,-0.10629 0.10954,0.18859 0.1643,0.28289 0.0121,-0.13649 -0.0332,-0.52758 0.0362,-0.40945 0.1459,0.24826 0.21515,0.54875 0.21493,0.83671 -0.004,5.39913 -0.0944,10.79831 -0.22763,16.19579 -0.0115,0.46623 -1.10096,4.23965 0.1067,-1.32929 -0.0683,0.5312 -0.28515,2.19296 -0.26784,2.29408 0.0824,0.48151 0.1432,-0.96677 0.23529,-1.44652 0.011,-0.0572 0.0151,0.11662 0.009,0.17454 -0.0827,0.76805 0.40645,2.66409 -0.27541,2.30104 -0.69366,-0.36932 0.12173,-1.56697 0.1826,-2.35046 -0.17768,-3.03258 0.22201,2.5239 -0.45002,1.028 -0.33715,-0.75047 0.11106,-1.64234 0.12674,-2.46492 0.005,-0.27061 -0.0755,-0.53899 -0.0643,-0.80942 0.0351,-0.84647 0.48434,-3.33256 0.20284,-2.53349 -0.46257,1.31305 -0.50483,2.73815 -0.75725,4.10722 -0.0809,-0.86727 0.0198,-0.84459 -0.30912,-0.0202 0.13812,-7.55062 0.27624,-15.10125 0.41436,-22.65188 0.004,-0.13835 0.21614,0.49856 0.20599,0.36052 -0.32304,-4.38995 -1.07437,-7.03317 0.0844,-2.23285 0.20586,0.80281 0.36617,3.19815 0.61758,2.40842 0.37165,-1.16743 -0.23391,-2.44409 -0.21623,-3.66913 0.003,-0.19476 0.23857,-0.32369 0.27659,-0.51472 0.10784,-0.54178 0.11771,-1.09883 0.15428,-1.65002 0.17466,-2.6324 -0.2581,-1.5569 0.45107,-2.94322 -0.31988,-12.13203 -0.24416,1.2761 0.942813,0.39468 1.4186,-1.05343 -0.27183,-3.52853 -0.24414,-5.29528 0.003,-0.21534 0.22488,-0.73662 0.33577,-0.552 0.39033,0.64987 -0.0305,2.52952 0.64294,2.18147 0.74342,-0.38422 -0.004,-1.67368 -0.006,-2.51052 0.70919,-0.81274 -0.29736,0.45545 0.16395,-2.05011 0.0502,-0.27264 0.2168,1.07276 0.2394,0.79647 0.15723,-1.92228 -0.46016,-2.30412 0.011,-0.83529 0.0264,0.0824 0.0131,-0.17266 0.0197,-0.25899 -0.15988,-1.39707 -0.28491,-2.78777 -0.40573,-4.18812 -0.0463,-0.53691 -0.15529,-2.14908 -0.14374,-1.6103 0.47759,22.2783 0.0302,27.28254 0.68593,18.78373 -0.14506,0.59438 -0.25159,1.19951 -0.4352,1.78313 -0.0324,0.10313 -0.21131,0.35938 -0.20485,0.25146 0.0764,-1.27654 0.29576,-2.54067 0.41804,-3.81364 0.0724,-0.7533 0.28952,-1.51766 0.16578,-2.26425 -0.0626,-0.37747 0.0168,1.15368 -0.36044,1.08982 -0.37919,-0.0642 -0.0111,-0.7691 -0.0167,-1.15365 0.9241,-9.4851 0.48891,-2.54859 -0.0441,-2.25866 -0.2922,0.15893 0.0371,-0.67117 -0.0273,-0.99751 -0.0114,-0.0576 -0.11621,-0.0163 -0.17431,-0.0245 0.15005,-1.39908 0.30011,-2.79815 0.45017,-4.19723 0.0133,-0.44105 -0.24142,0.84883 -0.36212,1.27324 -0.26349,0.2295 -0.28718,0.34482 -0.27364,-0.3394 0.0131,-0.66092 0.24277,-1.32676 0.13317,-1.97866 -0.0611,-0.36321 -0.20436,1.42622 -0.28641,1.06716 -0.16765,-0.73369 0.58318,-4.01639 -0.23585,-0.007 0.14137,-1.22876 0.33515,-2.45263 0.42412,-3.6863 0.0266,-0.36908 -0.17236,0.72019 -0.23649,1.08463 -0.13128,0.74596 0.20048,1.72448 -0.34952,2.24524 -0.51419,0.48685 0.18879,-1.40608 0.21075,-2.11385 0.005,-0.15676 -0.66688,2.25159 -0.13944,-0.44938 -0.0897,0.49089 -0.27022,1.97167 -0.26915,1.47266 0.002,-0.76337 0.20277,-1.51371 0.27087,-2.27404 0.003,-0.0304 -0.0524,-0.0975 -0.0611,-0.0682 -0.0386,0.1304 -0.51946,2.39212 -0.52108,2.3887 -0.22406,-0.47525 0.10508,-1.04557 0.15761,-1.56835 1.12059,-8.73773 0.47165,-2.62833 0.25909,-20.75963 -0.005,-0.39855 -0.33104,-1.51721 -0.1014,-1.19143 0.30098,0.42701 0.12471,1.05396 0.34002,1.52996 0.33169,0.73329 -0.66511,-4.98627 -0.0889,-2.41285 -0.51294,-6.09517 -0.0851,-0.24339 -0.2543,-4.32404 -0.0367,-0.88477 -0.52004,-3.45798 -0.15275,-2.6522 0.59435,1.30389 0.47191,2.83285 0.86343,4.21129 0.0476,0.16746 0.13006,-0.32295 0.19509,-0.48443 -0.059,-1.07484 -0.11801,-2.14969 -0.17701,-3.22453 -0.0229,-0.8426 -0.29082,-1.71466 -0.0687,-2.52779 0.11145,-0.40804 0.21274,0.83179 0.4334,1.19266 0.0442,0.0723 0.22206,-0.0208 0.23165,-0.10504 0.0611,-0.5367 -0.55978,-1.94384 0.31097,-1.72625 -0.0757,-0.74417 -0.16962,-1.4867 -0.22699,-2.2325 -0.008,-0.10251 0.032,-0.40961 0.0316,-0.3068 -0.0273,6.97316 -0.15096,13.94624 -0.11245,20.91935 0.004,0.66343 0.17563,-1.3163 0.21703,-1.97844 0.01,-0.1581 -0.0638,-0.3125 -0.0639,-0.47091 -2.5e-4,-0.50493 0.0419,-1.009 0.0629,-1.5135 -0.006,-0.41284 0.0473,-0.83087 -0.0182,-1.23852 -0.0447,-0.27817 -1.5618,-0.20577 -0.55241,0.63973 -0.009,-1.27159 0.44792,-2.53463 0.32893,-3.80067 -0.0593,-0.63087 -0.34276,1.22007 -0.51414,1.8301 0.14908,-1.49926 0.29815,-2.99853 0.44723,-4.4978 -1.15041,3.82806 0.18077,-0.16604 -0.30534,-1.15806 -0.30202,-0.61636 -0.29391,2.63154 -0.53424,1.98861 -0.33881,-0.90638 0.19554,-1.92872 0.19492,-2.89636 -6e-5,-0.0953 -0.13126,-0.1383 -0.19689,-0.20746 0.0697,-0.9301 0.13947,-1.86021 0.2092,-2.79031 -0.84188,3.55529 -0.4834,2.51644 -0.24534,-0.96383 0.0171,-0.24985 0.0474,-2.29761 0.0527,-2.59594 0.007,-0.36937 0.21058,-0.79109 0.0209,-1.10808 -0.13217,-0.22084 -0.164,0.48793 -0.246,0.7319 -0.0918,0.31738 -0.0569,0.70444 -0.2755,0.95216 -0.12904,0.1462 0.0464,-0.41357 -0.0505,-0.58283 -0.0467,-0.0816 -0.14643,0.33643 -0.14428,0.24242 0.0159,-0.69506 0.17603,-1.38223 0.18632,-2.07741 0.002,-0.12434 -0.10703,0.22452 -0.16054,0.33678 0.0529,-0.57913 0.10578,-1.15827 0.15867,-1.73741 -0.14482,0.82566 -0.34982,3.31095 -0.43446,2.47697 -0.111093,-1.09461 0.2616,-2.18534 0.35278,-3.28179 0.0117,-0.14053 -0.0118,-0.55773 -0.0449,-0.42066 -0.18808,0.77818 -0.313603,3.15674 -0.424783,2.36391 -0.0682,-0.48664 0.963893,-7.07228 -0.0719,-0.24214 0.027,-0.34767 0.0719,-0.69442 0.0811,-1.04302 7.7e-4,-0.029 -0.0581,0.096 -0.0554,0.0671 0.0339,-0.36324 0.10015,-0.72272 0.15023,-1.08407 0.007,0.0676 0.0113,0.27001 0.0219,0.20284 0.0828,-0.52103 0.0829,-0.92911 0.0988,-1.44125 -0.607853,7.07503 -0.0639,1.4572 -0.197763,1.42374 -0.31385,-0.0785 -0.002,0.71231 -0.22835,0.94332 -0.13415,0.13682 -0.15289,-0.36244 -0.15331,-0.55406 -0.002,-1.0021 0.32866,-2.01756 0.14552,-3.00278 -0.1068,-0.57448 -0.25723,1.13999 -0.38584,1.70998 0.0379,-0.62369 0.0758,-1.24739 0.11379,-1.87108 0.2227,-3.65665 0.11358,-0.95646 -0.7352,3.47645 -0.0108,0.0564 -0.11819,-0.0728 -0.11297,-0.12992 0.12702,-1.39094 0.42002,-2.76553 0.5047,-4.1597 0.0317,-0.52145 -0.22993,1.01922 -0.3449,1.52883 -0.0208,-6.99591 0.003,-13.9921 -0.0625,-20.98774 -0.005,-0.54649 -0.4071,-2.11417 -0.1483,-1.63281 0.35889,0.66753 0.26294,1.49528 0.46681,2.22523 0.0145,0.0518 0.12801,-0.0461 0.12678,-0.0999 -0.0177,-0.77763 -0.21801,-1.54938 -0.18201,-2.32638 0.009,-0.20041 0.17651,0.36034 0.26477,0.5405 0.094,0.18362 0.2625,0.7562 0.28189,0.55085 0.0731,-0.77441 -0.0883,-1.55334 -0.11381,-2.33077 -0.0175,-0.53216 -0.0422,-2.71964 0.006,-3.33991 0.0168,-0.21726 -0.0658,-0.56702 0.14006,-0.63855 0.17838,-0.062 0.18647,0.32846 0.27971,0.49269 0.0749,0.0793 0.13978,0.16942 0.224793,0.23776 0.0502,0.0403 0.17288,0.14736 0.17425,0.083 0.0133,-0.62667 -0.0929,-1.25019 -0.13606,-1.87552 -0.496443,-7.19961 -0.239143,-16.74398 -0.0168,17.79413 0.73073,-5.60242 0.21176,-1.14698 0.005,-0.89856 -0.217823,0.26202 0.0793,-0.68182 0.0477,-1.02109 -0.006,-0.0622 -0.0984,0.18852 -0.130253,0.13477 -0.073,-0.12322 -0.0288,-0.28498 -0.0432,-0.42748 0.0579,-6.44677 0.115743,-12.89355 0.173613,-19.34032 -0.0765,-0.65651 -0.158703,-1.31237 -0.229413,-1.96952 -0.0464,-0.43074 -0.17723,-0.86431 -0.12177,-1.29398 0.0148,-0.11472 0.416693,1.68474 0.405563,1.50598 -0.0882,-1.41559 -0.426203,-2.80753 -0.505673,-4.22486 -0.0747,-0.64064 1.064503,4.18534 1.609053,3.8397 0.52539,-0.33347 -1.603763,-4.53804 -1.464253,-3.9316 0.029,0.12614 0.14188,0.49313 0.13569,0.36384 -0.0283,-0.59222 1.191113,3.59635 1.630403,3.99453 0.24158,0.21897 -1.2017,-1.51136 -1.611413,-5.31709 -0.0972,-0.76736 1.619563,4.2291 1.541763,3.45954 -0.007,-0.0723 -0.005,-0.15524 0.037,-0.21477 0.0177,-0.0253 0.0733,0.0821 0.0773,0.0514 0.0223,-0.17188 3.08427,4.28806 -0.0164,-0.51972 0.3351,1.3405 0.78803,4.95625 -0.0511,-1.07011 -0.0517,-1.03202 -0.0401,-0.35583 0.23782,0.88197 0.004,0.0168 0.56065,2.85956 0.0346,-0.0383 -0.1598,-0.88036 -0.35221,-1.76216 -0.38657,-2.65624 -0.095,-2.4713 0.53086,3.74159 0.32514,1.72921 l 0.88324,11.38956 z"
       inkscape:connector-curvature="0"
       sodipodi:nodetypes="csscsccsscccsccsscsccccccccscccssccssssscccccscsccssccssscccsccccsccccsscscccsccccscsccssscccsssscsscssccccsscccsssccsscscssssccsssscccccscssscscccccscccscscccccssccccccscsscccssccscsscccscccscccccsccssscccsssccccccssscccscsccscscsccscscsssccccccssscscccccccssccsccccssccssccsccsscscscccssccssccccsssccsscsccscsccssssscsscccsssccscscscsscccscscsscscsscssccssccsssccsccccssscsssccccccccsscsssccscccccccccccsccsssccscscscscccscssccccccccsscscsscsscsccsscccccscccsccscscscsscccccccssccc" />
    <g
       id="g6587"
       transform="matrix(0,1,-1,0,1037.2192,863.68188)">
      <path
         sodipodi:type="arc"
         style="fill:#000000;fill-opacity:1;fill-rule:nonzero;stroke:none;filter:url(#filter6523)"
         id="path6314"
         sodipodi:cx="41.378841"
         sodipodi:cy="43.912724"
         sodipodi:rx="3.6664796"
         sodipodi:ry="3.6664796"
         d="m 45.045321,43.912724 c 0,2.02494 -1.641539,3.666479 -3.66648,3.666479 -2.02494,0 -3.666479,-1.641539 -3.666479,-3.666479 0,-2.024941 1.641539,-3.66648 3.666479,-3.66648 2.024941,0 3.66648,1.641539 3.66648,3.66648 z"
         transform="matrix(0.35714285,0,0,0.35714285,4.144295,919.26252)" />
      <path
         transform="matrix(0.35714285,0,0,0.35714285,4.144295,919.26252)"
         d="m 45.045321,43.912724 c 0,2.02494 -1.641539,3.666479 -3.66648,3.666479 -2.02494,0 -3.666479,-1.641539 -3.666479,-3.666479 0,-2.024941 1.641539,-3.66648 3.666479,-3.66648 2.024941,0 3.66648,1.641539 3.66648,3.66648 z"
         sodipodi:ry="3.6664796"
         sodipodi:rx="3.6664796"
         sodipodi:cy="43.912724"
         sodipodi:cx="41.378841"
         id="path6304"
         style="fill:url(#radialGradient6591);fill-opacity:1;fill-rule:nonzero;stroke:none;filter:url(#filter6583)"
         sodipodi:type="arc" />
    </g>
    <g
       transform="matrix(0,1,-1,0,1037.2192,884.15021)"
       id="g6603">
      <path
         transform="matrix(0.35714285,0,0,0.35714285,4.144295,919.26252)"
         d="m 45.045321,43.912724 c 0,2.02494 -1.641539,3.666479 -3.66648,3.666479 -2.02494,0 -3.666479,-1.641539 -3.666479,-3.666479 0,-2.024941 1.641539,-3.66648 3.666479,-3.66648 2.024941,0 3.66648,1.641539 3.66648,3.66648 z"
         sodipodi:ry="3.6664796"
         sodipodi:rx="3.6664796"
         sodipodi:cy="43.912724"
         sodipodi:cx="41.378841"
         id="path6605"
         style="fill:#000000;fill-opacity:1;fill-rule:nonzero;stroke:none;filter:url(#filter6523)"
         sodipodi:type="arc" />
      <path
         sodipodi:type="arc"
         style="fill:url(#radialGradient6609);fill-opacity:1;fill-rule:nonzero;stroke:none;filter:url(#filter6583)"
         id="path6607"
         sodipodi:cx="41.378841"
         sodipodi:cy="43.912724"
         sodipodi:rx="3.6664796"
         sodipodi:ry="3.6664796"
         d="m 45.045321,43.912724 c 0,2.02494 -1.641539,3.666479 -3.66648,3.666479 -2.02494,0 -3.666479,-1.641539 -3.666479,-3.666479 0,-2.024941 1.641539,-3.66648 3.666479,-3.66648 2.024941,0 3.66648,1.641539 3.66648,3.66648 z"
         transform="matrix(0.35714285,0,0,0.35714285,4.144295,919.26252)" />
    </g>
    <g
       id="g6611"
       transform="matrix(0,1,-1,0,1037.2192,904.61853)">
      <path
         sodipodi:type="arc"
         style="fill:#000000;fill-opacity:1;fill-rule:nonzero;stroke:none;filter:url(#filter6523)"
         id="path6613"
         sodipodi:cx="41.378841"
         sodipodi:cy="43.912724"
         sodipodi:rx="3.6664796"
         sodipodi:ry="3.6664796"
         d="m 45.045321,43.912724 c 0,2.02494 -1.641539,3.666479 -3.66648,3.666479 -2.02494,0 -3.666479,-1.641539 -3.666479,-3.666479 0,-2.024941 1.641539,-3.66648 3.666479,-3.66648 2.024941,0 3.66648,1.641539 3.66648,3.66648 z"
         transform="matrix(0.35714285,0,0,0.35714285,4.144295,919.26252)" />
      <path
         transform="matrix(0.35714285,0,0,0.35714285,4.144295,919.26252)"
         d="m 45.045321,43.912724 c 0,2.02494 -1.641539,3.666479 -3.66648,3.666479 -2.02494,0 -3.666479,-1.641539 -3.666479,-3.666479 0,-2.024941 1.641539,-3.66648 3.666479,-3.66648 2.024941,0 3.66648,1.641539 3.66648,3.66648 z"
         sodipodi:ry="3.6664796"
         sodipodi:rx="3.6664796"
         sodipodi:cy="43.912724"
         sodipodi:cx="41.378841"
         id="path6615"
         style="fill:url(#radialGradient6617);fill-opacity:1;fill-rule:nonzero;stroke:none;filter:url(#filter6583)"
         sodipodi:type="arc" />
    </g>
    <g
       transform="matrix(0,1,-1,0,1037.2192,925.08686)"
       id="g6619">
      <path
         transform="matrix(0.35714285,0,0,0.35714285,4.144295,919.26252)"
         d="m 45.045321,43.912724 c 0,2.02494 -1.641539,3.666479 -3.66648,3.666479 -2.02494,0 -3.666479,-1.641539 -3.666479,-3.666479 0,-2.024941 1.641539,-3.66648 3.666479,-3.66648 2.024941,0 3.66648,1.641539 3.66648,3.66648 z"
         sodipodi:ry="3.6664796"
         sodipodi:rx="3.6664796"
         sodipodi:cy="43.912724"
         sodipodi:cx="41.378841"
         id="path6621"
         style="fill:#000000;fill-opacity:1;fill-rule:nonzero;stroke:none;filter:url(#filter6523)"
         sodipodi:type="arc" />
      <path
         sodipodi:type="arc"
         style="fill:url(#radialGradient6625);fill-opacity:1;fill-rule:nonzero;stroke:none;filter:url(#filter6583)"
         id="path6623"
         sodipodi:cx="41.378841"
         sodipodi:cy="43.912724"
         sodipodi:rx="3.6664796"
         sodipodi:ry="3.6664796"
         d="m 45.045321,43.912724 c 0,2.02494 -1.641539,3.666479 -3.66648,3.666479 -2.02494,0 -3.666479,-1.641539 -3.666479,-3.666479 0,-2.024941 1.641539,-3.66648 3.666479,-3.66648 2.024941,0 3.66648,1.641539 3.66648,3.66648 z"
         transform="matrix(0.35714285,0,0,0.35714285,4.144295,919.26252)" />
    </g>
    <g
       id="g6627"
       transform="matrix(0,1,-1,0,1037.2192,945.55518)">
      <path
         sodipodi:type="arc"
         style="fill:#000000;fill-opacity:1;fill-rule:nonzero;stroke:none;filter:url(#filter6523)"
         id="path6629"
         sodipodi:cx="41.378841"
         sodipodi:cy="43.912724"
         sodipodi:rx="3.6664796"
         sodipodi:ry="3.6664796"
         d="m 45.045321,43.912724 c 0,2.02494 -1.641539,3.666479 -3.66648,3.666479 -2.02494,0 -3.666479,-1.641539 -3.666479,-3.666479 0,-2.024941 1.641539,-3.66648 3.666479,-3.66648 2.024941,0 3.66648,1.641539 3.66648,3.66648 z"
         transform="matrix(0.35714285,0,0,0.35714285,4.144295,919.26252)" />
      <path
         transform="matrix(0.35714285,0,0,0.35714285,4.144295,919.26252)"
         d="m 45.045321,43.912724 c 0,2.02494 -1.641539,3.666479 -3.66648,3.666479 -2.02494,0 -3.666479,-1.641539 -3.666479,-3.666479 0,-2.024941 1.641539,-3.66648 3.666479,-3.66648 2.024941,0 3.66648,1.641539 3.66648,3.66648 z"
         sodipodi:ry="3.6664796"
         sodipodi:rx="3.6664796"
         sodipodi:cy="43.912724"
         sodipodi:cx="41.378841"
         id="path6631"
         style="fill:url(#radialGradient6633);fill-opacity:1;fill-rule:nonzero;stroke:none;filter:url(#filter6583)"
         sodipodi:type="arc" />
    </g>
    <g
       transform="matrix(0,1,-1,0,1037.2192,966.0235)"
       id="g6635">
      <path
         transform="matrix(0.35714285,0,0,0.35714285,4.144295,919.26252)"
         d="m 45.045321,43.912724 c 0,2.02494 -1.641539,3.666479 -3.66648,3.666479 -2.02494,0 -3.666479,-1.641539 -3.666479,-3.666479 0,-2.024941 1.641539,-3.66648 3.666479,-3.66648 2.024941,0 3.66648,1.641539 3.66648,3.66648 z"
         sodipodi:ry="3.6664796"
         sodipodi:rx="3.6664796"
         sodipodi:cy="43.912724"
         sodipodi:cx="41.378841"
         id="path6637"
         style="fill:#000000;fill-opacity:1;fill-rule:nonzero;stroke:none;filter:url(#filter6523)"
         sodipodi:type="arc" />
      <path
         sodipodi:type="arc"
         style="fill:url(#radialGradient6641);fill-opacity:1;fill-rule:nonzero;stroke:none;filter:url(#filter6583)"
         id="path6639"
         sodipodi:cx="41.378841"
         sodipodi:cy="43.912724"
         sodipodi:rx="3.6664796"
         sodipodi:ry="3.6664796"
         d="m 45.045321,43.912724 c 0,2.02494 -1.641539,3.666479 -3.66648,3.666479 -2.02494,0 -3.666479,-1.641539 -3.666479,-3.666479 0,-2.024941 1.641539,-3.66648 3.666479,-3.66648 2.024941,0 3.66648,1.641539 3.66648,3.66648 z"
         transform="matrix(0.35714285,0,0,0.35714285,4.144295,919.26252)" />
    </g>
    <g
       id="g6643"
       transform="matrix(0,1,-1,0,1037.2192,986.49182)">
      <path
         sodipodi:type="arc"
         style="fill:#000000;fill-opacity:1;fill-rule:nonzero;stroke:none;filter:url(#filter6523)"
         id="path6645"
         sodipodi:cx="41.378841"
         sodipodi:cy="43.912724"
         sodipodi:rx="3.6664796"
         sodipodi:ry="3.6664796"
         d="m 45.045321,43.912724 c 0,2.02494 -1.641539,3.666479 -3.66648,3.666479 -2.02494,0 -3.666479,-1.641539 -3.666479,-3.666479 0,-2.024941 1.641539,-3.66648 3.666479,-3.66648 2.024941,0 3.66648,1.641539 3.66648,3.66648 z"
         transform="matrix(0.35714285,0,0,0.35714285,4.144295,919.26252)" />
      <path
         transform="matrix(0.35714285,0,0,0.35714285,4.144295,919.26252)"
         d="m 45.045321,43.912724 c 0,2.02494 -1.641539,3.666479 -3.66648,3.666479 -2.02494,0 -3.666479,-1.641539 -3.666479,-3.666479 0,-2.024941 1.641539,-3.66648 3.666479,-3.66648 2.024941,0 3.66648,1.641539 3.66648,3.66648 z"
         sodipodi:ry="3.6664796"
         sodipodi:rx="3.6664796"
         sodipodi:cy="43.912724"
         sodipodi:cx="41.378841"
         id="path6647"
         style="fill:url(#radialGradient6649);fill-opacity:1;fill-rule:nonzero;stroke:none;filter:url(#filter6583)"
         sodipodi:type="arc" />
    </g>
    <g
       transform="matrix(0,1,-1,0,1037.2192,1006.9601)"
       id="g6651">
      <path
         transform="matrix(0.35714285,0,0,0.35714285,4.144295,919.26252)"
         d="m 45.045321,43.912724 c 0,2.02494 -1.641539,3.666479 -3.66648,3.666479 -2.02494,0 -3.666479,-1.641539 -3.666479,-3.666479 0,-2.024941 1.641539,-3.66648 3.666479,-3.66648 2.024941,0 3.66648,1.641539 3.66648,3.66648 z"
         sodipodi:ry="3.6664796"
         sodipodi:rx="3.6664796"
         sodipodi:cy="43.912724"
         sodipodi:cx="41.378841"
         id="path6653"
         style="fill:#000000;fill-opacity:1;fill-rule:nonzero;stroke:none;filter:url(#filter6523)"
         sodipodi:type="arc" />
      <path
         sodipodi:type="arc"
         style="fill:url(#radialGradient6657);fill-opacity:1;fill-rule:nonzero;stroke:none;filter:url(#filter6583)"
         id="path6655"
         sodipodi:cx="41.378841"
         sodipodi:cy="43.912724"
         sodipodi:rx="3.6664796"
         sodipodi:ry="3.6664796"
         d="m 45.045321,43.912724 c 0,2.02494 -1.641539,3.666479 -3.66648,3.666479 -2.02494,0 -3.666479,-1.641539 -3.666479,-3.666479 0,-2.024941 1.641539,-3.66648 3.666479,-3.66648 2.024941,0 3.66648,1.641539 3.66648,3.66648 z"
         transform="matrix(0.35714285,0,0,0.35714285,4.144295,919.26252)" />
    </g>
    <rect
       transform="matrix(0,4.6891399,-0.64622657,0,712.43989,137.48735)"
       y="950.74829"
       x="153.5993"
       height="5.2378278"
       width="38.498035"
       id="rect6737"
       style="fill:url(#linearGradient6739);fill-opacity:1;fill-rule:nonzero;stroke:none;filter:url(#filter6180-1-7)" />
    <rect
       style="fill:url(#linearGradient6743);fill-opacity:1;fill-rule:nonzero;stroke:none;filter:url(#filter6180-1-7)"
       id="rect6741"
       width="38.498035"
       height="5.2378278"
       x="153.5993"
       y="950.74829"
       transform="matrix(0,4.6891399,-0.64622657,0,723.43933,137.48735)" />
  </g>
</svg>
