<?xml version="1.0" encoding="UTF-8" standalone="no"?>
<!-- Created with Inkscape (http://www.inkscape.org/) -->

<svg
   xmlns:dc="http://purl.org/dc/elements/1.1/"
   xmlns:cc="http://creativecommons.org/ns#"
   xmlns:rdf="http://www.w3.org/1999/02/22-rdf-syntax-ns#"
   xmlns:svg="http://www.w3.org/2000/svg"
   xmlns="http://www.w3.org/2000/svg"
   xmlns:xlink="http://www.w3.org/1999/xlink"
   xmlns:sodipodi="http://sodipodi.sourceforge.net/DTD/sodipodi-0.dtd"
   xmlns:inkscape="http://www.inkscape.org/namespaces/inkscape"
   sodipodi:docname="grass1.svg"
   inkscape:version="0.48.0 r9654"
   version="1.1"
   id="svg2"
   height="200"
   width="200">
  <sodipodi:namedview
     id="base"
     pagecolor="#868686"
     bordercolor="#666666"
     borderopacity="1.0"
     inkscape:pageopacity="1"
     inkscape:pageshadow="2"
     inkscape:zoom="2.7"
     inkscape:cx="118.91802"
     inkscape:cy="81.302122"
     inkscape:document-units="px"
     inkscape:current-layer="layer1"
     showgrid="false"
     inkscape:window-width="1280"
     inkscape:window-height="744"
     inkscape:window-x="-3"
     inkscape:window-y="-3"
     inkscape:window-maximized="1"
     inkscape:snap-global="true">
    <inkscape:grid
       type="xygrid"
       id="grid3023"
       empspacing="5"
       visible="true"
       enabled="true"
       snapvisiblegridlinesonly="true" />
  </sodipodi:namedview>
  <defs
     id="defs4">
    <linearGradient
       id="linearGradient4393">
      <stop
         style="stop-color:#0e0500;stop-opacity:1;"
         offset="0"
         id="stop4395" />
      <stop
         style="stop-color:#130d07;stop-opacity:1;"
         offset="1"
         id="stop4397" />
    </linearGradient>
    <linearGradient
       id="linearGradient4042">
      <stop
         id="stop4044"
         offset="0"
         style="stop-color:#000000;stop-opacity:1;" />
      <stop
         id="stop4046"
         offset="1"
         style="stop-color:#3f2e1f;stop-opacity:1;" />
    </linearGradient>
    <linearGradient
       id="linearGradient3816">
      <stop
         id="stop3818"
         offset="0"
         style="stop-color:#173600;stop-opacity:1;" />
      <stop
         id="stop3820"
         offset="1"
         style="stop-color:#2e4a11;stop-opacity:0.33333334;" />
    </linearGradient>
    <linearGradient
       gradientUnits="userSpaceOnUse"
       y2="102.67907"
       x2="20.203136"
       y1="121.4043"
       x1="37.177952"
       id="linearGradient3822"
       xlink:href="#linearGradient3816"
       inkscape:collect="always" />
    <linearGradient
       inkscape:collect="always"
       xlink:href="#linearGradient3816"
       id="linearGradient4004"
       gradientUnits="userSpaceOnUse"
       x1="37.177952"
       y1="121.4043"
       x2="20.203136"
       y2="102.67907"
       gradientTransform="translate(-1.1111111,18.148148)" />
    <linearGradient
       y2="102.67907"
       x2="20.203136"
       y1="121.4043"
       x1="37.177952"
       gradientTransform="translate(-0.74074073,-7.4074076)"
       gradientUnits="userSpaceOnUse"
       id="linearGradient4038"
       xlink:href="#linearGradient3816"
       inkscape:collect="always" />
    <linearGradient
       gradientTransform="translate(-0.56871631,-9.7381086)"
       y2="102.67907"
       x2="20.203136"
       y1="121.4043"
       x1="37.177952"
       gradientUnits="userSpaceOnUse"
       id="linearGradient4040"
       xlink:href="#linearGradient3816"
       inkscape:collect="always" />
    <linearGradient
       gradientUnits="userSpaceOnUse"
       y2="982.36218"
       x2="95"
       y1="1052.3622"
       x1="95"
       id="linearGradient4048"
       xlink:href="#linearGradient4042"
       inkscape:collect="always" />
    <filter
       id="filter4050"
       inkscape:collect="always">
      <feGaussianBlur
         id="feGaussianBlur4052"
         stdDeviation="0.67619389"
         inkscape:collect="always" />
    </filter>
    <linearGradient
       gradientTransform="translate(2.5925926,833.10292)"
       y2="102.67907"
       x2="20.203136"
       y1="121.4043"
       x1="37.177952"
       gradientUnits="userSpaceOnUse"
       id="linearGradient4054"
       xlink:href="#linearGradient3816"
       inkscape:collect="always" />
    <linearGradient
       inkscape:collect="always"
       xlink:href="#linearGradient3816"
       id="linearGradient4213"
       gradientUnits="userSpaceOnUse"
       gradientTransform="translate(30.686227,-11.859561)"
       x1="37.177952"
       y1="121.4043"
       x2="20.203136"
       y2="102.67907" />
    <linearGradient
       gradientUnits="userSpaceOnUse"
       y2="982.36218"
       x2="95"
       y1="1052.3622"
       x1="95"
       id="linearGradient4048-3"
       xlink:href="#linearGradient4042-8"
       inkscape:collect="always" />
    <linearGradient
       id="linearGradient4042-8">
      <stop
         id="stop4044-0"
         offset="0"
         style="stop-color:#0b2400;stop-opacity:1;" />
      <stop
         id="stop4046-9"
         offset="1"
         style="stop-color:#243f1f;stop-opacity:0;" />
    </linearGradient>
    <linearGradient
       gradientTransform="translate(-4.9e-6,-4.9999992)"
       y2="961.14899"
       x2="93.690544"
       y1="1052.3622"
       x1="95"
       gradientUnits="userSpaceOnUse"
       id="linearGradient4232"
       xlink:href="#linearGradient4042-8"
       inkscape:collect="always" />
    <filter
       inkscape:collect="always"
       id="filter4295"
       x="-0.070599966"
       width="1.1411999"
       y="-0.12267162"
       height="1.2453432">
      <feGaussianBlur
         inkscape:collect="always"
         stdDeviation="5.8833306"
         id="feGaussianBlur4297" />
    </filter>
    <filter
       inkscape:collect="always"
       id="filter4327">
      <feGaussianBlur
         inkscape:collect="always"
         stdDeviation="1.244017"
         id="feGaussianBlur4329" />
    </filter>
    <filter
       inkscape:collect="always"
       id="filter4349">
      <feGaussianBlur
         inkscape:collect="always"
         stdDeviation="0.11309245"
         id="feGaussianBlur4351" />
    </filter>
    <filter
       inkscape:collect="always"
       id="filter4365">
      <feGaussianBlur
         inkscape:collect="always"
         stdDeviation="1.2643817"
         id="feGaussianBlur4367" />
    </filter>
    <filter
       inkscape:collect="always"
       id="filter4387">
      <feGaussianBlur
         inkscape:collect="always"
         stdDeviation="0.11494379"
         id="feGaussianBlur4389" />
    </filter>
    <linearGradient
       inkscape:collect="always"
       xlink:href="#linearGradient4393"
       id="linearGradient4399"
       x1="-0.5"
       y1="171.33002"
       x2="200.5"
       y2="171.33002"
       gradientUnits="userSpaceOnUse" />
    <filter
       inkscape:collect="always"
       id="filter4405"
       x="-0.036687194"
       width="1.0733744"
       y="-0.14633915"
       height="1.2926783">
      <feGaussianBlur
         inkscape:collect="always"
         stdDeviation="3.0572662"
         id="feGaussianBlur4407" />
    </filter>
    <filter
       inkscape:collect="always"
       id="filter4451">
      <feGaussianBlur
         inkscape:collect="always"
         stdDeviation="0.31267495"
         id="feGaussianBlur4453" />
    </filter>
  </defs>
  <metadata
     id="metadata7">
    <rdf:RDF>
      <cc:Work
         rdf:about="">
        <dc:format>image/svg+xml</dc:format>
        <dc:type
           rdf:resource="http://purl.org/dc/dcmitype/StillImage" />
        <dc:title />
      </cc:Work>
    </rdf:RDF>
  </metadata>
  <g
     inkscape:label="Layer 1"
     inkscape:groupmode="layer"
     id="layer1"
     transform="translate(0,-852.36218)">
    <path
       style="fill:url(#linearGradient4048);stroke:#000000;stroke-width:1px;stroke-linecap:butt;stroke-linejoin:miter;stroke-opacity:1;fill-opacity:1;filter:url(#filter4050)"
       d="m 0,987.48255 c 0,0 45,14.87965 55,9.87963 10,-5 20,-10 45,-15 14.70871,-2.94174 38.06625,8.61325 45,10 25,5 55,-5 55,-5 l 0,65.00002 -200,0 z"
       id="path3025" />
    <path
       sodipodi:nodetypes="cccccccccccccccccccccccccccccccccccccccccccccccccccccccccccccccccccccccccccccccccccccccccccccccccccccccccccccccccccccccccccccccccccccccccccccccccccccccccccccccccccccccccccccccccccccccccccccccccccccccc"
       style="fill:url(#linearGradient4038);fill-opacity:1;stroke:none;filter:url(#filter4365)"
       d="m 1.496881,972.91705 c 1.2341107,4.95239 3.9221302,12.11059 2.2197419,16.02099 l 3.078892,1.2939 c 0,0 -1.985487,-11.0408 -5.2986339,-17.31489 l 0,0 m 4.8048948,1.50202 c 1.2341107,4.95237 4.0086602,12.03147 2.3876766,15.97647 l 2.9411896,1.2385 c 0,0 -2.0157193,-10.9409 -5.3288662,-17.21497 l 0,0 m 4.6712892,1.40657 c 1.336565,4.9259 4.25305,11.9987 2.728326,15.9818 l 2.970333,1.1668 c 0,0 -2.256048,-10.9444 -5.698659,-17.1486 l 0,0 m 4.835128,1.4021 c 1.336564,4.9259 4.285571,11.8809 2.760847,15.864 l 3.153008,1.201 c 0,0 -2.471244,-10.8608 -5.913855,-17.065 l 0,0 m 4.690107,1.2433 c 1.455708,4.8919 4.549198,11.8727 3.12343,15.8923 l 3.162684,1.1157 c 0,0 -2.693991,-10.8893 -6.286114,-17.008 l 0,0 m 4.690506,1.2281 c 1.576289,4.8545 4.833178,11.7585 3.496366,15.8086 l 3.233888,1.0448 c 0,0 -2.987818,-10.8253 -6.730254,-16.8534 l 0,0 m 4.739834,1.1135 c 1.682888,4.8185 5.11315,11.6288 3.891197,15.7149 l 3.33303,0.9429 c 0,0 -3.349872,-10.7137 -7.224227,-16.6578 l 0,0 m 4.719416,0.9909 c 1.818179,4.769 5.471689,11.4422 4.403263,15.571 l 3.363492,0.7962 c 0,0 -3.726255,-10.535 -7.766755,-16.3672 l 0,0 m 4.680881,0.8268 c 1.994985,4.6976 5.990107,11.1555 5.202038,15.3469 l 3.764632,0.4918 c 0,0 -4.711279,-10.1617 -8.96667,-15.8387 l 0,0 m 4.716415,0.6298 c 2.165991,4.6215 6.713521,10.4891 6.527599,14.7494 l 5.153761,-0.5757 c 0,0 -7.220464,-8.6562 -11.68136,-14.1737 l 0,0 m 4.168869,0.2108 c 2.678943,4.3438 8.420088,8.5307 9.89426,12.5329 l 3.004146,-1.0769 c 0,0 -7.837508,-6.484 -12.898406,-11.456 l 0,0 m 2.526124,-0.1805 c 3.952944,3.2271 10.373191,6.5289 11.775662,10.5567 l 2.808667,-0.9131 c 0,0 -8.175316,-6.6027 -14.584329,-9.6436 l 0,0 m 3.705807,-1.8006 c 4.316131,2.7244 11.16761,6.2898 12.440181,10.3604 l 2.783167,-0.7835 c 0,0 -8.49133,-7.3354 -15.223348,-9.5769 l 0,0 m 4.89114,-2.3081 c 4.17459,2.9362 10.830318,6.7467 11.936553,10.8655 l 2.790528,-0.667 c 0,0 -8.115652,-7.6239 -14.727081,-10.1985 l 0,0 m 4.908204,-2.0988 c 4.051863,3.1033 10.540005,7.1855 11.466045,11.3486 l 3.120893,-0.6659 c 0,0 -8.085606,-7.8419 -14.586938,-10.6827 l 0,0 m 5.008238,-1.9091 c 3.913047,3.2765 10.209821,7.5998 10.95948,11.7982 l 3.146226,-0.5336 c 0,0 -7.734099,-8.1437 -14.105706,-11.2646 l 0,0 m 4.76806,-1.61457 c 3.913047,3.27657 10.273718,7.80227 11.023377,12.00067 l 2.899721,-0.3421 c 0,0 -7.55149,-8.5377 -13.923098,-11.65857 l 0,0 m 5.130362,-1.51764 c 3.771425,3.43871 9.923133,8.13891 10.510989,12.36311 l 2.922152,-0.34 c 0,0 -7.198756,-8.6363 -13.433141,-12.02311 l 0,0 m 5.141478,-1.3718 c 3.636615,3.58105 9.590952,8.39851 10.036328,12.64011 l 3.176575,-0.3056 c 0,0 -7.113119,-8.71064 -13.212903,-12.33451 l 0,0 m 5.131999,-1.26788 c 3.514095,3.70145 9.380193,8.60589 9.825569,12.84759 l 2.402898,-0.093 c 0,0 -6.254006,-8.92755 -12.228467,-12.75469 l 0,0 m 4.92124,-1.06046 c 3.514095,3.70144 8.981257,9.05495 8.744517,13.31305 l 2.50588,0.3516 c 0,0 -5.27594,-9.83752 -11.250397,-13.66465 l 0,0 m 5.726437,-1.09932 c 3.09984,4.0541 7.90925,10.29887 7.12534,14.49107 l 2.63153,0.6819 c 0,0 -4.22424,-10.73204 -9.75687,-15.17297 l 0,0 m 6.10543,-0.22369 c 2.48448,4.45819 6.47986,11.21126 5.2579,15.29706 l 2.70946,0.9186 c 0,0 -3.13091,-11.02461 -7.96736,-16.21566 l 0,0 m 5.78385,0.54951 c 2.00891,4.69192 5.48787,11.69975 4.08344,15.72675 l 2.71669,1.1052 c 0,0 -2.52784,-11.16722 -6.80013,-16.83195 l 0,0 m 5.57289,1.05518 c 1.60185,4.84584 4.58021,11.95387 2.91641,15.88097 l 2.69893,1.2268 c 0,0 -1.84128,-11.0999 -5.61534,-17.10777 l 0,0 m 5.14389,1.29784 c 1.42525,4.90083 4.14079,12.17843 2.35687,16.05233 l 2.88693,1.3599 c 0,0 -1.68982,-11.2714 -5.2438,-17.41223 l 0,0 m 5.24559,1.59074 c 1.13008,4.97719 3.59556,12.20549 1.72754,16.03979 l 2.85673,1.4226 c 0,0 -1.4033,-11.1203 -4.58427,-17.46239 l 0,0 m 4.77235,1.60233 c 1.13008,4.97716 3.57869,12.30976 1.73478,16.15556 l 2.86551,1.4046 c 0,0 -1.41933,-11.2181 -4.60029,-17.56016 l 0,0 m 4.89506,1.74766 c 1.02138,5.0008 3.54055,12.2333 1.83465,16.1421 l 3.86,1.3962 c 0,0 -2.65254,-11.1281 -5.69465,-17.5383 l 0,0 m 4.69971,1.669 c 1.05267,4.9942 4.0997,11.7447 2.89557,15.8361 l 3.58586,0.8761 c 0,0 -3.3993,-10.3214 -6.48143,-16.7122 l 0,0 m 3.65966,1.1088 c 1.8389,4.761 5.72503,11.2669 4.93573,15.4582 l 3.3484,0.6084 c 0,0 -4.21833,-10.2521 -8.28413,-16.0666 l 0,0 m 4.46108,0.6939 c 2.16325,4.6227 6.45006,10.8665 5.8956,15.0953 l 3.43646,0.4055 c 0,0 -4.87446,-9.9808 -9.33206,-15.5008 l 0,0 m 4.5675,0.3917 c 2.43594,4.4851 7.02213,10.4666 6.6236,14.7126 l 3.50135,0.2583 c 0,0 -5.34506,-9.7274 -10.12495,-14.9709 l 0,0 m 4.55398,0.112 c 2.71631,4.3207 7.62271,10.1217 7.41087,14.3812 l 3.46901,0.1024 c 0,0 -5.77624,-9.5552 -10.87988,-14.4836 l 0,0 m 4.70253,-0.1149 c 2.90335,4.1975 8.04514,9.7857 7.99751,14.0503 l 3.43591,-0.035 c 0,0 -6.11833,-9.3154 -11.43342,-14.0152 l 0,0 m 4.73282,-0.331 c 3.06291,4.0826 8.40378,9.4727 8.5011,13.7365 l 3.40281,-0.1582 c 0,0 -6.41167,-9.0866 -11.90391,-13.5783 l 0,0 m 4.74957,-0.5257 c 3.1999,3.9762 8.78242,9.1455 9.12249,13.3969 l 3.18322,-0.2268 c 0,0 -6.66395,-8.8676 -12.30571,-13.1701 l 0,0 m 4.75601,-0.7026 c 3.3183,3.878 9.03119,8.8495 9.47342,13.0915 l 3.39308,-0.389 c 0,0 -7.09759,-8.5719 -12.8665,-12.7025 l 0,0 m 4.75454,-0.8641 c 3.42128,3.7875 9.26113,8.5337 9.83322,12.76 l 3.418,-0.4768 c 0,0 -7.37341,-8.3091 -13.25122,-12.2832 l 0,0 m 4.51504,-0.9947 c 3.62319,3.5945 9.70807,8.2077 10.42811,12.4114 l 1.76088,-0.6053 c 0,0 -6.10283,-8.1596 -12.18899,-11.8061 l 0,0"
       id="path8492"
       inkscape:connector-curvature="0" />
    <path
       sodipodi:nodetypes="cccccccccccccccccccccccccccccccccccccccccccccccccccccccccccccccccccccccccccccccccccccccccccccccccccc"
       inkscape:connector-curvature="0"
       style="fill:url(#linearGradient4040);fill-opacity:1;stroke:none;filter:url(#filter4327)"
       d="m 2.3871571,968.2887 c 1.2689243,4.9633 2.2212734,16.62325 0.5128774,20.53179 l 3.1667866,1.32608 c 0,0 -0.3005181,-15.56316 -3.679664,-21.85787 l 0,0 m 9.1981609,2.8274 c 1.371598,4.93604 2.699079,16.57343 1.168269,20.55492 l 3.012431,1.17785 c 0,0 -0.671674,-15.50933 -4.1807,-21.73277 l 0,0 m 9.235563,2.5743 c 1.490977,4.90121 3.106291,16.48996 1.674399,20.50818 l 3.040702,1.103 c 0,0 -1.056116,-15.47485 -4.715101,-21.61118 l 0,0 m 9.294647,2.33316 c 1.611778,4.86293 3.680785,16.27307 2.452645,20.35805 l 3.45876,1.00075 c 0,0 -2.101689,-15.31473 -5.911405,-21.3588 l 0,0 m 8.785963,1.75519 c 2.031075,4.70291 5.169385,15.97971 4.375043,20.17068 l 3.547339,0.58289 c 0,0 -3.598574,-15.06648 -7.922382,-20.75357 l 0,0 m 8.73188,0.95672 c 2.511597,4.46485 8.331621,14.00851 9.303336,18.16115 l 4.129338,-1.50457 c 0,0 -8.538004,-11.45262 -13.432674,-16.65658 l 0,0 m 4.626346,-1.09368 c 4.348808,2.70821 12.91431,10.699 14.181111,14.77209 l 3.093897,-0.94308 c 0,0 -10.481041,-11.61815 -17.275008,-13.82901 l 0,0 m 9.365751,-4.33756 c 4.208035,2.92166 12.252452,11.54062 13.172531,15.70566 l 3.162132,-0.67978 c 0,0 -9.659832,-12.47893 -16.334663,-15.02588 l 0,0 m 9.979868,-3.74062 c 3.947596,3.26483 11.430853,12.39346 12.174471,16.59364 l 2.830527,-0.41007 c 0,0 -8.567895,-13.08486 -15.004998,-16.18357 l 0,0 m 10.181732,-3.03413 c 3.671995,3.57216 10.567727,13.02241 11.149479,17.24811 l 2.905672,-0.24571 c 0,0 -7.888297,-13.39537 -14.055151,-17.0024 l 0,0 m 9.881274,-2.367 c 3.549754,3.69377 9.890178,13.47569 10.129588,17.73405 l 2.14205,0.17331 c 0,0 -6.229577,-14.09479 -12.271638,-17.90736 l 0,0 m 11.240138,-1.87846 c 2.91508,4.2123 6.98586,15.5431 6.05164,19.70513 l 2.43123,0.78016 c 0,0 -3.12649,-15.75828 -8.48287,-20.48529 l 0,0 m 12.08803,1.0033 c 1.85383,4.77542 3.71137,16.43809 2.15585,20.40995 l 2.71995,1.15074 c 0,0 -0.76768,-15.71612 -4.8758,-21.56069 l 0,0 m 10.60102,2.59158 c 1.31778,4.95064 2.1839,16.69417 0.39401,20.56605 l 2.71624,1.32606 c 0,0 0.3308,-15.6309 -3.11025,-21.89211 l 0,0 m 9.82501,3.24986 c 1.0557,5.01317 1.54504,16.70089 -0.30479,20.54456 l 3.24351,1.52262 c 0,0 0.16845,-15.63359 -2.93872,-22.06718 l 0,0 m 8.86753,3.16157 c 1.26437,4.96433 3.18439,16.20874 2.12121,20.3397 l 3.46259,0.80607 c 0,0 -2.21047,-14.84815 -5.5838,-21.14577 l 0,0 m 7.74931,1.4505 c 2.1995,4.62674 5.86219,15.55611 5.30143,19.78476 l 3.56864,0.37146 c 0,0 -4.34374,-14.62863 -8.87007,-20.15622 l 0,0 m 8.59189,0.34518 c 2.75279,4.3202 7.5179,14.90585 7.29977,19.16576 l 3.60282,0.0651 c 0,0 -5.7298,-14.30346 -10.90259,-19.23086 l 0,0 m 8.99438,-0.49076 c 3.09921,4.07906 8.67137,14.26729 8.76245,18.53192 l 3.51567,-0.18869 c 0,0 -6.71705,-13.85823 -12.27812,-18.34323 l 0,0 m 9.10996,-1.21598 c 3.35431,3.87216 9.64616,13.6137 10.08224,17.85704 l 3.50591,-0.42204 c 0,0 -7.75098,-13.3155 -13.58815,-17.435 l 0,0"
       id="path3442" />
    <path
       inkscape:connector-curvature="0"
       style="opacity:0.35294118;fill:url(#linearGradient4232);fill-opacity:1;stroke:none;filter:url(#filter4295)"
       d="m -18.148153,981.37145 c 0,0 63.148148,15.99065 73.148148,10.99071 10,-5 20.523783,-30.4275 45.523785,-35.42748 14.70871,-2.94174 37.54247,29.04078 44.47622,30.42748 25,5 66.11111,-5 66.11111,-5 l 0,54.99994 c -5,15 -51.11111,59.9999 -86.11111,15 -15.03521,-19.331 -25,-15 -35,0 -10,15 -78.148148,21.3888 -108.148148,-16.1111 z"
       id="path3025-9"
       transform="matrix(1,0,0,0.33333378,0,651.57435)"
       sodipodi:nodetypes="csssccszcc" />
    <path
       id="path4331"
       d="m 2.3871571,968.2887 c 1.2689243,4.9633 2.2212734,16.62325 0.5128774,20.53179 l 3.1667866,1.32608 c 0,0 -0.3005181,-15.56316 -3.679664,-21.85787 l 0,0 m 9.1981609,2.8274 c 1.371598,4.93604 2.699079,16.57343 1.168269,20.55492 l 3.012431,1.17785 c 0,0 -0.671674,-15.50933 -4.1807,-21.73277 l 0,0 m 9.235563,2.5743 c 1.490977,4.90121 3.106291,16.48996 1.674399,20.50818 l 3.040702,1.103 c 0,0 -1.056116,-15.47485 -4.715101,-21.61118 l 0,0 m 9.294647,2.33316 c 1.611778,4.86293 3.680785,16.27307 2.452645,20.35805 l 3.45876,1.00075 c 0,0 -2.101689,-15.31473 -5.911405,-21.3588 l 0,0 m 8.785963,1.75519 c 2.031075,4.70291 5.169385,15.97971 4.375043,20.17068 l 3.547339,0.58289 c 0,0 -3.598574,-15.06648 -7.922382,-20.75357 l 0,0 m 8.73188,0.95672 c 2.511597,4.46485 8.331621,14.00851 9.303336,18.16115 l 4.129338,-1.50457 c 0,0 -8.538004,-11.45262 -13.432674,-16.65658 l 0,0 m 4.626346,-1.09368 c 4.348808,2.70821 12.91431,10.699 14.181111,14.77209 l 3.093897,-0.94308 c 0,0 -10.481041,-11.61815 -17.275008,-13.82901 l 0,0 m 9.365751,-4.33756 c 4.208035,2.92166 12.252452,11.54062 13.172531,15.70566 l 3.162132,-0.67978 c 0,0 -9.659832,-12.47893 -16.334663,-15.02588 l 0,0 m 9.979868,-3.74062 c 3.947596,3.26483 11.430853,12.39346 12.174471,16.59364 l 2.830527,-0.41007 c 0,0 -8.567895,-13.08486 -15.004998,-16.18357 l 0,0 m 10.181732,-3.03413 c 3.671995,3.57216 10.567727,13.02241 11.149479,17.24811 l 2.905672,-0.24571 c 0,0 -7.888297,-13.39537 -14.055151,-17.0024 l 0,0 m 9.881274,-2.367 c 3.549754,3.69377 9.890178,13.47569 10.129588,17.73405 l 2.14205,0.17331 c 0,0 -6.229577,-14.09479 -12.271638,-17.90736 l 0,0 m 11.240138,-1.87846 c 2.91508,4.2123 6.98586,15.5431 6.05164,19.70513 l 2.43123,0.78016 c 0,0 -3.12649,-15.75828 -8.48287,-20.48529 l 0,0 m 12.08803,1.0033 c 1.85383,4.77542 3.71137,16.43809 2.15585,20.40995 l 2.71995,1.15074 c 0,0 -0.76768,-15.71612 -4.8758,-21.56069 l 0,0 m 10.60102,2.59158 c 1.31778,4.95064 2.1839,16.69417 0.39401,20.56605 l 2.71624,1.32606 c 0,0 0.3308,-15.6309 -3.11025,-21.89211 l 0,0 m 9.82501,3.24986 c 1.0557,5.01317 1.54504,16.70089 -0.30479,20.54456 l 3.24351,1.52262 c 0,0 0.16845,-15.63359 -2.93872,-22.06718 l 0,0 m 8.86753,3.16157 c 1.26437,4.96433 3.18439,16.20874 2.12121,20.3397 l 3.46259,0.80607 c 0,0 -2.21047,-14.84815 -5.5838,-21.14577 l 0,0 m 7.74931,1.4505 c 2.1995,4.62674 5.86219,15.55611 5.30143,19.78476 l 3.56864,0.37146 c 0,0 -4.34374,-14.62863 -8.87007,-20.15622 l 0,0 m 8.59189,0.34518 c 2.75279,4.3202 7.5179,14.90585 7.29977,19.16576 l 3.60282,0.0651 c 0,0 -5.7298,-14.30346 -10.90259,-19.23086 l 0,0 m 8.99438,-0.49076 c 3.09921,4.07906 8.67137,14.26729 8.76245,18.53192 l 3.51567,-0.18869 c 0,0 -6.71705,-13.85823 -12.27812,-18.34323 l 0,0 m 9.10996,-1.21598 c 3.35431,3.87216 9.64616,13.6137 10.08224,17.85704 l 3.50591,-0.42204 c 0,0 -7.75098,-13.3155 -13.58815,-17.435 l 0,0"
       style="fill:url(#linearGradient4040);fill-opacity:1;stroke:none;filter:url(#filter4349)"
       inkscape:connector-curvature="0"
       sodipodi:nodetypes="cccccccccccccccccccccccccccccccccccccccccccccccccccccccccccccccccccccccccccccccccccccccccccccccccccc" />
    <path
       inkscape:connector-curvature="0"
       id="path4369"
       d="m 1.496881,972.91705 c 1.2341107,4.95239 3.9221302,12.11059 2.2197419,16.02099 l 3.078892,1.2939 c 0,0 -1.985487,-11.0408 -5.2986339,-17.31489 l 0,0 m 4.8048948,1.50202 c 1.2341107,4.95237 4.0086602,12.03147 2.3876766,15.97647 l 2.9411896,1.2385 c 0,0 -2.0157193,-10.9409 -5.3288662,-17.21497 l 0,0 m 4.6712892,1.40657 c 1.336565,4.9259 4.25305,11.9987 2.728326,15.9818 l 2.970333,1.1668 c 0,0 -2.256048,-10.9444 -5.698659,-17.1486 l 0,0 m 4.835128,1.4021 c 1.336564,4.9259 4.285571,11.8809 2.760847,15.864 l 3.153008,1.201 c 0,0 -2.471244,-10.8608 -5.913855,-17.065 l 0,0 m 4.690107,1.2433 c 1.455708,4.8919 4.549198,11.8727 3.12343,15.8923 l 3.162684,1.1157 c 0,0 -2.693991,-10.8893 -6.286114,-17.008 l 0,0 m 4.690506,1.2281 c 1.576289,4.8545 4.833178,11.7585 3.496366,15.8086 l 3.233888,1.0448 c 0,0 -2.987818,-10.8253 -6.730254,-16.8534 l 0,0 m 4.739834,1.1135 c 1.682888,4.8185 5.11315,11.6288 3.891197,15.7149 l 3.33303,0.9429 c 0,0 -3.349872,-10.7137 -7.224227,-16.6578 l 0,0 m 4.719416,0.9909 c 1.818179,4.769 5.471689,11.4422 4.403263,15.571 l 3.363492,0.7962 c 0,0 -3.726255,-10.535 -7.766755,-16.3672 l 0,0 m 4.680881,0.8268 c 1.994985,4.6976 5.990107,11.1555 5.202038,15.3469 l 3.764632,0.4918 c 0,0 -4.711279,-10.1617 -8.96667,-15.8387 l 0,0 m 4.716415,0.6298 c 2.165991,4.6215 6.713521,10.4891 6.527599,14.7494 l 5.153761,-0.5757 c 0,0 -7.220464,-8.6562 -11.68136,-14.1737 l 0,0 m 4.168869,0.2108 c 2.678943,4.3438 8.420088,8.5307 9.89426,12.5329 l 3.004146,-1.0769 c 0,0 -7.837508,-6.484 -12.898406,-11.456 l 0,0 m 2.526124,-0.1805 c 3.952944,3.2271 10.373191,6.5289 11.775662,10.5567 l 2.808667,-0.9131 c 0,0 -8.175316,-6.6027 -14.584329,-9.6436 l 0,0 m 3.705807,-1.8006 c 4.316131,2.7244 11.16761,6.2898 12.440181,10.3604 l 2.783167,-0.7835 c 0,0 -8.49133,-7.3354 -15.223348,-9.5769 l 0,0 m 4.89114,-2.3081 c 4.17459,2.9362 10.830318,6.7467 11.936553,10.8655 l 2.790528,-0.667 c 0,0 -8.115652,-7.6239 -14.727081,-10.1985 l 0,0 m 4.908204,-2.0988 c 4.051863,3.1033 10.540005,7.1855 11.466045,11.3486 l 3.120893,-0.6659 c 0,0 -8.085606,-7.8419 -14.586938,-10.6827 l 0,0 m 5.008238,-1.9091 c 3.913047,3.2765 10.209821,7.5998 10.95948,11.7982 l 3.146226,-0.5336 c 0,0 -7.734099,-8.1437 -14.105706,-11.2646 l 0,0 m 4.76806,-1.61457 c 3.913047,3.27657 10.273718,7.80227 11.023377,12.00067 l 2.899721,-0.3421 c 0,0 -7.55149,-8.5377 -13.923098,-11.65857 l 0,0 m 5.130362,-1.51764 c 3.771425,3.43871 9.923133,8.13891 10.510989,12.36311 l 2.922152,-0.34 c 0,0 -7.198756,-8.6363 -13.433141,-12.02311 l 0,0 m 5.141478,-1.3718 c 3.636615,3.58105 9.590952,8.39851 10.036328,12.64011 l 3.176575,-0.3056 c 0,0 -7.113119,-8.71064 -13.212903,-12.33451 l 0,0 m 5.131999,-1.26788 c 3.514095,3.70145 9.380193,8.60589 9.825569,12.84759 l 2.402898,-0.093 c 0,0 -6.254006,-8.92755 -12.228467,-12.75469 l 0,0 m 4.92124,-1.06046 c 3.514095,3.70144 8.981257,9.05495 8.744517,13.31305 l 2.50588,0.3516 c 0,0 -5.27594,-9.83752 -11.250397,-13.66465 l 0,0 m 5.726437,-1.09932 c 3.09984,4.0541 7.90925,10.29887 7.12534,14.49107 l 2.63153,0.6819 c 0,0 -4.22424,-10.73204 -9.75687,-15.17297 l 0,0 m 6.10543,-0.22369 c 2.48448,4.45819 6.47986,11.21126 5.2579,15.29706 l 2.70946,0.9186 c 0,0 -3.13091,-11.02461 -7.96736,-16.21566 l 0,0 m 5.78385,0.54951 c 2.00891,4.69192 5.48787,11.69975 4.08344,15.72675 l 2.71669,1.1052 c 0,0 -2.52784,-11.16722 -6.80013,-16.83195 l 0,0 m 5.57289,1.05518 c 1.60185,4.84584 4.58021,11.95387 2.91641,15.88097 l 2.69893,1.2268 c 0,0 -1.84128,-11.0999 -5.61534,-17.10777 l 0,0 m 5.14389,1.29784 c 1.42525,4.90083 4.14079,12.17843 2.35687,16.05233 l 2.88693,1.3599 c 0,0 -1.68982,-11.2714 -5.2438,-17.41223 l 0,0 m 5.24559,1.59074 c 1.13008,4.97719 3.59556,12.20549 1.72754,16.03979 l 2.85673,1.4226 c 0,0 -1.4033,-11.1203 -4.58427,-17.46239 l 0,0 m 4.77235,1.60233 c 1.13008,4.97716 3.57869,12.30976 1.73478,16.15556 l 2.86551,1.4046 c 0,0 -1.41933,-11.2181 -4.60029,-17.56016 l 0,0 m 4.89506,1.74766 c 1.02138,5.0008 3.54055,12.2333 1.83465,16.1421 l 3.86,1.3962 c 0,0 -2.65254,-11.1281 -5.69465,-17.5383 l 0,0 m 4.69971,1.669 c 1.05267,4.9942 4.0997,11.7447 2.89557,15.8361 l 3.58586,0.8761 c 0,0 -3.3993,-10.3214 -6.48143,-16.7122 l 0,0 m 3.65966,1.1088 c 1.8389,4.761 5.72503,11.2669 4.93573,15.4582 l 3.3484,0.6084 c 0,0 -4.21833,-10.2521 -8.28413,-16.0666 l 0,0 m 4.46108,0.6939 c 2.16325,4.6227 6.45006,10.8665 5.8956,15.0953 l 3.43646,0.4055 c 0,0 -4.87446,-9.9808 -9.33206,-15.5008 l 0,0 m 4.5675,0.3917 c 2.43594,4.4851 7.02213,10.4666 6.6236,14.7126 l 3.50135,0.2583 c 0,0 -5.34506,-9.7274 -10.12495,-14.9709 l 0,0 m 4.55398,0.112 c 2.71631,4.3207 7.62271,10.1217 7.41087,14.3812 l 3.46901,0.1024 c 0,0 -5.77624,-9.5552 -10.87988,-14.4836 l 0,0 m 4.70253,-0.1149 c 2.90335,4.1975 8.04514,9.7857 7.99751,14.0503 l 3.43591,-0.035 c 0,0 -6.11833,-9.3154 -11.43342,-14.0152 l 0,0 m 4.73282,-0.331 c 3.06291,4.0826 8.40378,9.4727 8.5011,13.7365 l 3.40281,-0.1582 c 0,0 -6.41167,-9.0866 -11.90391,-13.5783 l 0,0 m 4.74957,-0.5257 c 3.1999,3.9762 8.78242,9.1455 9.12249,13.3969 l 3.18322,-0.2268 c 0,0 -6.66395,-8.8676 -12.30571,-13.1701 l 0,0 m 4.75601,-0.7026 c 3.3183,3.878 9.03119,8.8495 9.47342,13.0915 l 3.39308,-0.389 c 0,0 -7.09759,-8.5719 -12.8665,-12.7025 l 0,0 m 4.75454,-0.8641 c 3.42128,3.7875 9.26113,8.5337 9.83322,12.76 l 3.418,-0.4768 c 0,0 -7.37341,-8.3091 -13.25122,-12.2832 l 0,0 m 4.51504,-0.9947 c 3.62319,3.5945 9.70807,8.2077 10.42811,12.4114 l 1.76088,-0.6053 c 0,0 -6.10283,-8.1596 -12.18899,-11.8061 l 0,0"
       style="fill:url(#linearGradient4038);fill-opacity:1;stroke:none;filter:url(#filter4387)"
       sodipodi:nodetypes="cccccccccccccccccccccccccccccccccccccccccccccccccccccccccccccccccccccccccccccccccccccccccccccccccccccccccccccccccccccccccccccccccccccccccccccccccccccccccccccccccccccccccccccccccccccccccccccccccccccccc" />
    <path
       style="fill:url(#linearGradient4399);stroke:#000000;stroke-width:1px;stroke-linecap:butt;stroke-linejoin:miter;stroke-opacity:1;fill-opacity:1;filter:url(#filter4405)"
       d="m 0,158.88889 c 0,0 24.814815,18.51852 54.444444,6.66667 29.62963,-11.85186 30.370371,-24.07408 50.370366,-17.40741 20,6.66666 41.85186,20.74074 57.03704,13.33333 C 177.03704,154.07407 200,150 200,150 l 0,40 c 0,0 -40,10 -50,5 -10,-5 -10,-15 -55,-10 -45,5 -70,15 -75,10 C 15,190 0,185 0,185 z"
       id="path4391"
       inkscape:connector-curvature="0"
       sodipodi:nodetypes="csssccssscc"
       transform="translate(0,852.36218)" />
    <path
       transform="translate(0,852.36218)"
       sodipodi:nodetypes="csssccssscc"
       inkscape:connector-curvature="0"
       id="path4409"
       d="m 0,158.88889 c 0,0 24.814815,18.51852 54.444444,6.66667 29.62963,-11.85186 30.370371,-24.07408 50.370366,-17.40741 20,6.66666 41.85186,20.74074 57.03704,13.33333 C 177.03704,154.07407 200,150 200,150 l 0,40 c 0,0 -40,10 -50,5 -10,-5 -10,-15 -55,-10 -45,5 -70,15 -75,10 C 15,190 0,185 0,185 z"
       style="fill:url(#linearGradient4399);stroke:none;stroke-width:1px;stroke-linecap:butt;stroke-linejoin:miter;stroke-opacity:1;fill-opacity:1;filter:url(#filter4451)" />
  </g>
</svg>
