<?xml version="1.0" encoding="UTF-8" standalone="no"?>
<!-- Created with Inkscape (http://www.inkscape.org/) -->

<svg
   xmlns:dc="http://purl.org/dc/elements/1.1/"
   xmlns:cc="http://creativecommons.org/ns#"
   xmlns:rdf="http://www.w3.org/1999/02/22-rdf-syntax-ns#"
   xmlns:svg="http://www.w3.org/2000/svg"
   xmlns="http://www.w3.org/2000/svg"
   xmlns:xlink="http://www.w3.org/1999/xlink"
   xmlns:sodipodi="http://sodipodi.sourceforge.net/DTD/sodipodi-0.dtd"
   xmlns:inkscape="http://www.inkscape.org/namespaces/inkscape"
   width="200"
   height="200"
   id="svg4152"
   version="1.1"
   inkscape:version="0.48.0 r9654"
   sodipodi:docname="New document 4">
  <defs
     id="defs4154">
    <linearGradient
       id="linearGradient6306">
      <stop
         style="stop-color:#513710;stop-opacity:1;"
         offset="0"
         id="stop6308" />
      <stop
         style="stop-color:#513710;stop-opacity:0;"
         offset="1"
         id="stop6310" />
    </linearGradient>
    <linearGradient
       id="linearGradient6152">
      <stop
         style="stop-color:#313131;stop-opacity:1;"
         offset="0"
         id="stop6154" />
      <stop
         style="stop-color:#1c1a17;stop-opacity:1;"
         offset="1"
         id="stop6156" />
    </linearGradient>
    <linearGradient
       id="linearGradient6138">
      <stop
         style="stop-color:#2a2010;stop-opacity:1;"
         offset="0"
         id="stop6140" />
      <stop
         style="stop-color:#36250b;stop-opacity:1;"
         offset="1"
         id="stop6142" />
    </linearGradient>
    <linearGradient
       id="linearGradient6130">
      <stop
         style="stop-color:#1f1406;stop-opacity:1;"
         offset="0"
         id="stop6132" />
      <stop
         style="stop-color:#2d1f09;stop-opacity:1;"
         offset="1"
         id="stop6134" />
    </linearGradient>
    <marker
       inkscape:stockid="Arrow1Lend"
       orient="auto"
       refY="0.0"
       refX="0.0"
       id="Arrow1Lend"
       style="overflow:visible;">
      <path
         id="path4678"
         d="M 0.0,0.0 L 5.0,-5.0 L -12.5,0.0 L 5.0,5.0 L 0.0,0.0 z "
         style="fill-rule:evenodd;stroke:#000000;stroke-width:1.0pt;marker-start:none;"
         transform="scale(0.8) rotate(180) translate(12.5,0)" />
    </marker>
    <marker
       inkscape:stockid="Arrow1Lstart"
       orient="auto"
       refY="0.0"
       refX="0.0"
       id="Arrow1Lstart"
       style="overflow:visible">
      <path
         id="path4675"
         d="M 0.0,0.0 L 5.0,-5.0 L -12.5,0.0 L 5.0,5.0 L 0.0,0.0 z "
         style="fill-rule:evenodd;stroke:#000000;stroke-width:1.0pt;marker-start:none"
         transform="scale(0.8) translate(12.5,0)" />
    </marker>
    <filter
       inkscape:collect="always"
       id="filter6066">
      <feGaussianBlur
         inkscape:collect="always"
         stdDeviation="0.23750003"
         id="feGaussianBlur6068" />
    </filter>
    <linearGradient
       inkscape:collect="always"
       xlink:href="#linearGradient6130"
       id="linearGradient6136"
       x1="5.1101249"
       y1="94.288772"
       x2="195.37093"
       y2="94.288772"
       gradientUnits="userSpaceOnUse"
       gradientTransform="translate(0,852.36218)" />
    <linearGradient
       inkscape:collect="always"
       xlink:href="#linearGradient6138"
       id="linearGradient6144"
       x1="7.9299998"
       y1="947.36218"
       x2="192.07001"
       y2="947.36218"
       gradientUnits="userSpaceOnUse"
       spreadMethod="pad" />
    <linearGradient
       inkscape:collect="always"
       xlink:href="#linearGradient6152"
       id="linearGradient6158"
       x1="18.85618"
       y1="95.767235"
       x2="54.211521"
       y2="105.981"
       gradientUnits="userSpaceOnUse"
       gradientTransform="translate(-0.63338641,851.8384)" />
    <filter
       inkscape:collect="always"
       id="filter6180"
       x="-0.02044898"
       width="1.040898"
       y="-0.1503"
       height="1.3006">
      <feGaussianBlur
         inkscape:collect="always"
         stdDeviation="0.32801897"
         id="feGaussianBlur6182" />
    </filter>
    <linearGradient
       inkscape:collect="always"
       xlink:href="#linearGradient6152-1"
       id="linearGradient6158-5"
       x1="18.85618"
       y1="95.767235"
       x2="54.211521"
       y2="105.981"
       gradientUnits="userSpaceOnUse"
       gradientTransform="translate(-0.2618914,851.8384)" />
    <linearGradient
       id="linearGradient6152-1">
      <stop
         style="stop-color:#313131;stop-opacity:1;"
         offset="0"
         id="stop6154-9" />
      <stop
         style="stop-color:#1c1a17;stop-opacity:1;"
         offset="1"
         id="stop6156-7" />
    </linearGradient>
    <filter
       color-interpolation-filters="sRGB"
       inkscape:collect="always"
       id="filter6180-1"
       x="-0.020448981"
       width="1.040898"
       y="-0.1503"
       height="1.3006001">
      <feGaussianBlur
         inkscape:collect="always"
         stdDeviation="0.32801897"
         id="feGaussianBlur6182-3" />
    </filter>
    <linearGradient
       y2="105.981"
       x2="54.211521"
       y1="95.767235"
       x1="18.85618"
       gradientTransform="translate(71.80356,851.31465)"
       gradientUnits="userSpaceOnUse"
       id="linearGradient6201"
       xlink:href="#linearGradient6152-1"
       inkscape:collect="always" />
    <linearGradient
       y2="105.981"
       x2="54.211521"
       y1="95.767235"
       x1="18.85618"
       gradientTransform="translate(71.365408,851.57654)"
       gradientUnits="userSpaceOnUse"
       id="linearGradient6201-2"
       xlink:href="#linearGradient6152-1-0"
       inkscape:collect="always" />
    <linearGradient
       id="linearGradient6152-1-0">
      <stop
         style="stop-color:#313131;stop-opacity:1;"
         offset="0"
         id="stop6154-9-6" />
      <stop
         style="stop-color:#1c1a17;stop-opacity:1;"
         offset="1"
         id="stop6156-7-8" />
    </linearGradient>
    <filter
       color-interpolation-filters="sRGB"
       inkscape:collect="always"
       id="filter6180-1-7"
       x="-0.020448981"
       width="1.040898"
       y="-0.1503"
       height="1.3006001">
      <feGaussianBlur
         inkscape:collect="always"
         stdDeviation="0.32801897"
         id="feGaussianBlur6182-3-4" />
    </filter>
    <linearGradient
       y2="105.981"
       x2="54.211521"
       y1="95.767235"
       x1="18.85618"
       gradientTransform="translate(134.74313,851.57652)"
       gradientUnits="userSpaceOnUse"
       id="linearGradient6241"
       xlink:href="#linearGradient6152-1-0"
       inkscape:collect="always" />
    <linearGradient
       y2="105.981"
       x2="54.211521"
       y1="95.767235"
       x1="18.85618"
       gradientTransform="translate(137.10015,851.83841)"
       gradientUnits="userSpaceOnUse"
       id="linearGradient6241-2"
       xlink:href="#linearGradient6152-1-0-4"
       inkscape:collect="always" />
    <linearGradient
       id="linearGradient6152-1-0-4">
      <stop
         style="stop-color:#313131;stop-opacity:1;"
         offset="0"
         id="stop6154-9-6-4" />
      <stop
         style="stop-color:#1c1a17;stop-opacity:1;"
         offset="1"
         id="stop6156-7-8-5" />
    </linearGradient>
    <radialGradient
       inkscape:collect="always"
       xlink:href="#linearGradient6152-1-0-4"
       id="radialGradient6400"
       gradientUnits="userSpaceOnUse"
       cx="41.378841"
       cy="43.912724"
       fx="41.378841"
       fy="43.912724"
       r="4.1664796" />
    <linearGradient
       id="linearGradient6152-1-0-4-7">
      <stop
         style="stop-color:#313131;stop-opacity:1;"
         offset="0"
         id="stop6154-9-6-4-3" />
      <stop
         style="stop-color:#1c1a17;stop-opacity:1;"
         offset="1"
         id="stop6156-7-8-5-1" />
    </linearGradient>
    <radialGradient
       inkscape:collect="always"
       xlink:href="#linearGradient6152-1-0-4-7"
       id="radialGradient6400-5"
       gradientUnits="userSpaceOnUse"
       cx="41.378841"
       cy="43.912724"
       fx="41.378841"
       fy="43.912724"
       r="4.1664796" />
    <linearGradient
       id="linearGradient6419">
      <stop
         style="stop-color:#313131;stop-opacity:1;"
         offset="0"
         id="stop6421" />
      <stop
         style="stop-color:#1c1a17;stop-opacity:1;"
         offset="1"
         id="stop6423" />
    </linearGradient>
    <filter
       inkscape:collect="always"
       id="filter6523"
       x="-0.64851064"
       width="2.2970213"
       y="-0.64851064"
       height="2.2970213">
      <feGaussianBlur
         inkscape:collect="always"
         stdDeviation="1.9814592"
         id="feGaussianBlur6525" />
    </filter>
    <filter
       inkscape:collect="always"
       id="filter6583">
      <feGaussianBlur
         inkscape:collect="always"
         stdDeviation="0.10999439"
         id="feGaussianBlur6585" />
    </filter>
    <radialGradient
       inkscape:collect="always"
       xlink:href="#linearGradient6152-1-0-4"
       id="radialGradient6591"
       gradientUnits="userSpaceOnUse"
       cx="41.378841"
       cy="43.912724"
       fx="41.378841"
       fy="43.912724"
       r="4.1664796" />
    <radialGradient
       inkscape:collect="always"
       xlink:href="#linearGradient6152-1-0-4"
       id="radialGradient6601"
       gradientUnits="userSpaceOnUse"
       cx="41.378841"
       cy="43.912724"
       fx="41.378841"
       fy="43.912724"
       r="4.1664796" />
    <radialGradient
       inkscape:collect="always"
       xlink:href="#linearGradient6152-1-0-4"
       id="radialGradient6609"
       gradientUnits="userSpaceOnUse"
       cx="41.378841"
       cy="43.912724"
       fx="41.378841"
       fy="43.912724"
       r="4.1664796" />
    <radialGradient
       inkscape:collect="always"
       xlink:href="#linearGradient6152-1-0-4"
       id="radialGradient6617"
       gradientUnits="userSpaceOnUse"
       cx="41.378841"
       cy="43.912724"
       fx="41.378841"
       fy="43.912724"
       r="4.1664796" />
    <radialGradient
       inkscape:collect="always"
       xlink:href="#linearGradient6152-1-0-4"
       id="radialGradient6625"
       gradientUnits="userSpaceOnUse"
       cx="41.378841"
       cy="43.912724"
       fx="41.378841"
       fy="43.912724"
       r="4.1664796" />
    <radialGradient
       inkscape:collect="always"
       xlink:href="#linearGradient6152-1-0-4"
       id="radialGradient6633"
       gradientUnits="userSpaceOnUse"
       cx="41.378841"
       cy="43.912724"
       fx="41.378841"
       fy="43.912724"
       r="4.1664796" />
    <radialGradient
       inkscape:collect="always"
       xlink:href="#linearGradient6152-1-0-4"
       id="radialGradient6641"
       gradientUnits="userSpaceOnUse"
       cx="41.378841"
       cy="43.912724"
       fx="41.378841"
       fy="43.912724"
       r="4.1664796" />
    <radialGradient
       inkscape:collect="always"
       xlink:href="#linearGradient6152-1-0-4"
       id="radialGradient6649"
       gradientUnits="userSpaceOnUse"
       cx="41.378841"
       cy="43.912724"
       fx="41.378841"
       fy="43.912724"
       r="4.1664796" />
    <radialGradient
       inkscape:collect="always"
       xlink:href="#linearGradient6152-1-0-4"
       id="radialGradient6657"
       gradientUnits="userSpaceOnUse"
       cx="41.378841"
       cy="43.912724"
       fx="41.378841"
       fy="43.912724"
       r="4.1664796" />
  </defs>
  <sodipodi:namedview
     id="base"
     pagecolor="#656565"
     bordercolor="#666666"
     borderopacity="1.0"
     inkscape:pageopacity="1"
     inkscape:pageshadow="2"
     inkscape:zoom="5.4"
     inkscape:cx="90.517059"
     inkscape:cy="110.47566"
     inkscape:document-units="px"
     inkscape:current-layer="layer1"
     showgrid="false"
     inkscape:snap-global="true"
     showguides="true"
     inkscape:guide-bbox="true"
     inkscape:window-width="1280"
     inkscape:window-height="744"
     inkscape:window-x="-3"
     inkscape:window-y="-3"
     inkscape:window-maximized="1">
    <inkscape:grid
       type="xygrid"
       id="grid4670"
       empspacing="5"
       visible="true"
       enabled="true"
       snapvisiblegridlinesonly="true" />
  </sodipodi:namedview>
  <metadata
     id="metadata4157">
    <rdf:RDF>
      <cc:Work
         rdf:about="">
        <dc:format>image/svg+xml</dc:format>
        <dc:type
           rdf:resource="http://purl.org/dc/dcmitype/StillImage" />
        <dc:title></dc:title>
      </cc:Work>
    </rdf:RDF>
  </metadata>
  <g
     inkscape:label="Layer 1"
     inkscape:groupmode="layer"
     id="layer1"
     transform="translate(0,-852.36218)">
    <rect
       style="fill:url(#linearGradient6144);fill-opacity:1.0;fill-rule:nonzero;stroke:#272620;stroke-opacity:1;stroke-width:3;stroke-miterlimit:4;stroke-dasharray:36, 36;stroke-dashoffset:0;filter:url(#filter6066)"
       id="rect4668"
       width="180"
       height="10.000021"
       x="10"
       y="942.36218" />
    <path
       style="fill:url(#linearGradient6136);fill-opacity:1;fill-rule:nonzero;stroke:none;"
       id="path6128"
       d="m 24.580959,946.4653 c -5.621931,1.23506 5.714653,-1.03435 4.316938,-0.63248 -0.561617,0.16148 -1.152488,0.19502 -1.725932,0.3075 -1.25955,0.24704 1.837028,-0.16645 2.050553,-0.18594 0.325254,-0.0325 0.648889,-0.0965 0.975761,-0.0975 0.07763,-2.5e-4 -0.154769,0.0433 -0.212626,0.095 -0.0178,0.0159 0.06073,0.0482 0.03976,0.0596 -0.120019,0.0654 -0.524452,0.14712 -0.388736,0.1307 1.382072,-0.16719 2.743405,-0.60325 4.135418,-0.58395 1.117143,0.0155 -2.198943,0.39704 -3.298415,0.59556 8.339345,-1.07487 -0.474207,0.003 0.65446,0.0478 0.897002,0.0359 1.775951,-0.27484 2.670849,-0.34598 0.242456,-0.0193 -0.937754,0.12047 -0.704584,0.18966 0.458195,0.13597 1.807101,-0.31878 0.506279,0.0792 0.301526,-0.0207 0.604274,-0.0279 0.904578,-0.062 0.915182,-0.10391 1.820743,-0.3066 2.740693,-0.35185 0.418636,-0.0206 -0.815068,0.1971 -1.22645,0.27738 -1.103568,0.21535 -2.222702,0.35378 -3.317651,0.60937 -0.355306,0.0829 0.728981,-0.0434 1.090895,-0.0896 1.443635,-0.18448 2.882911,-0.40159 4.324367,-0.60239 -6.835866,0.0265 -13.671731,0.053 -20.507596,0.0796 -0.245963,-0.0637 -0.99128,-0.20983 -0.737887,-0.19115 0.89423,0.11152 1.78846,0.22304 2.68269,0.33456 0.02399,-0.0258 0.03672,-0.0769 0.07196,-0.0775 0.359264,-0.006 1.414024,0.18144 1.076341,0.0587 -0.690024,-0.25089 -1.437304,-0.3008 -2.155956,-0.4512 7.765995,0.0489 15.531989,0.0978 23.297984,0.14665 0.02171,0.33819 -1.254531,0.45613 -0.912223,0.475 0.897543,0.0495 1.799204,-0.32536 2.689301,-0.19983 0.433291,0.0611 -0.85488,0.21357 -1.249381,0.40289 -0.07721,0.0371 -0.06059,0.16022 -0.09088,0.24032 12.45382,-1.58997 -3.168449,0.7079 1.737604,0.43743 1.289093,-0.0711 2.566709,-0.33947 3.857748,-0.34509 0.3675,-0.002 -0.737611,0.14101 -1.051058,0.33287 -0.09361,0.0573 0.203437,0.0825 0.305155,0.12369 -0.165035,0.0739 -0.675912,0.21847 -0.495106,0.22178 0.714376,0.0131 1.422793,-0.13329 2.134891,-0.19178 0.401052,-0.0329 0.805987,-0.13912 1.204386,-0.0825 0.206784,0.0294 -0.81221,0.17962 -0.603679,0.16787 0.613797,-0.0346 2.443798,-0.2392 1.829033,-0.23688 -6.125642,0.0231 -12.249747,0.1995 -18.37462,0.29925 3.446328,0.47095 -1.68292,-0.35363 -2.165315,-0.43062 -0.107428,-0.0172 0.224852,0.009 0.32085,0.0597 0.603359,0.094 1.206917,0.18664 1.810078,0.28186 0.196386,0.031 0.391176,0.0729 0.588546,0.0968 0.708916,0.0861 2.840531,0.16533 2.129637,0.23314 -0.7839,0.0748 -1.570375,-0.12346 -2.352857,-0.21185 -0.118335,-0.0134 -0.463432,-0.0807 -0.344972,-0.0929 0.446225,-0.046 0.89715,-0.007 1.345725,-0.0102 -0.753092,-0.10388 -1.514262,-0.16034 -2.259276,-0.31164 -0.323389,-0.0657 0.103456,-0.32969 0.167747,-0.34869 0.231316,-0.0684 0.475198,-0.10843 0.716329,-0.10243 2.189312,0.0544 3.935716,0.47013 0.60677,-0.17827 0.15923,-0.0233 0.318461,-0.0467 0.477692,-0.07 0.833052,0.0664 1.667121,0.27723 2.499156,0.19913 0.483978,-0.0454 -0.950687,-0.20354 -1.427178,-0.29975 -0.650596,-0.13136 -2.521092,-0.038 -1.954008,-0.38292 0.519643,-0.31604 4.154968,0.66136 1.095167,-0.10474 1.068123,0.10615 2.136247,0.21229 3.204371,0.31843 0.04381,-0.0334 0.0771,-0.0911 0.131439,-0.1002 0.219129,-0.0367 0.449825,0.0192 0.66571,-0.0333 0.04321,-0.0105 -0.02521,-0.11518 0.01576,-0.13249 0.605689,-0.25588 0.348946,0.12829 0.529126,-0.20073 0.622978,0.0389 1.247106,0.17104 1.868934,0.11676 0.183916,-0.016 -0.333976,-0.15745 -0.500964,-0.23618 -0.857381,-0.18065 -3.44753,-0.50407 -2.572143,-0.54197 1.45559,-0.063 2.891518,0.38099 4.346036,0.46518 0.137187,0.008 -0.226594,-0.15552 -0.339891,-0.23328 0.805709,0.0518 1.611418,0.10357 2.417128,0.15535 -0.08045,-0.0842 -0.160908,-0.16844 -0.241362,-0.25266 0.33057,-0.0259 1.158372,0.20893 0.991709,-0.0777 -0.22747,-0.39124 -1.739997,-0.43595 -1.287464,-0.43097 1.618044,0.0178 3.215786,0.38363 4.831624,0.46996 0.153857,0.008 0.273395,-0.14749 0.421694,-0.18928 0.24368,-0.0687 0.497674,-0.0933 0.746511,-0.13996 1.225659,-0.79181 -1.038838,0.58402 2.963074,-0.0381 0.394708,-0.0614 -0.753216,-0.26627 -1.129824,-0.3994 0.922007,0.0646 1.842692,0.1522 2.76602,0.19388 0.447401,0.0202 1.415453,0.4337 1.343543,-0.008 -0.07852,-0.48269 -0.940359,-0.26899 -1.410539,-0.40349 0.643496,0.0351 1.287281,0.14526 1.930488,0.10524 0.11977,-0.008 -0.411489,-0.18028 -0.294509,-0.20704 0.36405,-0.0833 0.746783,0.014 1.120214,0.0182 6.102049,0.0681 12.203985,0.24844 18.306211,0.19859 1.182121,-0.01 2.34611,-0.44356 3.526392,-0.37695 0.615112,0.0347 -1.190764,0.31677 -1.786146,0.47516 0.205678,0.0416 0.458732,-0.013 0.617033,0.12475 0.07845,0.0683 -0.28809,0.23998 -0.184727,0.25142 0.690257,0.0764 2.685133,-0.38742 2.082991,-0.0414 -0.965273,0.55464 -2.454381,-0.048 -3.261597,0.71865 -0.629042,0.59745 1.734563,-0.1343 2.601043,-0.0913 0.102242,0.005 0.13528,0.15368 0.20292,0.23051 1.637249,-0.14853 3.274498,-0.29706 4.911746,-0.4456 0.09148,0.0651 0.373772,0.14297 0.27444,0.19532 -0.450064,0.23719 -1.97073,0.38716 -1.463932,0.43156 1.079583,0.0946 2.159424,-0.18625 3.239419,-0.27601 0.834284,-0.0693 2.053108,-0.90704 2.503403,-0.20129 0.424865,0.66588 -1.545369,0.32785 -2.318054,0.49178 0.681566,-0.0963 1.370213,-0.0644 2.05437,-0.11188 7.137614,-0.49569 19.670479,-0.79565 -19.705613,-0.45203 -1.276365,0.0111 2.527071,0.36173 3.790606,0.54259 -0.33457,-0.0671 -0.701676,-0.0426 -1.003712,-0.20144 -0.227006,-0.11936 0.509475,0.0635 0.765631,0.0763 0.01518,7.6e-4 -0.03821,-0.04 -0.02302,-0.0394 0.220146,0.009 0.437474,0.0705 0.657748,0.0655 0.08901,-0.002 -0.168719,-0.0595 -0.256445,-0.0747 -0.831498,-0.14411 -1.666273,-0.26863 -2.499409,-0.40295 1.247141,0.19174 1.681849,0.26623 3.158884,0.43674 0.297302,0.0343 1.18377,0.14884 0.895112,0.0698 -0.628015,-0.17191 -1.284522,-0.21629 -1.921593,-0.3508 -0.09535,-0.0201 -0.367106,-0.10305 -0.270064,-0.11195 0.363558,-0.0333 0.729765,0.0242 1.094647,0.0363 -0.225262,-0.0701 -0.909244,-0.17636 -0.675787,-0.21043 1.239095,-0.18082 5.206226,0.76154 5.55622,0.45303 0.909968,-0.8021 -2.521695,-0.0856 -3.572821,-0.69108 -0.784813,-0.45203 1.804858,0.16623 2.710114,0.19418 0.262811,0.008 0.522718,-0.0575 0.784077,-0.0863 -1.182884,-0.86535 0.228424,0.26401 2.25748,-0.0776 0.445065,-0.0749 -1.069848,-0.012 -1.29206,-0.4048 -0.169977,-0.30049 0.692505,-0.003 1.03447,-0.0506 0.133453,-0.0185 0.242676,-0.15184 0.377237,-0.14512 1.185593,0.0592 2.363232,0.22733 3.544849,0.341 0.28048,-0.0246 1.00234,0.15734 0.841442,-0.0737 -0.232131,-0.33334 -1.504886,-0.16957 -1.157703,-0.38044 0.478357,-0.29054 1.118794,0.0369 1.677785,0.0646 0.645059,0.0319 1.301669,0.24489 1.934174,0.11428 0.32062,-0.0662 -0.618561,-0.21472 -0.927841,-0.32209 0.897368,0.0856 1.794735,0.17112 2.692102,0.25668 0.865077,0.0859 1.726002,0.24433 2.595229,0.25764 5.439334,0.0833 10.87991,0.0268 16.31988,0.032 2.11464,0.002 0.7783,-0.15647 4.68933,-0.50486 0.25593,-0.0228 -0.49802,0.1294 -0.74011,0.21551 -0.0763,0.0271 -0.13993,0.0816 -0.2099,0.12241 0.541,-0.0453 1.08199,-0.0907 1.62298,-0.13601 0.0332,0.0537 0.0368,0.15463 0.0996,0.16104 0.48611,0.0496 0.98784,-0.10242 1.4659,-0.001 0.11499,0.0243 -0.21487,0.14576 -0.23686,0.26122 -0.0181,0.0948 0.0431,0.24063 0.13868,0.25424 0.65804,0.0937 1.32896,0.033 1.99344,0.0495 0.12762,1.29117 -0.16354,-0.51235 2.5652,0.3745 0.64935,0.21104 -2.40341,0.75902 -1.77409,1.02388 0.73428,0.30903 1.59451,0.0301 2.38771,0.10424 0.43567,0.0408 0.86041,0.15985 1.29061,0.23978 0.90102,1.0553 2.53482,0.0863 3.67819,0.60494 0.13358,0.0606 -0.29619,0.19426 -0.27936,0.33997 0.0155,0.1339 0.20851,0.21419 0.3433,0.21366 1.01797,-0.004 2.03032,-0.15134 3.04548,-0.22701 -0.40725,0.11738 -1.64558,0.35 -1.22176,0.35213 1.02994,0.005 2.04262,-0.28222 3.07079,-0.34284 0.22821,-0.0135 -0.42734,0.19409 -0.65585,0.20045 -5.48344,0.15249 -10.96886,0.29682 -16.45438,0.27536 -0.58529,-0.002 -1.14742,-0.23175 -1.72137,-0.34644 -0.44789,-0.0895 -0.89611,-0.17743 -1.34416,-0.26615 5.71805,0.69511 -3.74689,-0.5439 2.28918,0.22577 0.42041,0.0536 0.52946,0.11378 0.34305,0.0244 -0.59649,-0.0912 -1.24554,-0.0122 -1.78947,-0.27347 -0.38088,-0.18295 0.84489,0.0207 1.26743,0.0227 0.43452,0.002 0.87515,0.0624 1.30353,-0.0104 0.0772,-0.0131 -0.0747,-0.14752 -0.14236,-0.18697 -0.55823,-0.3255 -0.79449,-0.10228 -0.40708,-0.35415 0.37558,0.0175 0.75116,0.0349 1.12673,0.0524 0.94854,0.11551 1.89159,0.2925 2.8456,0.34652 0.34507,0.0195 -1.35369,-0.2369 -1.00811,-0.24246 6.42442,-0.10324 12.85055,-0.0109 19.27568,-0.0511 0.38047,-0.002 1.50603,-0.1764 1.13888,-0.0765 -0.97052,0.26394 -1.97499,0.38166 -2.96249,0.57249 1.42137,-0.18849 2.84275,-0.37698 4.26412,-0.56547 0.38251,-0.0246 1.53083,-0.0725 1.14753,-0.0738 -6.89552,-0.0231 -13.79116,-0.0166 -20.68667,0.008 -0.41937,0.002 0.83894,0.0241 1.25659,0.0622 3.28353,0.29906 3.61147,1.36972 3.16834,0.1588 -1.56752,-0.6646 -0.1867,0.0344 0.4586,-0.32353 0.19244,-0.10673 -0.81248,-0.27812 -0.59278,-0.29055 0.86777,-0.0491 1.73304,0.21263 2.60147,0.17691 0.14934,-0.006 -0.2391,-0.17944 -0.35864,-0.26916 0.89008,0.056 1.78016,0.11201 2.67024,0.16801 0.0799,-0.46751 2.07397,0.39353 1.8231,-0.16262 -0.19205,-0.42574 -1.60861,-0.008 -1.34479,-0.39341 0.30412,-0.44428 1.91773,0.44373 1.61521,-0.002 -0.50346,-0.74119 -3.82601,-0.38534 -0.678,-0.59431 1.16861,0.0454 3.67418,0.18296 4.99065,0.10847 0.32997,-0.0187 1.24639,0.0248 0.97731,-0.16707 -0.57717,-0.41159 -1.51027,-0.12422 -2.04246,-0.59251 -0.2954,-0.25993 0.77458,-0.14848 1.16695,-0.17787 0.70867,-0.0531 1.42056,-0.0461 2.13084,-0.0691 0.35404,-0.0812 0.80336,0.0113 1.06213,-0.24367 0.13718,-0.13515 -0.22838,-0.31014 -0.34256,-0.46521 2.18602,0.1596 4.4225,0.97228 6.55807,0.47882 1.37969,-0.31881 -5.4359,-0.52418 -4.11818,-1.04261 6.14139,0.38028 4.04875,1.12203 6.66061,0.0188 1.81694,-0.97387 -1.14384,0.48768 3.06684,-0.38976 0.1604,-0.0334 -0.44293,-0.35337 -0.28583,-0.3999 0.57313,-0.16977 1.1991,0.0244 1.79264,-0.0464 0.13963,-0.0167 0.24353,-0.14068 0.36529,-0.21102 0.47495,10e-4 0.94991,0.003 1.42486,0.004 7.05323,-2.9e-4 14.10645,-5.8e-4 21.15967,-8.6e-4 -0.15196,0.10079 -0.62344,0.23039 -0.45589,0.30237 0.39625,0.17023 0.86168,0.0386 1.29256,0.0571 0.5589,0.024 1.67168,-0.22903 1.64553,0.32978 -0.006,0.12479 -0.12736,0.21495 -0.19104,0.32243 0.30509,0.0732 0.66727,0.0273 0.91528,0.21945 0.10931,0.0847 -0.25489,0.37069 -0.1192,0.39734 1.06928,0.21008 2.53123,-0.58854 3.26176,0.22006 0.58861,0.6515 -1.75304,0.23787 -2.57903,0.53563 -0.11653,0.042 0.0433,0.27693 0.14983,0.34005 0.23123,0.13693 0.51897,0.13977 0.77846,0.20965 -1.42747,0.32027 -1.04225,0.28454 -3.35672,0.22347 -0.43647,-0.0115 0.87265,-0.0443 1.30651,-0.0933 6.9451,-0.78428 1.96558,-0.15982 1.07102,-0.4811 -0.32655,-0.11728 0.67184,-0.17375 1.00776,-0.26063 1.56645,-0.19965 -1.53239,0.0974 -1.15241,0.0395 0.78288,-0.10833 1.56576,-0.21667 2.34864,-0.325 -0.058,0.0219 -0.22251,0.0268 -0.17416,0.0657 0.0691,0.0555 0.17711,0.0104 0.26566,0.008 0.28409,-0.008 0.56779,-0.027 0.85168,-0.0405 -2.00863,0.85124 3.5813,-1.5649 2.79828,-0.18847 -0.57605,1.01259 -4.25269,-0.0981 -3.42054,0.71721 0.90436,0.88605 2.52748,-0.54404 3.78074,-0.36431 0.73833,0.10589 -1.43766,0.39817 -2.15649,0.59725 0.96305,-0.0511 1.9261,-0.10209 2.88915,-0.15314 1.41887,-0.1136 -5.16226,-0.22721 -3.74339,-0.34082 -0.14538,0.13061 -0.61604,0.31555 -0.43612,0.39184 0.4836,0.20507 1.0866,-0.10737 1.57325,0.0904 0.17468,0.071 -0.56165,0.25236 -0.42092,0.37784 1.01339,0.9036 1.07763,-0.39289 0.97746,0.42709 0.39222,0.95908 2.07899,-0.51946 2.82264,0.0573 0.0876,0.0679 -0.35642,0.20513 -0.24697,0.22274 0.48543,0.0781 0.98315,-0.0266 1.47483,-0.0251 0.53528,0.002 1.31289,-0.41367 1.60548,0.0346 0.25514,0.39087 -0.57544,0.73509 -0.86316,1.10264 2.64714,2.67889 1.78298,1.02363 -0.40114,1.66097 -0.26959,0.0787 0.53875,0.16352 0.79575,0.27675 0.0471,0.0208 0.0514,0.10068 0.1,0.11791 0.29147,0.10338 1.20617,0.25109 0.8973,0.23581 -0.96013,-0.0475 -1.90974,-0.2221 -2.86461,-0.33314 0.37516,0.0871 1.50489,0.19516 1.12547,0.26127 -4.83495,0.84237 -6.19641,-0.0321 -1.04256,-0.0739 -1.33828,-0.16187 -2.66051,-0.51073 -4.00829,-0.53699 -0.99179,-0.0193 1.95985,0.31315 2.93087,0.516 0.24456,0.0511 -0.49832,-0.0372 -0.74714,-0.0598 -0.27768,-0.0252 -0.55486,-0.0557 -0.83229,-0.0836 0.3421,0.0664 0.68421,0.13276 1.02631,0.19914 l -14.48519,-3.52673 0,0 c 0.53161,0.0802 1.06322,0.16037 1.59482,0.24055 0.36049,0.0468 0.72097,0.0937 1.08145,0.14049 -0.65208,-0.11418 -2.61421,-0.41571 -1.95626,-0.34255 1.41014,0.15681 2.79884,0.50482 4.21488,0.59372 0.99831,0.0627 -1.9878,-0.26477 -2.95634,-0.51471 -0.93376,-0.24095 3.26703,0.47114 2.87848,0.28981 -0.62872,-0.12028 -2.50829,-0.21008 -1.88617,-0.36086 0.74155,-0.17973 1.51238,0.2124 2.27345,0.267 0.18312,0.0131 -0.35596,-0.0904 -0.53214,-0.14207 -0.0661,-0.0194 0.25597,0.003 0.2018,0.0452 -0.11563,0.091 -0.44706,-0.0167 -0.42237,0.12842 0.0894,0.52518 0.45971,0.96119 0.68956,1.44178 -0.39747,0.35804 -1.35912,0.56581 -1.1924,1.07412 0.15709,0.47897 1.00793,-0.0489 1.50809,-0.11163 0.35714,-0.0448 1.41884,-0.22338 1.05913,-0.21039 -0.97258,0.0351 -1.94555,0.43131 -2.90646,0.27709 -0.63442,-0.10182 1.25077,-0.29496 1.87615,-0.44244 -0.82259,0.0464 -1.64518,0.0929 -2.46777,0.13931 0.01,-0.006 1.28794,-0.60117 0.0351,-0.52975 -1.91545,0.1092 -3.81022,0.52556 -5.7285,0.55866 -0.43799,0.008 1.37244,-0.0691 1.22303,-0.48091 -0.38239,-1.05384 -2.31523,0.60546 -0.9616,-0.44246 -3.06901,-0.34059 2.35047,0.19751 -3.96665,0.10115 -0.1433,-0.002 0.48944,-0.26202 0.34631,-0.25476 -1.27521,0.0647 -2.53208,0.34863 -3.80632,0.43028 -0.1846,0.0118 0.33993,-0.14604 0.5099,-0.21905 -1.10494,0.13634 -2.20988,0.27268 -3.31482,0.40902 1.13424,-0.20672 2.29063,-0.31607 3.40272,-0.62017 0.61139,-0.16718 -1.25969,0.1421 -1.89023,0.20659 -0.51988,0.0532 -1.03844,0.13605 -1.56093,0.14637 -0.0453,9e-4 0.077,-0.0722 0.0695,-0.11689 -0.0107,-0.0635 -0.16845,-0.11873 -0.11531,-0.15519 0.24561,-0.16852 0.55247,-0.22287 0.82871,-0.3343 0.0825,-0.10327 0.26158,-0.17838 0.24751,-0.30981 -0.0355,-0.33171 -0.97574,-0.53229 -0.69806,-0.71718 0.40579,-0.27021 1.86881,-0.126 1.42523,-0.32827 -1.0746,-0.49004 -3.96368,0.0251 -1.78152,-0.31745 -0.16671,-0.016 -1.87031,-0.21235 -1.69336,0.0202 0.23578,0.30989 1.5394,-0.11093 1.16813,0.007 -0.61933,0.19582 -2.57354,0.12033 -1.93434,0.2358 0.72439,0.13085 2.28085,-0.1663 3.19425,-0.32331 -1.034,0.0999 -2.068,0.19974 -3.102,0.29961 -0.1188,-0.0141 -0.23694,-0.0489 -0.35639,-0.0423 -0.64196,0.0354 -1.39043,0.53022 -1.92149,0.16781 -0.46147,-0.31491 1.09465,-0.22587 1.6364,-0.36236 7.91656,-1.99458 -29.24267,-0.55198 18.45618,-0.0887 -0.71078,-0.0589 -1.42156,-0.11785 -2.13234,-0.17677 0.29675,0.11523 1.20856,0.35162 0.89027,0.3457 -1.54998,-0.0288 -3.08252,-0.45865 -4.63216,-0.4153 -0.44726,0.0125 0.84462,0.30369 1.24157,0.51015 0.2271,0.11812 0.87336,0.45742 0.61738,0.45672 -2.02908,-0.005 -4.04597,-0.31438 -6.06896,-0.47156 -0.76838,0.0374 -1.64276,-0.27897 -2.30513,0.11226 -0.35816,0.21154 0.89235,0.23936 1.09172,0.60443 0.10713,0.19616 -0.338,0.36014 -0.56142,0.36662 -1.54616,0.0449 -3.17145,-0.71522 -4.63542,-0.21579 -0.9461,0.32277 1.92454,0.54156 2.88681,0.81234 -1.60123,-0.0972 -3.20247,-0.19439 -4.8037,-0.29159 0.68173,0.21087 1.61239,0.0652 2.0452,0.63261 0.29894,0.39186 -0.98154,0.097 -1.47404,0.11611 -0.67051,0.0259 -1.34196,0.0126 -2.01294,0.0188 0.20161,0.11391 0.81441,0.24326 0.60483,0.34174 -1.52887,0.71842 -1.50794,-0.53593 -1.4638,0.32343 -0.36841,0.0384 -0.74516,0.0282 -1.10522,0.11509 -0.10845,0.0262 -0.14609,0.20751 -0.25747,0.21384 -0.80868,0.0459 -1.61929,-0.0729 -2.42919,-0.0612 -0.35013,0.005 -0.7074,0.0169 -1.04458,0.11139 -0.0894,0.025 -0.24739,0.19037 -0.16193,0.22666 0.62883,0.26703 1.31739,0.36247 1.97609,0.5437 -0.67801,-0.0119 -1.3569,8.7e-4 -2.03402,-0.0358 -1.20752,-0.0655 -2.74969,-1.11255 -3.61779,-0.27064 -0.7742,0.75083 2.22537,0.17221 3.15429,0.72016 0.58859,0.3472 -1.3656,-0.0672 -2.04896,-0.0682 -0.34389,-4.6e-4 -0.68766,0.0282 -1.02967,0.064 -0.225,0.0236 -0.44604,0.076 -0.66906,0.11396 1.73375,1.05946 -1.087,-0.75451 -3.12789,-0.0828 -0.91739,0.30193 3.79875,0.60201 2.83297,0.60765 -7.86649,0.0459 -15.72965,-0.33662 -23.59485,-0.48653 -0.30515,-0.006 -0.61791,0.0875 -0.91541,0.0194 -0.10629,-0.0244 0.18859,-0.10954 0.28289,-0.1643 -0.13649,-0.0121 -0.52758,0.0332 -0.40945,-0.0362 0.24826,-0.1459 0.54875,-0.21515 0.83671,-0.21493 5.39913,0.004 10.79831,0.0944 16.19579,0.22763 0.46623,0.0115 4.23965,1.10096 -1.32929,-0.1067 0.5312,0.0683 2.19296,0.28515 2.29408,0.26784 0.48151,-0.0824 -0.96677,-0.1432 -1.44652,-0.23529 -0.0572,-0.011 0.11662,-0.0151 0.17454,-0.009 0.76805,0.0827 2.66409,-0.40645 2.30104,0.27541 -0.36932,0.69366 -1.56697,-0.12173 -2.35046,-0.1826 -3.03258,0.17768 2.5239,-0.22201 1.028,0.45002 -0.75047,0.33715 -1.64234,-0.11106 -2.46492,-0.12674 -0.27061,-0.005 -0.53899,0.0755 -0.80942,0.0643 -0.84647,-0.0351 -3.33256,-0.48434 -2.53349,-0.20284 1.31305,0.46257 2.73815,0.50483 4.10722,0.75725 -0.86727,0.0809 -0.84459,-0.0198 -0.0202,0.30912 -7.55062,-0.13812 -15.10125,-0.27624 -22.65188,-0.41436 -0.13835,-0.004 0.49856,-0.21614 0.36052,-0.20599 -4.38995,0.32304 -7.03317,1.07437 -2.23285,-0.0844 0.80281,-0.20586 3.19815,-0.36617 2.40842,-0.61758 -1.16743,-0.37165 -2.44409,0.23391 -3.66913,0.21623 -0.19476,-0.003 -0.32369,-0.23857 -0.51472,-0.27659 -0.54178,-0.10784 -1.09883,-0.11771 -1.65002,-0.15428 -2.6324,-0.17466 -1.5569,0.2581 -2.94322,-0.45107 -12.132031,0.31988 1.2761,0.24416 0.39468,-0.94281 -1.05343,-1.4186 -3.528528,0.27183 -5.295281,0.24414 -0.215341,-0.003 -0.736624,-0.22488 -0.552,-0.33577 0.649868,-0.39033 2.52952,0.0305 2.181468,-0.64294 -0.384214,-0.74342 -1.673681,0.004 -2.510522,0.006 -0.812736,-0.70919 0.455451,0.29736 -2.050103,-0.16395 -0.272639,-0.0502 1.072761,-0.2168 0.796463,-0.2394 -1.922279,-0.15723 -2.304119,0.46016 -0.83529,-0.011 0.08244,-0.0264 -0.17266,-0.0131 -0.25899,-0.0197 -1.397062,0.15988 -2.787762,0.28491 -4.188121,0.40573 -0.536906,0.0463 -2.149074,0.15529 -1.610298,0.14374 22.278304,-0.47759 27.282544,-0.0302 18.783734,-0.68593 0.59438,0.14506 1.19951,0.25159 1.78313,0.4352 0.10313,0.0324 0.35938,0.21131 0.25146,0.20485 -1.27654,-0.0764 -2.54067,-0.29576 -3.81364,-0.41804 -0.7533,-0.0724 -1.51766,-0.28952 -2.26425,-0.16578 -0.37747,0.0626 1.15368,-0.0168 1.08982,0.36044 -0.0642,0.37919 -0.7691,0.0111 -1.15365,0.0167 -9.485097,-0.9241 -2.548593,-0.48891 -2.258666,0.0441 0.158931,0.2922 -0.671168,-0.0371 -0.997502,0.0273 -0.05756,0.0114 -0.01633,0.11621 -0.0245,0.17431 -1.399079,-0.15005 -2.798158,-0.30011 -4.197237,-0.45017 -0.441047,-0.0133 0.848831,0.24142 1.273247,0.36212 0.229496,0.26349 0.344814,0.28718 -0.339405,0.27364 -0.660914,-0.0131 -1.32676,-0.24277 -1.978655,-0.13317 -0.363211,0.0611 1.426213,0.20436 1.06716,0.28641 -0.733691,0.16765 -4.016397,-0.58318 -0.0072,0.23585 -1.228767,-0.14137 -2.452632,-0.33515 -3.686301,-0.42412 -0.369079,-0.0266 0.720192,0.17236 1.084629,0.23649 0.745962,0.13128 1.724476,-0.20048 2.245234,0.34952 0.48685,0.51419 -1.406079,-0.18879 -2.113847,-0.21075 -0.156762,-0.005 2.251593,0.66688 -0.449375,0.13944 0.490884,0.0897 1.971668,0.27022 1.472654,0.26915 -0.763368,-0.002 -1.513708,-0.20277 -2.274034,-0.27087 -0.0304,-0.003 -0.09746,0.0524 -0.0682,0.0611 0.130399,0.0386 2.392119,0.51946 2.388695,0.52108 -0.475245,0.22406 -1.045565,-0.10508 -1.568348,-0.15761 -8.737733,-1.12059 -2.628334,-0.47165 -20.759626,-0.25909 -0.398552,0.005 -1.517212,0.33104 -1.19143,0.1014 0.42701,-0.30098 1.053957,-0.12471 1.529953,-0.34002 0.733297,-0.33169 -4.986268,0.66511 -2.412847,0.0889 -6.095171,0.51294 -0.243386,0.0851 -4.324041,0.2543 -0.884773,0.0367 -3.457975,0.52004 -2.652204,0.15275 1.303893,-0.59435 2.832851,-0.47191 4.211295,-0.86343 0.167456,-0.0476 -0.322951,-0.13006 -0.484426,-0.19509 -1.074845,0.059 -2.149691,0.11801 -3.224536,0.17701 -0.842595,0.0229 -1.714661,0.29082 -2.527785,0.0687 -0.408042,-0.11145 0.831791,-0.21274 1.19266,-0.4334 0.07233,-0.0442 -0.0208,-0.22206 -0.105044,-0.23165 -0.536702,-0.0611 -1.943844,0.55978 -1.726252,-0.31097 -0.744165,0.0757 -1.486698,0.16962 -2.232497,0.22699 -0.102508,0.008 -0.409615,-0.032 -0.306805,-0.0316 6.973166,0.0273 13.946243,0.15096 20.919356,0.11245 0.663426,-0.004 -1.316297,-0.17563 -1.97844,-0.21703 -0.158098,-0.01 -0.3125,0.0638 -0.470907,0.0639 -0.504939,2.5e-4 -1.009006,-0.0419 -1.513509,-0.0629 -0.412837,0.006 -0.830861,-0.0473 -1.238511,0.0182 -0.278172,0.0447 -0.205779,1.5618 0.639724,0.55241 -1.271592,0.009 -2.534624,-0.44792 -3.80067,-0.32893 -0.63087,0.0593 1.220068,0.34276 1.830103,0.51414 -1.499266,-0.14908 -2.998531,-0.29815 -4.497797,-0.44723 3.828059,1.15041 -0.166047,-0.18077 -1.158067,0.30534 -0.616355,0.30202 2.631544,0.29391 1.988617,0.53424 -0.906384,0.33881 -1.928724,-0.19554 -2.896362,-0.19492 -0.09534,6e-5 -0.138307,0.13126 -0.20746,0.19689 -0.930104,-0.0697 -1.860208,-0.13947 -2.790312,-0.2092 3.555293,0.84188 2.516438,0.4834 -0.963829,0.24534 -0.249847,-0.0171 -2.297615,-0.0474 -2.595942,-0.0527 -0.369366,-0.007 -0.791085,-0.21058 -1.108075,-0.0209 -0.220846,0.13217 0.487928,0.164 0.731892,0.246 0.317388,0.0918 0.704444,0.0569 0.952162,0.2755 0.146201,0.12904 -0.413567,-0.0464 -0.582827,0.0505 -0.08162,0.0467 0.336429,0.14643 0.24242,0.14428 -0.695066,-0.0159 -1.382234,-0.17603 -2.077407,-0.18632 -0.124349,-0.002 0.224519,0.10703 0.336779,0.16054 -0.579137,-0.0529 -1.158274,-0.10578 -1.737412,-0.15867 0.825658,0.14482 3.310951,0.34982 2.476973,0.43446 -1.094612,0.11109 -2.185348,-0.2616 -3.281799,-0.35278 -0.14053,-0.0117 -0.557728,0.0118 -0.420658,0.0449 0.778184,0.18808 3.156745,0.3136 2.363911,0.42478 -0.486639,0.0682 -7.07228,-0.96389 -0.242134,0.0719 -0.347676,-0.027 -0.694425,-0.0719 -1.043029,-0.0811 -0.029,-7.7e-4 0.09604,0.0581 0.06715,0.0554 -0.363233,-0.0339 -0.722712,-0.10015 -1.084068,-0.15023 0.06762,-0.007 0.270009,-0.0113 0.202844,-0.0219 -0.52103,-0.0828 -0.929114,-0.0829 -1.441251,-0.0988 7.075029,0.60785 1.457199,0.0639 1.423738,0.19776 -0.07848,0.31385 0.71231,0.002 0.943317,0.22835 0.136829,0.13415 -0.362432,0.15289 -0.554057,0.15331 -1.002097,0.002 -2.017554,-0.32866 -3.002775,-0.14552 -0.57448,0.1068 1.139986,0.25723 1.709978,0.38584 -0.623692,-0.0379 -1.247388,-0.0758 -1.871078,-0.11379 -3.656657,-0.2227 -0.956464,-0.11358 3.476448,0.7352 0.05636,0.0108 -0.07277,0.11819 -0.129917,0.11297 -1.390948,-0.12702 -2.765535,-0.42002 -4.159701,-0.5047 -0.521455,-0.0317 1.019216,0.22993 1.528824,0.3449 -6.995911,0.0208 -13.992096,-0.003 -20.987735,0.0625 -0.546488,0.005 -2.114169,0.4071 -1.632816,0.1483 0.667529,-0.35889 1.49528,-0.26294 2.225235,-0.46681 0.05182,-0.0145 -0.04609,-0.12801 -0.09988,-0.12678 -0.777629,0.0177 -1.549386,0.21801 -2.326383,0.18201 -0.200409,-0.009 0.360337,-0.17651 0.540506,-0.26477 0.183614,-0.094 0.756191,-0.2625 0.550844,-0.28189 -0.774404,-0.0731 -1.55334,0.0883 -2.330769,0.11381 -0.532159,0.0175 -2.719642,0.0422 -3.339906,-0.006 -0.217262,-0.0168 -0.567025,0.0658 -0.638552,-0.14006 -0.06199,-0.17838 0.328457,-0.18647 0.492685,-0.27971 0.07925,-0.0749 0.169424,-0.13978 0.237761,-0.22479 0.04031,-0.0502 0.147364,-0.17288 0.08304,-0.17425 -0.626672,-0.0133 -1.250184,0.0929 -1.875513,0.13606 -7.199617,0.49644 -16.7439803,0.23914 17.79413,0.0168 -5.602423,-0.73073 -1.146987,-0.21176 -0.898568,-0.005 0.262019,0.21782 -0.681818,-0.0793 -1.021084,-0.0477 -0.06221,0.006 0.188515,0.0984 0.134765,0.13025 -0.123214,0.073 -0.284982,0.0288 -0.427473,0.0432 -6.446776,-0.0579 -12.893552,-0.11574 -19.340328,-0.17361 -0.656506,0.0765 -1.312366,0.1587 -1.969517,0.22941 -0.430744,0.0464 -0.864309,0.17723 -1.293975,0.12177 -0.114728,-0.0148 1.684732,-0.41669 1.505979,-0.40556 -1.415595,0.0882 -2.807531,0.4262 -4.224862,0.50567 -0.640637,0.0747 4.185338,-1.0645 3.839702,-1.60905 -0.333471,-0.52539 -4.538043,1.60376 -3.931604,1.46425 0.126145,-0.029 0.49313,-0.14188 0.363839,-0.13569 -0.592217,0.0283 3.596351,-1.19111 3.994531,-1.6304 0.218969,-0.24158 -1.511359,1.2017 -5.317094,1.61141 -0.767355,0.0972 4.229104,-1.61956 3.459546,-1.54176 -0.07228,0.007 -0.155241,0.005 -0.214768,-0.037 -0.02534,-0.0177 0.08206,-0.0733 0.05138,-0.0773 -0.171882,-0.0223 4.288057,-3.08427 -0.519726,0.0164 1.340501,-0.3351 4.956248,-0.78803 -1.070112,0.0511 -1.032014,0.0517 -0.355824,0.0401 0.881973,-0.23782 0.0168,-0.004 2.859561,-0.56065 -0.03832,-0.0346 -0.880354,0.1598 -1.762158,0.35221 -2.656238,0.38657 -2.4713009,0.095 3.741589,-0.53086 1.72921,-0.32514 l 11.38956,-0.88324 z"
       inkscape:connector-curvature="0"
       sodipodi:nodetypes="csscsccsscccsccsscsccccccccscccssccssssscccccscsccssccssscccsccccsccccsscscccsccccscsccssscccsssscsscssccccsscccsssccsscscssssccsssscccccscssscscccccscccscscccccssccccccscsscccssccscsscccscccscccccsccssscccsssccccccssscccscsccscscsccscscsssccccccssscscccccccssccsccccssccssccsccsscscscccssccssccccsssccsscsccscsccssssscsscccsssccscscscsscccscscsscscsscssccssccsssccsccccssscsssccccccccsscsssccscccccccccccsccsssccscscscscccscssccccccccsscscsscsscsccsscccccscccsccscscscsscccccccssccc" />
    <rect
       style="fill:url(#linearGradient6158);fill-opacity:1;fill-rule:nonzero;stroke:none;filter:url(#filter6180)"
       id="rect6150"
       width="38.498035"
       height="5.2378278"
       x="18.222792"
       y="951.01019" />
    <rect
       style="fill:url(#linearGradient6201);fill-opacity:1;fill-rule:nonzero;stroke:none;filter:url(#filter6180-1)"
       id="rect6150-1"
       width="38.498035"
       height="5.2378278"
       x="90.659744"
       y="950.48645" />
    <rect
       style="fill:url(#linearGradient6241);fill-opacity:1;fill-rule:nonzero;stroke:none;filter:url(#filter6180-1-7)"
       id="rect6150-1-9"
       width="38.498035"
       height="5.2378278"
       x="153.5993"
       y="950.74829" />
    <g
       id="g6587"
       transform="translate(15.425452,11.851852)">
      <path
         sodipodi:type="arc"
         style="fill:#000000;fill-opacity:1;fill-rule:nonzero;stroke:none;filter:url(#filter6523)"
         id="path6314"
         sodipodi:cx="41.378841"
         sodipodi:cy="43.912724"
         sodipodi:rx="3.6664796"
         sodipodi:ry="3.6664796"
         d="m 45.045321,43.912724 c 0,2.02494 -1.641539,3.666479 -3.66648,3.666479 -2.02494,0 -3.666479,-1.641539 -3.666479,-3.666479 0,-2.024941 1.641539,-3.66648 3.666479,-3.66648 2.024941,0 3.66648,1.641539 3.66648,3.66648 z"
         transform="matrix(0.35714285,0,0,0.35714285,4.144295,919.26252)" />
      <path
         transform="matrix(0.35714285,0,0,0.35714285,4.144295,919.26252)"
         d="m 45.045321,43.912724 c 0,2.02494 -1.641539,3.666479 -3.66648,3.666479 -2.02494,0 -3.666479,-1.641539 -3.666479,-3.666479 0,-2.024941 1.641539,-3.66648 3.666479,-3.66648 2.024941,0 3.66648,1.641539 3.66648,3.66648 z"
         sodipodi:ry="3.6664796"
         sodipodi:rx="3.6664796"
         sodipodi:cy="43.912724"
         sodipodi:cx="41.378841"
         id="path6304"
         style="fill:url(#radialGradient6591);fill-opacity:1;fill-rule:nonzero;stroke:none;filter:url(#filter6583)"
         sodipodi:type="arc" />
    </g>
    <g
       transform="translate(35.893774,11.851852)"
       id="g6603">
      <path
         transform="matrix(0.35714285,0,0,0.35714285,4.144295,919.26252)"
         d="m 45.045321,43.912724 c 0,2.02494 -1.641539,3.666479 -3.66648,3.666479 -2.02494,0 -3.666479,-1.641539 -3.666479,-3.666479 0,-2.024941 1.641539,-3.66648 3.666479,-3.66648 2.024941,0 3.66648,1.641539 3.66648,3.66648 z"
         sodipodi:ry="3.6664796"
         sodipodi:rx="3.6664796"
         sodipodi:cy="43.912724"
         sodipodi:cx="41.378841"
         id="path6605"
         style="fill:#000000;fill-opacity:1;fill-rule:nonzero;stroke:none;filter:url(#filter6523)"
         sodipodi:type="arc" />
      <path
         sodipodi:type="arc"
         style="fill:url(#radialGradient6609);fill-opacity:1;fill-rule:nonzero;stroke:none;filter:url(#filter6583)"
         id="path6607"
         sodipodi:cx="41.378841"
         sodipodi:cy="43.912724"
         sodipodi:rx="3.6664796"
         sodipodi:ry="3.6664796"
         d="m 45.045321,43.912724 c 0,2.02494 -1.641539,3.666479 -3.66648,3.666479 -2.02494,0 -3.666479,-1.641539 -3.666479,-3.666479 0,-2.024941 1.641539,-3.66648 3.666479,-3.66648 2.024941,0 3.66648,1.641539 3.66648,3.66648 z"
         transform="matrix(0.35714285,0,0,0.35714285,4.144295,919.26252)" />
    </g>
    <g
       id="g6611"
       transform="translate(56.362102,11.851852)">
      <path
         sodipodi:type="arc"
         style="fill:#000000;fill-opacity:1;fill-rule:nonzero;stroke:none;filter:url(#filter6523)"
         id="path6613"
         sodipodi:cx="41.378841"
         sodipodi:cy="43.912724"
         sodipodi:rx="3.6664796"
         sodipodi:ry="3.6664796"
         d="m 45.045321,43.912724 c 0,2.02494 -1.641539,3.666479 -3.66648,3.666479 -2.02494,0 -3.666479,-1.641539 -3.666479,-3.666479 0,-2.024941 1.641539,-3.66648 3.666479,-3.66648 2.024941,0 3.66648,1.641539 3.66648,3.66648 z"
         transform="matrix(0.35714285,0,0,0.35714285,4.144295,919.26252)" />
      <path
         transform="matrix(0.35714285,0,0,0.35714285,4.144295,919.26252)"
         d="m 45.045321,43.912724 c 0,2.02494 -1.641539,3.666479 -3.66648,3.666479 -2.02494,0 -3.666479,-1.641539 -3.666479,-3.666479 0,-2.024941 1.641539,-3.66648 3.666479,-3.66648 2.024941,0 3.66648,1.641539 3.66648,3.66648 z"
         sodipodi:ry="3.6664796"
         sodipodi:rx="3.6664796"
         sodipodi:cy="43.912724"
         sodipodi:cx="41.378841"
         id="path6615"
         style="fill:url(#radialGradient6617);fill-opacity:1;fill-rule:nonzero;stroke:none;filter:url(#filter6583)"
         sodipodi:type="arc" />
    </g>
    <g
       transform="translate(76.830424,11.851852)"
       id="g6619">
      <path
         transform="matrix(0.35714285,0,0,0.35714285,4.144295,919.26252)"
         d="m 45.045321,43.912724 c 0,2.02494 -1.641539,3.666479 -3.66648,3.666479 -2.02494,0 -3.666479,-1.641539 -3.666479,-3.666479 0,-2.024941 1.641539,-3.66648 3.666479,-3.66648 2.024941,0 3.66648,1.641539 3.66648,3.66648 z"
         sodipodi:ry="3.6664796"
         sodipodi:rx="3.6664796"
         sodipodi:cy="43.912724"
         sodipodi:cx="41.378841"
         id="path6621"
         style="fill:#000000;fill-opacity:1;fill-rule:nonzero;stroke:none;filter:url(#filter6523)"
         sodipodi:type="arc" />
      <path
         sodipodi:type="arc"
         style="fill:url(#radialGradient6625);fill-opacity:1;fill-rule:nonzero;stroke:none;filter:url(#filter6583)"
         id="path6623"
         sodipodi:cx="41.378841"
         sodipodi:cy="43.912724"
         sodipodi:rx="3.6664796"
         sodipodi:ry="3.6664796"
         d="m 45.045321,43.912724 c 0,2.02494 -1.641539,3.666479 -3.66648,3.666479 -2.02494,0 -3.666479,-1.641539 -3.666479,-3.666479 0,-2.024941 1.641539,-3.66648 3.666479,-3.66648 2.024941,0 3.66648,1.641539 3.66648,3.66648 z"
         transform="matrix(0.35714285,0,0,0.35714285,4.144295,919.26252)" />
    </g>
    <g
       id="g6627"
       transform="translate(97.298747,11.851852)">
      <path
         sodipodi:type="arc"
         style="fill:#000000;fill-opacity:1;fill-rule:nonzero;stroke:none;filter:url(#filter6523)"
         id="path6629"
         sodipodi:cx="41.378841"
         sodipodi:cy="43.912724"
         sodipodi:rx="3.6664796"
         sodipodi:ry="3.6664796"
         d="m 45.045321,43.912724 c 0,2.02494 -1.641539,3.666479 -3.66648,3.666479 -2.02494,0 -3.666479,-1.641539 -3.666479,-3.666479 0,-2.024941 1.641539,-3.66648 3.666479,-3.66648 2.024941,0 3.66648,1.641539 3.66648,3.66648 z"
         transform="matrix(0.35714285,0,0,0.35714285,4.144295,919.26252)" />
      <path
         transform="matrix(0.35714285,0,0,0.35714285,4.144295,919.26252)"
         d="m 45.045321,43.912724 c 0,2.02494 -1.641539,3.666479 -3.66648,3.666479 -2.02494,0 -3.666479,-1.641539 -3.666479,-3.666479 0,-2.024941 1.641539,-3.66648 3.666479,-3.66648 2.024941,0 3.66648,1.641539 3.66648,3.66648 z"
         sodipodi:ry="3.6664796"
         sodipodi:rx="3.6664796"
         sodipodi:cy="43.912724"
         sodipodi:cx="41.378841"
         id="path6631"
         style="fill:url(#radialGradient6633);fill-opacity:1;fill-rule:nonzero;stroke:none;filter:url(#filter6583)"
         sodipodi:type="arc" />
    </g>
    <g
       transform="translate(117.76707,11.851852)"
       id="g6635">
      <path
         transform="matrix(0.35714285,0,0,0.35714285,4.144295,919.26252)"
         d="m 45.045321,43.912724 c 0,2.02494 -1.641539,3.666479 -3.66648,3.666479 -2.02494,0 -3.666479,-1.641539 -3.666479,-3.666479 0,-2.024941 1.641539,-3.66648 3.666479,-3.66648 2.024941,0 3.66648,1.641539 3.66648,3.66648 z"
         sodipodi:ry="3.6664796"
         sodipodi:rx="3.6664796"
         sodipodi:cy="43.912724"
         sodipodi:cx="41.378841"
         id="path6637"
         style="fill:#000000;fill-opacity:1;fill-rule:nonzero;stroke:none;filter:url(#filter6523)"
         sodipodi:type="arc" />
      <path
         sodipodi:type="arc"
         style="fill:url(#radialGradient6641);fill-opacity:1;fill-rule:nonzero;stroke:none;filter:url(#filter6583)"
         id="path6639"
         sodipodi:cx="41.378841"
         sodipodi:cy="43.912724"
         sodipodi:rx="3.6664796"
         sodipodi:ry="3.6664796"
         d="m 45.045321,43.912724 c 0,2.02494 -1.641539,3.666479 -3.66648,3.666479 -2.02494,0 -3.666479,-1.641539 -3.666479,-3.666479 0,-2.024941 1.641539,-3.66648 3.666479,-3.66648 2.024941,0 3.66648,1.641539 3.66648,3.66648 z"
         transform="matrix(0.35714285,0,0,0.35714285,4.144295,919.26252)" />
    </g>
    <g
       id="g6643"
       transform="translate(138.23539,11.851852)">
      <path
         sodipodi:type="arc"
         style="fill:#000000;fill-opacity:1;fill-rule:nonzero;stroke:none;filter:url(#filter6523)"
         id="path6645"
         sodipodi:cx="41.378841"
         sodipodi:cy="43.912724"
         sodipodi:rx="3.6664796"
         sodipodi:ry="3.6664796"
         d="m 45.045321,43.912724 c 0,2.02494 -1.641539,3.666479 -3.66648,3.666479 -2.02494,0 -3.666479,-1.641539 -3.666479,-3.666479 0,-2.024941 1.641539,-3.66648 3.666479,-3.66648 2.024941,0 3.66648,1.641539 3.66648,3.66648 z"
         transform="matrix(0.35714285,0,0,0.35714285,4.144295,919.26252)" />
      <path
         transform="matrix(0.35714285,0,0,0.35714285,4.144295,919.26252)"
         d="m 45.045321,43.912724 c 0,2.02494 -1.641539,3.666479 -3.66648,3.666479 -2.02494,0 -3.666479,-1.641539 -3.666479,-3.666479 0,-2.024941 1.641539,-3.66648 3.666479,-3.66648 2.024941,0 3.66648,1.641539 3.66648,3.66648 z"
         sodipodi:ry="3.6664796"
         sodipodi:rx="3.6664796"
         sodipodi:cy="43.912724"
         sodipodi:cx="41.378841"
         id="path6647"
         style="fill:url(#radialGradient6649);fill-opacity:1;fill-rule:nonzero;stroke:none;filter:url(#filter6583)"
         sodipodi:type="arc" />
    </g>
    <g
       transform="translate(158.70371,11.851852)"
       id="g6651">
      <path
         transform="matrix(0.35714285,0,0,0.35714285,4.144295,919.26252)"
         d="m 45.045321,43.912724 c 0,2.02494 -1.641539,3.666479 -3.66648,3.666479 -2.02494,0 -3.666479,-1.641539 -3.666479,-3.666479 0,-2.024941 1.641539,-3.66648 3.666479,-3.66648 2.024941,0 3.66648,1.641539 3.66648,3.66648 z"
         sodipodi:ry="3.6664796"
         sodipodi:rx="3.6664796"
         sodipodi:cy="43.912724"
         sodipodi:cx="41.378841"
         id="path6653"
         style="fill:#000000;fill-opacity:1;fill-rule:nonzero;stroke:none;filter:url(#filter6523)"
         sodipodi:type="arc" />
      <path
         sodipodi:type="arc"
         style="fill:url(#radialGradient6657);fill-opacity:1;fill-rule:nonzero;stroke:none;filter:url(#filter6583)"
         id="path6655"
         sodipodi:cx="41.378841"
         sodipodi:cy="43.912724"
         sodipodi:rx="3.6664796"
         sodipodi:ry="3.6664796"
         d="m 45.045321,43.912724 c 0,2.02494 -1.641539,3.666479 -3.66648,3.666479 -2.02494,0 -3.666479,-1.641539 -3.666479,-3.666479 0,-2.024941 1.641539,-3.66648 3.666479,-3.66648 2.024941,0 3.66648,1.641539 3.66648,3.66648 z"
         transform="matrix(0.35714285,0,0,0.35714285,4.144295,919.26252)" />
    </g>
  </g>
</svg>
