<?xml version="1.0" encoding="UTF-8" standalone="no"?>
<!-- Created with Inkscape (http://www.inkscape.org/) -->

<svg
   xmlns:dc="http://purl.org/dc/elements/1.1/"
   xmlns:cc="http://creativecommons.org/ns#"
   xmlns:rdf="http://www.w3.org/1999/02/22-rdf-syntax-ns#"
   xmlns:svg="http://www.w3.org/2000/svg"
   xmlns="http://www.w3.org/2000/svg"
   xmlns:sodipodi="http://sodipodi.sourceforge.net/DTD/sodipodi-0.dtd"
   xmlns:inkscape="http://www.inkscape.org/namespaces/inkscape"
   width="160"
   height="300"
   id="svg2"
   version="1.1"
   inkscape:version="0.48.4 r9939"
   sodipodi:docname="streetlamp1.svg"
   inkscape:export-filename="/home/paul/src/games/jam/sven/BGJ05/data/streetlamp1.png"
   inkscape:export-xdpi="90"
   inkscape:export-ydpi="90">
  <defs
     id="defs4" />
  <sodipodi:namedview
     id="base"
     pagecolor="#000000"
     bordercolor="#666666"
     borderopacity="1.0"
     inkscape:pageopacity="0"
     inkscape:pageshadow="2"
     inkscape:zoom="1.4"
     inkscape:cx="104.8922"
     inkscape:cy="171.79664"
     inkscape:document-units="px"
     inkscape:current-layer="g3049"
     showgrid="true"
     inkscape:snap-bbox="true"
     inkscape:snap-smooth-nodes="true"
     inkscape:object-nodes="true"
     inkscape:bbox-nodes="true"
     fit-margin-top="0"
     fit-margin-left="0"
     fit-margin-right="0"
     fit-margin-bottom="0"
     inkscape:window-width="1362"
     inkscape:window-height="729"
     inkscape:window-x="0"
     inkscape:window-y="37"
     inkscape:window-maximized="0">
    <inkscape:grid
       type="xygrid"
       id="grid2985"
       empspacing="5"
       visible="true"
       enabled="true"
       snapvisiblegridlinesonly="true"
       originx="-70px"
       originy="-545px" />
  </sodipodi:namedview>
  <metadata
     id="metadata7">
    <rdf:RDF>
      <cc:Work
         rdf:about="">
        <dc:format>image/svg+xml</dc:format>
        <dc:type
           rdf:resource="http://purl.org/dc/dcmitype/StillImage" />
        <dc:title></dc:title>
      </cc:Work>
    </rdf:RDF>
  </metadata>
  <g
     inkscape:label="Layer 1"
     inkscape:groupmode="layer"
     id="layer1"
     transform="translate(-70,-207.36218)">
    <g
       id="g3049"
       transform="translate(-10,-395)">
      <path
         style="opacity:0.34710744;fill:#ffffff;fill-opacity:1;stroke:#000000;stroke-width:1px;stroke-linecap:butt;stroke-linejoin:miter;stroke-opacity:1"
         d="m 45,55 -35,60 50,105 20,5 -5,0 L 50,120 70,55 z"
         id="path3092"
         inkscape:connector-curvature="0"
         transform="translate(80,602.36218)"
         inkscape:export-xdpi="90"
         inkscape:export-ydpi="90"
         sodipodi:nodetypes="cccccccc" />
      <path
         style="fill:#ffffff;stroke:#000000;stroke-width:1px;stroke-linecap:butt;stroke-linejoin:miter;stroke-opacity:1;opacity:0.46694215;fill-opacity:1"
         d="m 70,60 c 0,0 15,0 20,0 5,0 20,55 20,55 L 85,220 75,225 45,120 z"
         id="path3864"
         inkscape:connector-curvature="0"
         transform="translate(80,602.36218)" />
      <path
         style="fill:#ffffff;stroke:#000000;stroke-width:1px;stroke-linecap:butt;stroke-linejoin:miter;stroke-opacity:1;opacity:0.52479339;fill-opacity:1"
         d="m 120,55 30,55 -55,110 -5,0 20,-105 -15,-55 z"
         id="path3866"
         inkscape:connector-curvature="0"
         transform="translate(80,602.36218)"
         sodipodi:nodetypes="ccccccc" />
      <rect
         ry="20"
         y="852.36218"
         x="135"
         height="50"
         width="50"
         id="rect3015"
         style="fill:#000000;fill-opacity:1;fill-rule:nonzero;stroke:none" />
      <rect
         y="832.36218"
         x="150"
         height="59.999996"
         width="20"
         id="rect3017"
         style="fill:#000000;fill-opacity:1;fill-rule:nonzero;stroke:none" />
      <path
         style="fill:#000000;fill-opacity:1;fill-rule:nonzero;stroke:none"
         d="m 70,40 0,5 -30,5 -30,55 -10,4.96875 0,10 10,0 L 60,225 l 10,5 20,0 10,-5 50,-105.03125 10,0 0,-10 L 150,105 120,50 90,45 90,40 z m -25,20 15,5 -15,50 -30,-5 z m 25,5 20,0 15,50 -50,0 z m 30,0 15,-5 30,50 -30,5 z m -80,55 25,5 22.71875,95 L 65,215 z m 35,5 50,0 -22.71875,95 -4.5625,0 z m 60,0 25,-5 -45,95 -2.71875,5 z"
         transform="translate(80,602.36218)"
         id="rect3019"
         inkscape:connector-curvature="0"
         sodipodi:nodetypes="ccccccccccccccccccccccccccccccccccccccccccccccccc" />
      <path
         sodipodi:nodetypes="ccssscccc"
         inkscape:connector-curvature="0"
         id="path3024"
         d="m 155,612.375 0,5.5625 c -8.61942,1.94671 -15,8.78737 -15,16.9375 0,9.66498 8.95431,17.5 20,17.5 11.04569,0 20,-7.83502 20,-17.5 0,-8.15013 -6.38058,-14.99079 -15,-16.9375 l 0,-5.5625 -5,-10.01282 z"
         style="fill:#000000;fill-opacity:1;fill-rule:nonzero;stroke:none" />
      <rect
         y="872.36218"
         x="90"
         height="5"
         width="140"
         id="rect3029"
         style="fill:#000000;fill-opacity:1;fill-rule:nonzero;stroke:none" />
      <path
         transform="translate(-5,-5)"
         d="m 245,879.86218 c 0,4.14214 -3.35786,7.5 -7.5,7.5 -4.14214,0 -7.5,-3.35786 -7.5,-7.5 0,-4.14213 3.35786,-7.5 7.5,-7.5 4.14214,0 7.5,3.35787 7.5,7.5 z"
         sodipodi:ry="7.5"
         sodipodi:rx="7.5"
         sodipodi:cy="879.86218"
         sodipodi:cx="237.5"
         id="path3031"
         style="fill:#000000;fill-opacity:1;fill-rule:nonzero;stroke:none"
         sodipodi:type="arc" />
      <path
         transform="translate(-5,-5)"
         d="m 100,879.86218 c 0,4.14214 -3.357864,7.5 -7.5,7.5 -4.142136,0 -7.5,-3.35786 -7.5,-7.5 0,-4.14213 3.357864,-7.5 7.5,-7.5 4.142136,0 7.5,3.35787 7.5,7.5 z"
         sodipodi:ry="7.5"
         sodipodi:rx="7.5"
         sodipodi:cy="879.86218"
         sodipodi:cx="92.5"
         id="path3033"
         style="fill:#000000;fill-opacity:1;fill-rule:nonzero;stroke:none"
         sodipodi:type="arc" />
    </g>
  </g>
</svg>
